<svg version="1.1" id="Layer_1" xmlns="http://www.w3.org/2000/svg" xmlns:xlink="http://www.w3.org/1999/xlink" x="0px" y="0px"
	 width="100%" viewBox="1 1 800 600" enable-background="new 0 0 800 600" xml:space="preserve">
<path fill="#FFFFFF" opacity="1.000000" stroke="none" 
	d="
M498.000000,601.000000 
	C332.000000,601.000000 166.500000,601.000000 1.000000,601.000000 
	C1.000000,401.000000 1.000000,201.000000 1.000000,1.000000 
	C267.666656,1.000000 534.333313,1.000000 801.000000,1.000000 
	C801.000000,201.000000 801.000000,401.000000 801.000000,601.000000 
	C700.166687,601.000000 599.333313,601.000000 498.000000,601.000000 
M478.133240,356.931030 
	C481.362091,360.057068 484.590942,363.183136 488.120575,366.892456 
	C492.026917,370.696777 495.933228,374.501099 500.123932,378.896057 
	C505.693329,384.366028 511.262726,389.835999 517.117859,395.896393 
	C524.518677,403.320435 531.878174,410.786255 539.332886,418.155823 
	C545.811218,424.560303 552.044922,424.539093 558.397339,418.207764 
	C585.976318,390.720154 613.550354,363.227570 641.118469,335.729065 
	C650.426025,326.444977 659.756470,317.183044 668.987793,307.823517 
	C674.047729,302.693359 674.544312,296.161530 669.840759,291.349762 
	C660.432617,281.725342 650.725342,272.393311 640.901245,262.303253 
	C637.323914,258.846405 633.746521,255.389526 629.909851,251.305405 
	C625.330261,246.845047 620.750671,242.384705 615.909241,237.298752 
	C610.723633,232.221741 605.537964,227.144730 600.086609,221.529877 
	C596.124634,217.665741 592.162659,213.801605 587.911621,209.321304 
	C582.959595,204.541199 578.007507,199.761093 572.789429,194.364685 
	C567.639771,189.363052 562.490112,184.361420 557.037598,178.761292 
	C551.104614,174.035126 545.438538,174.050690 540.161804,179.305725 
	C503.039612,216.274857 465.960388,253.287292 428.937531,290.355927 
	C423.516144,295.784027 423.626038,301.528412 429.015350,308.102600 
	C432.884186,311.781036 436.753021,315.459503 440.984772,319.721649 
	C445.207977,323.864349 449.431183,328.007019 453.996094,332.742950 
	C458.276489,336.944366 462.556885,341.145782 467.141052,345.917633 
	C470.706543,349.397247 474.272034,352.876831 478.133240,356.931030 
M247.125626,402.913269 
	C249.636978,405.321655 252.148346,407.730042 254.966263,410.750397 
	C257.593079,413.272522 260.219879,415.794647 263.141998,418.932465 
	C269.590424,424.524384 275.270966,424.317047 281.480255,418.114471 
	C312.094574,387.533508 342.678436,356.921997 373.289062,326.337311 
	C379.409882,320.221649 385.696991,314.269745 391.730530,308.070160 
	C397.239014,302.410156 397.262177,296.815002 391.902985,290.313293 
	C389.656433,288.183685 387.409882,286.054077 384.883331,283.284515 
	C381.517456,280.193115 378.151581,277.101685 374.707825,273.357666 
	C372.141754,270.904083 369.575714,268.450531 366.761902,265.375671 
	C363.509979,262.249481 360.258057,259.123291 356.719269,255.386932 
	C354.190979,253.236908 351.662689,251.086899 349.010345,248.259262 
	C347.010010,246.171661 345.009644,244.084076 342.752289,241.379379 
	C340.545654,239.565384 338.338989,237.751404 336.007965,235.266586 
	C334.342529,233.509888 332.677094,231.753174 330.748138,229.377991 
	C328.502411,227.250565 326.256714,225.123123 323.750488,222.380661 
	C319.170807,217.918732 314.591125,213.456802 309.757660,208.377060 
	C303.605927,202.346909 297.454193,196.316757 291.024445,189.747437 
	C287.352844,186.163895 283.681244,182.580353 279.672852,178.341873 
	C273.336426,174.200928 267.864960,174.650711 262.648163,179.794907 
	C258.975189,183.416794 255.349136,187.086288 251.698578,190.730942 
	C218.608200,223.767578 185.510269,256.796661 152.432617,289.846008 
	C146.838852,295.434967 146.341675,300.109009 150.863159,306.781952 
	C154.969894,310.844025 159.076645,314.906097 163.448761,319.559723 
	C169.980606,325.989868 176.512451,332.420013 183.351746,339.451385 
	C188.371658,344.360474 193.391586,349.269562 198.765045,354.788483 
	C205.176727,361.192261 211.588409,367.596039 218.192825,374.646454 
	C223.344727,379.473267 228.496628,384.300049 233.976105,389.732178 
	C238.267563,393.930420 242.559021,398.128632 247.125626,402.913269 
M371.423676,526.956543 
	C376.593109,532.023743 381.762573,537.090942 387.196075,542.763977 
	C391.900421,547.482178 396.568878,552.236877 401.318085,556.909424 
	C407.335083,562.829285 413.577881,562.740662 419.669434,556.732361 
	C421.330261,555.094238 422.968872,553.433533 424.620117,551.785583 
	C459.649506,516.826294 494.686829,481.874908 529.701904,446.901215 
	C535.948425,440.662079 536.059021,434.362244 529.947266,428.139008 
	C525.170227,423.274872 520.198914,418.601532 515.034302,413.219513 
	C510.158997,408.544220 505.283691,403.868927 500.144318,398.622192 
	C495.485046,394.059662 490.825806,389.497131 485.898895,384.311401 
	C480.349762,378.973572 474.800598,373.635742 469.150940,367.665497 
	C468.595062,367.054138 468.073700,366.406677 467.478027,365.836945 
	C460.181519,358.858215 452.789307,351.976990 445.595978,344.893677 
	C439.710114,339.097870 434.058044,333.064636 428.058838,326.597168 
	C424.448242,323.185333 420.837677,319.773499 416.864197,315.752075 
	C410.848083,312.556549 406.289764,313.059937 401.504364,317.788757 
	C391.548584,327.626770 381.711090,337.584229 371.787842,347.455322 
	C345.093567,374.009308 318.362244,400.526093 291.685425,427.097595 
	C284.507568,434.247131 284.579498,440.859222 292.053802,447.698792 
	C296.932007,452.500580 301.810242,457.302399 307.023468,462.702179 
	C315.956177,471.561523 324.888885,480.420868 334.140839,489.852356 
	C342.404938,497.958862 350.669037,506.065369 359.208313,514.768372 
	C363.160919,518.624390 367.113525,522.480469 371.423676,526.956543 
M362.346863,241.453506 
	C372.249084,251.255295 382.151306,261.057068 392.355804,271.461273 
	C395.162964,274.285980 397.929077,277.152985 400.785706,279.926758 
	C407.172394,286.128296 413.650055,286.121735 419.954224,279.876129 
	C427.167053,272.730194 434.310089,265.513855 441.502228,258.346924 
	C470.622437,229.328705 499.760620,200.328537 528.867310,171.296768 
	C536.425049,163.758453 536.359924,157.942032 528.743225,150.369156 
	C527.220764,148.855469 525.589233,147.451462 523.759521,145.376007 
	C518.175171,139.916382 512.590881,134.456741 506.757019,128.377045 
	C500.840759,122.583595 494.924500,116.790146 488.755585,110.378082 
	C482.506134,104.250786 476.256714,98.123489 469.751862,91.379250 
	C461.849701,83.880989 453.947510,76.382721 445.932831,68.219193 
	C438.910553,61.033890 431.944183,53.792648 424.837952,46.691349 
	C422.071564,43.926872 418.989960,41.477852 415.566132,38.319214 
	C409.959991,35.666656 405.314789,37.255867 401.136383,41.431274 
	C364.443390,78.097847 327.720459,114.734474 291.029449,151.403030 
	C284.289398,158.138977 284.814331,165.253479 292.677368,171.857162 
	C298.505829,177.556427 304.334290,183.255692 310.428711,189.550690 
	C319.300751,198.315231 328.172791,207.079773 337.351562,216.445984 
	C345.585632,224.579971 353.819672,232.713943 362.346863,241.453506 
M672.999695,152.500000 
	C672.999695,114.073700 672.999695,75.647408 672.999695,37.285141 
	C624.693726,37.285141 576.958435,37.285141 529.000610,37.285141 
	C529.000610,68.210167 528.957336,98.851227 529.122314,129.491165 
	C529.130981,131.106476 530.602783,133.030258 531.906860,134.270554 
	C540.007935,141.975037 548.153503,149.587433 548.052185,161.760010 
	C556.068298,162.618454 562.611694,164.973541 568.103027,170.497498 
	C601.587219,204.181030 635.217346,237.719498 668.806946,271.298187 
	C670.009216,272.500092 671.296570,273.616882 672.999695,275.195465 
	C672.999695,234.107208 672.999695,193.803604 672.999695,152.500000 
M234.499756,188.999756 
	C240.154434,183.345673 246.129791,177.971619 251.377502,171.962173 
	C257.125458,165.379837 264.332062,162.547531 272.810425,161.780991 
	C273.409851,153.241089 276.851105,146.388184 282.977234,140.372375 
	C304.489471,119.247604 325.688629,97.804031 346.998993,76.473839 
	C347.962830,75.509125 348.852295,74.470100 349.964233,73.261566 
	C286.696259,73.261566 223.983444,73.261566 161.241882,73.261566 
	C161.241882,136.202438 161.241882,198.881821 161.241882,262.270966 
	C185.811264,237.697067 209.905502,213.598404 234.499756,188.999756 
M608.999634,390.144379 
	C608.999634,389.235260 608.999634,388.326172 608.999634,386.374573 
	C595.103455,400.314789 581.805176,413.306885 568.942688,426.717041 
	C563.194458,432.709991 556.698486,436.105408 548.027222,436.090698 
	C547.802185,445.924377 543.243958,453.466614 535.957825,459.579712 
	C534.434021,460.858185 532.831787,462.203827 531.785583,463.849091 
	C530.560364,465.775879 529.129761,468.059662 529.117126,470.196442 
	C528.943970,499.507935 528.996704,528.820801 529.013062,558.133301 
	C529.013794,559.391724 529.200012,560.650024 529.281616,561.679565 
	C556.064575,561.679565 582.457458,561.679565 608.999695,561.679565 
	C608.999695,504.579834 608.999695,447.800018 608.999634,390.144379 
M345.988098,524.999695 
	C347.206573,524.999695 348.425049,524.999695 350.520966,524.999695 
	C328.584900,503.071106 307.512878,481.789185 286.164948,460.787750 
	C279.060791,453.798889 272.214203,446.985260 272.988342,436.114655 
	C264.902679,435.913300 258.642822,433.469269 253.296997,427.928192 
	C241.501022,415.701416 229.370148,403.795959 217.284592,391.851807 
	C214.852875,389.448547 212.016205,387.455078 209.340073,385.251099 
	C209.340073,432.101044 209.340073,478.494751 209.340073,524.999695 
	C254.818069,524.999695 299.956451,524.999695 345.988098,524.999695 
M456.500061,561.999695 
	C475.239105,561.999695 493.978149,561.999695 512.789429,561.999695 
	C512.789429,535.484375 512.789429,509.476227 512.789429,484.538391 
	C487.159210,510.173553 461.100067,536.237671 435.342987,561.999695 
	C441.566437,561.999695 448.533325,561.999695 456.500061,561.999695 
M469.000214,71.499672 
	C483.423828,85.942451 497.847443,100.385223 512.650635,115.208061 
	C512.650635,88.726166 512.650635,62.909943 512.650635,37.383297 
	C486.633698,37.383297 460.966583,37.383297 434.844604,37.383297 
	C446.344757,48.870090 457.422455,59.934921 469.000214,71.499672 
M672.999695,340.500488 
	C672.999695,334.786255 672.999695,329.071991 672.999695,324.431366 
	C662.152222,335.237152 651.085144,346.261749 640.597534,356.709015 
	C650.666748,356.709015 661.730774,356.709015 672.999695,356.709015 
	C672.999695,351.446808 672.999695,346.472412 672.999695,340.500488 
M169.503815,356.999634 
	C173.212463,356.999634 176.921112,356.999634 179.261108,356.999634 
	C173.282349,350.966187 166.923584,344.549255 161.311325,338.885651 
	C161.311325,344.067657 161.311325,350.456604 161.311325,356.999634 
	C163.925247,356.999634 166.229355,356.999634 169.503815,356.999634 
M380.502747,555.002319 
	C376.933350,551.300781 373.363953,547.599243 369.262390,543.345886 
	C369.262390,550.321716 369.262390,556.032043 369.262390,561.775146 
	C375.201233,561.775146 380.875397,561.775146 387.655823,561.775146 
	C384.985718,559.258667 382.994507,557.382080 380.502747,555.002319 
M381.008453,42.487068 
	C382.642334,40.833458 384.276215,39.179848 386.135681,37.297920 
	C379.965790,37.297920 374.576294,37.297920 369.281311,37.297920 
	C369.281311,42.936081 369.281311,48.273308 369.281311,54.694611 
	C373.472198,50.326847 376.989990,46.660595 381.008453,42.487068 
z"/>
<path fill="#000000" opacity="1.000000" stroke="none" 
	d="
M672.999695,153.000000 
	C672.999695,193.803604 672.999695,234.107208 672.999695,275.195465 
	C671.296570,273.616882 670.009216,272.500092 668.806946,271.298187 
	C635.217346,237.719498 601.587219,204.181030 568.103027,170.497498 
	C562.611694,164.973541 556.068298,162.618454 548.052185,161.760010 
	C548.153503,149.587433 540.007935,141.975037 531.906860,134.270554 
	C530.602783,133.030258 529.130981,131.106476 529.122314,129.491165 
	C528.957336,98.851227 529.000610,68.210167 529.000610,37.285141 
	C576.958435,37.285141 624.693726,37.285141 672.999695,37.285141 
	C672.999695,75.647408 672.999695,114.073700 672.999695,153.000000 
z"/>
<path fill="#000000" opacity="1.000000" stroke="none" 
	d="
M234.249756,189.249756 
	C209.905502,213.598404 185.811264,237.697067 161.241882,262.270966 
	C161.241882,198.881821 161.241882,136.202438 161.241882,73.261566 
	C223.983444,73.261566 286.696259,73.261566 349.964233,73.261566 
	C348.852295,74.470100 347.962830,75.509125 346.998993,76.473839 
	C325.688629,97.804031 304.489471,119.247604 282.977234,140.372375 
	C276.851105,146.388184 273.409851,153.241089 272.810425,161.780991 
	C264.332062,162.547531 257.125458,165.379837 251.377502,171.962173 
	C246.129791,177.971619 240.154434,183.345673 234.249756,189.249756 
z"/>
<path fill="#000000" opacity="1.000000" stroke="none" 
	d="
M608.999634,390.582306 
	C608.999695,447.800018 608.999695,504.579834 608.999695,561.679565 
	C582.457458,561.679565 556.064575,561.679565 529.281616,561.679565 
	C529.200012,560.650024 529.013794,559.391724 529.013062,558.133301 
	C528.996704,528.820801 528.943970,499.507935 529.117126,470.196442 
	C529.129761,468.059662 530.560364,465.775879 531.785583,463.849091 
	C532.831787,462.203827 534.434021,460.858185 535.957825,459.579712 
	C543.243958,453.466614 547.802185,445.924377 548.027222,436.090698 
	C556.698486,436.105408 563.194458,432.709991 568.942688,426.717041 
	C581.805176,413.306885 595.103455,400.314789 608.999634,386.374573 
	C608.999634,388.326172 608.999634,389.235260 608.999634,390.582306 
z"/>
<path fill="#000000" opacity="1.000000" stroke="none" 
	d="
M345.541473,524.999695 
	C299.956451,524.999695 254.818069,524.999695 209.340073,524.999695 
	C209.340073,478.494751 209.340073,432.101044 209.340073,385.251099 
	C212.016205,387.455078 214.852875,389.448547 217.284592,391.851807 
	C229.370148,403.795959 241.501022,415.701416 253.296997,427.928192 
	C258.642822,433.469269 264.902679,435.913300 272.988342,436.114655 
	C272.214203,446.985260 279.060791,453.798889 286.164948,460.787750 
	C307.512878,481.789185 328.584900,503.071106 350.520966,524.999695 
	C348.425049,524.999695 347.206573,524.999695 345.541473,524.999695 
z"/>
<path fill="#BD0E82" opacity="1.000000" stroke="none" 
	d="
M524.007996,145.996872 
	C525.589233,147.451462 527.220764,148.855469 528.743225,150.369156 
	C536.359924,157.942032 536.425049,163.758453 528.867310,171.296768 
	C499.760620,200.328537 470.622437,229.328705 441.502228,258.346924 
	C434.310089,265.513855 427.167053,272.730194 419.954224,279.876129 
	C413.650055,286.121735 407.172394,286.128296 400.785706,279.926758 
	C397.929077,277.152985 395.162964,274.285980 392.238770,270.819702 
	C393.667908,268.520325 395.334473,266.955994 396.718903,265.172577 
	C397.677490,263.937683 398.246918,262.400757 399.291870,260.850037 
	C400.735291,259.294952 401.762238,257.773895 403.035614,256.498993 
	C438.157227,221.335739 473.294647,186.188248 508.485107,151.093948 
	C509.714355,149.868073 511.989044,148.077927 512.965149,148.486969 
	C517.450378,150.366425 520.506592,147.489731 524.007996,145.996872 
z"/>
<path fill="#C5238A" opacity="1.000000" stroke="none" 
	d="
M489.008240,110.996689 
	C494.924500,116.790146 500.840759,122.583595 506.571228,128.841644 
	C504.495239,130.535004 502.649719,131.840652 500.703064,132.972275 
	C498.480804,134.264099 495.719147,134.944229 493.961792,136.672882 
	C462.225281,167.891357 430.604889,199.227890 398.961243,230.540756 
	C397.425415,232.060486 395.982452,233.686478 394.345764,235.087128 
	C393.388031,235.906738 392.131775,236.377533 391.003632,236.577713 
	C390.331696,232.433640 389.665863,228.717056 388.999939,224.543304 
	C388.678345,218.396774 388.356842,212.707413 388.377563,206.978088 
	C390.245361,205.693192 391.892059,204.569641 393.278625,203.185471 
	C421.202026,175.309952 449.035706,147.344070 477.071991,119.582733 
	C480.511902,116.176559 485.003845,113.832794 489.008240,110.996689 
z"/>
<path fill="#464648" opacity="1.000000" stroke="none" 
	d="
M392.161682,290.934174 
	C397.262177,296.815002 397.239014,302.410156 391.730530,308.070160 
	C385.696991,314.269745 379.409882,320.221649 373.289062,326.337311 
	C342.678436,356.921997 312.094574,387.533508 281.480255,418.114471 
	C275.270966,424.317047 269.590424,424.524384 263.145447,418.292450 
	C264.268555,415.456055 266.862030,412.598969 266.229523,411.188110 
	C264.386414,407.076874 265.823700,404.623718 268.509460,401.965515 
	C304.719513,366.126984 340.904297,330.262878 377.096130,294.405884 
	C377.569366,293.937012 377.990234,293.373535 378.547272,293.041718 
	C379.228607,292.635834 380.392212,291.953888 380.721191,292.206573 
	C384.999603,295.492889 388.488983,292.495209 392.161682,290.934174 
z"/>
<path fill="#C11886" opacity="1.000000" stroke="none" 
	d="
M391.009766,237.005219 
	C392.131775,236.377533 393.388031,235.906738 394.345764,235.087128 
	C395.982452,233.686478 397.425415,232.060486 398.961243,230.540756 
	C430.604889,199.227890 462.225281,167.891357 493.961792,136.672882 
	C495.719147,134.944229 498.480804,134.264099 500.703064,132.972275 
	C502.649719,131.840652 504.495239,130.535004 506.695984,129.151672 
	C512.590881,134.456741 518.175171,139.916382 523.883789,145.686432 
	C520.506592,147.489731 517.450378,150.366425 512.965149,148.486969 
	C511.989044,148.077927 509.714355,149.868073 508.485107,151.093948 
	C473.294647,186.188248 438.157227,221.335739 403.035614,256.498993 
	C401.762238,257.773895 400.735291,259.294952 399.049103,260.696594 
	C398.005676,260.126526 397.506622,259.561127 396.996674,258.601685 
	C394.997406,251.472137 393.009033,244.736618 391.015808,237.752136 
	C391.010895,237.503189 391.009766,237.005203 391.009766,237.005219 
z"/>
<path fill="#000000" opacity="1.000000" stroke="none" 
	d="
M456.000122,561.999695 
	C448.533325,561.999695 441.566437,561.999695 435.342987,561.999695 
	C461.100067,536.237671 487.159210,510.173553 512.789429,484.538391 
	C512.789429,509.476227 512.789429,535.484375 512.789429,561.999695 
	C493.978149,561.999695 475.239105,561.999695 456.000122,561.999695 
z"/>
<path fill="#000000" opacity="1.000000" stroke="none" 
	d="
M468.750183,71.249710 
	C457.422455,59.934921 446.344757,48.870090 434.844604,37.383297 
	C460.966583,37.383297 486.633698,37.383297 512.650635,37.383297 
	C512.650635,62.909943 512.650635,88.726166 512.650635,115.208061 
	C497.847443,100.385223 483.423828,85.942451 468.750183,71.249710 
z"/>
<path fill="#C92E8F" opacity="1.000000" stroke="none" 
	d="
M488.881897,110.687386 
	C485.003845,113.832794 480.511902,116.176559 477.071991,119.582733 
	C449.035706,147.344070 421.202026,175.309952 393.278625,203.185471 
	C391.892059,204.569641 390.245361,205.693192 388.365509,206.599777 
	C388.003143,205.505295 387.994995,204.749115 387.989990,203.536163 
	C388.647064,196.380585 389.301056,189.681808 389.969971,182.565948 
	C390.994965,177.434723 392.005005,172.720551 393.358643,167.969955 
	C394.759399,167.164261 395.941162,166.519867 396.855530,165.607483 
	C418.778168,143.731888 440.680206,121.835701 462.560303,99.917557 
	C465.119507,97.353874 467.528595,94.640282 470.007263,91.996185 
	C476.256714,98.123489 482.506134,104.250786 488.881897,110.687386 
z"/>
<path fill="#525254" opacity="1.000000" stroke="none" 
	d="
M374.785706,274.010284 
	C378.151581,277.101685 381.517456,280.193115 384.705322,283.752380 
	C382.417542,285.328156 379.613464,287.892944 378.324402,287.278625 
	C373.957306,285.197327 371.818726,287.673950 369.328552,290.164642 
	C334.367828,325.132385 299.405518,360.098541 264.427185,395.048615 
	C263.025543,396.449127 261.460938,397.686493 259.700012,398.767883 
	C257.957977,393.693024 256.488220,388.850159 255.361816,383.970459 
	C257.234131,382.691681 258.887299,381.574158 260.273804,380.189575 
	C293.525848,346.984528 326.741943,313.743469 360.004395,280.548859 
	C361.371368,279.184662 362.975861,277.833618 364.731628,277.132477 
	C367.980499,275.835114 371.423553,275.023956 374.785706,274.010284 
z"/>
<path fill="#D958A1" opacity="1.000000" stroke="none" 
	d="
M292.359833,171.229126 
	C284.814331,165.253479 284.289398,158.138977 291.029449,151.403030 
	C327.720459,114.734474 364.443390,78.097847 401.136383,41.431274 
	C405.314789,37.255867 409.959991,35.666656 415.652344,38.930206 
	C412.387909,42.184143 412.694153,45.498528 413.574677,48.999500 
	C410.193298,49.733540 406.344055,49.527416 404.434326,51.351654 
	C393.678528,61.626087 383.389069,72.388710 372.644348,83.132004 
	C365.985626,89.269379 359.575317,95.210243 353.298309,101.288826 
	C351.940186,102.604019 351.061676,104.414482 349.665344,106.142235 
	C343.246002,112.192352 337.123596,118.097054 330.701691,124.146057 
	C324.267700,130.526901 318.133240,136.763443 311.699158,143.144257 
	C307.571930,147.404358 303.383789,151.257751 300.099426,155.769089 
	C298.838959,157.500458 298.951599,160.994995 299.782257,163.173904 
	C300.219757,164.321518 303.579987,164.913559 305.571899,164.811142 
	C313.303802,164.413651 321.009033,163.522934 328.737946,163.033951 
	C336.263977,162.557785 343.805176,162.254532 351.344116,162.117432 
	C352.550537,162.095490 353.779968,163.341827 354.744263,164.284546 
	C348.901154,166.242050 343.315948,167.928329 337.720062,169.578476 
	C336.940979,169.808197 336.100861,169.821762 335.303497,170.000168 
	C327.375275,171.774200 318.892914,172.182205 312.698914,178.854889 
	C310.021759,176.728653 307.541534,174.859161 305.289581,172.746338 
	C299.101624,166.940704 299.139526,166.900299 292.359833,171.229126 
z"/>
<path fill="#14861E" opacity="1.000000" stroke="none" 
	d="
M641.141602,262.940552 
	C650.725342,272.393311 660.432617,281.725342 669.840759,291.349762 
	C674.544312,296.161530 674.047729,302.693359 668.987793,307.823517 
	C659.756470,317.183044 650.426025,326.444977 641.118469,335.729065 
	C613.550354,363.227570 585.976318,390.720154 558.397339,418.207764 
	C552.044922,424.539093 545.811218,424.560303 539.332886,418.155823 
	C531.878174,410.786255 524.518677,403.320435 517.125977,395.282898 
	C518.795227,393.080139 520.456299,391.490875 522.398682,390.073669 
	C527.758301,394.919159 532.836548,399.592560 538.069946,404.553894 
	C540.315491,407.195648 542.384705,409.568787 544.501709,411.898468 
	C547.140015,414.801819 549.725708,414.839325 552.598938,412.018799 
	C559.829224,404.921295 567.283203,398.050323 574.464905,390.905090 
	C595.694580,369.783234 616.835999,348.572540 638.011902,327.396698 
	C645.894104,319.514557 653.742188,311.597961 661.677795,303.769989 
	C664.341248,301.142639 665.226013,298.613037 662.244080,295.672821 
	C654.194397,287.735931 646.158752,279.784790 637.941284,271.566925 
	C636.791382,269.871399 635.817688,268.448212 635.164368,266.897034 
	C637.370361,265.492859 639.255981,264.216705 641.141602,262.940552 
z"/>
<path fill="#CE3A94" opacity="1.000000" stroke="none" 
	d="
M469.879578,91.687714 
	C467.528595,94.640282 465.119507,97.353874 462.560303,99.917557 
	C440.680206,121.835701 418.778168,143.731888 396.855530,165.607483 
	C395.941162,166.519867 394.759399,167.164261 393.356873,167.599335 
	C393.328339,165.838562 393.645142,164.411957 394.016907,162.613556 
	C396.394501,155.833908 398.717163,149.426071 401.307190,142.807739 
	C404.690796,137.059891 407.807068,131.522537 411.089294,125.681885 
	C415.528839,119.600334 419.802429,113.822098 424.369141,107.889877 
	C431.463165,101.529350 438.263977,95.322823 445.388794,89.024643 
	C447.149933,87.717682 448.587097,86.502373 450.001678,85.306168 
	C447.466034,81.984467 445.209534,79.028412 442.966492,75.690422 
	C444.001770,73.167145 445.023560,71.025803 446.045349,68.884460 
	C453.947510,76.382721 461.849701,83.880989 469.879578,91.687714 
z"/>
<path fill="#035D90" opacity="1.000000" stroke="none" 
	d="
M515.313965,413.843414 
	C520.198914,418.601532 525.170227,423.274872 529.947266,428.139008 
	C536.059021,434.362244 535.948425,440.662079 529.701904,446.901215 
	C494.686829,481.874908 459.649506,516.826294 424.620117,551.785583 
	C422.968872,553.433533 421.330261,555.094238 419.669434,556.732361 
	C413.577881,562.740662 407.335083,562.829285 401.318085,556.909424 
	C396.568878,552.236877 391.900421,547.482178 387.112274,542.108215 
	C388.373291,539.565125 389.718079,537.677795 391.393433,535.888794 
	C393.810303,538.010254 395.896576,540.033386 398.171936,542.326538 
	C400.936279,544.941833 403.769226,547.065491 406.023895,549.686523 
	C409.092804,553.254028 411.298645,553.387512 414.806610,549.857056 
	C450.725433,513.706970 486.814087,477.725708 522.849060,441.691071 
	C526.928955,437.611267 526.911072,436.648193 522.775696,432.344452 
	C518.513916,427.909119 514.236328,423.489014 510.111206,418.757385 
	C511.942505,416.916168 513.628235,415.379791 515.313965,413.843414 
z"/>
<path fill="#5D5D5F" opacity="1.000000" stroke="none" 
	d="
M357.006134,255.997070 
	C360.258057,259.123291 363.509979,262.249481 366.523132,265.728882 
	C361.328156,269.082672 355.580841,271.272095 351.541077,275.212219 
	C319.543213,306.420929 287.877533,337.970184 256.067932,369.372406 
	C254.946716,370.479279 253.387955,371.143005 252.020325,371.645752 
	C251.670883,370.185486 251.334213,369.092773 250.996979,367.559814 
	C250.666275,364.080109 250.336121,361.040680 250.011719,357.754272 
	C250.017471,357.507355 250.037125,357.013733 250.400116,357.006165 
	C252.502762,355.838287 254.491074,354.927734 255.944977,353.480377 
	C279.446503,330.084137 302.868652,306.608215 326.334747,283.176392 
	C336.016541,273.508728 345.099152,263.156891 357.006134,255.997070 
z"/>
<path fill="#575759" opacity="1.000000" stroke="none" 
	d="
M252.033081,372.013245 
	C253.387955,371.143005 254.946716,370.479279 256.067932,369.372406 
	C287.877533,337.970184 319.543213,306.420929 351.541077,275.212219 
	C355.580841,271.272095 361.328156,269.082672 366.646973,266.039551 
	C369.575714,268.450531 372.141754,270.904083 374.746765,273.683960 
	C371.423553,275.023956 367.980499,275.835114 364.731628,277.132477 
	C362.975861,277.833618 361.371368,279.184662 360.004395,280.548859 
	C326.741943,313.743469 293.525848,346.984528 260.273804,380.189575 
	C258.887299,381.574158 257.234131,382.691681 255.316376,383.605408 
	C254.286423,381.516907 253.645264,379.756653 253.001495,377.609802 
	C252.676956,375.486542 252.355011,373.749878 252.033081,372.013245 
z"/>
<path fill="#BAD649" opacity="1.000000" stroke="none" 
	d="
M428.717194,307.557617 
	C423.626038,301.528412 423.516144,295.784027 428.937531,290.355927 
	C465.960388,253.287292 503.039612,216.274857 540.161804,179.305725 
	C545.438538,174.050690 551.104614,174.035126 557.019775,179.423874 
	C555.678345,182.690857 554.354736,185.295258 552.667603,187.782379 
	C546.874878,185.737045 542.969849,188.733459 539.531799,192.088272 
	C528.990845,202.373917 518.634521,212.849442 508.266388,223.310501 
	C507.269440,224.316376 506.689697,225.735703 505.580475,227.008118 
	C496.832733,235.372894 488.420807,243.692673 479.707184,252.152618 
	C471.892029,259.745087 464.354095,267.173126 456.897888,274.682312 
	C456.028229,275.558167 455.610260,276.882538 454.639496,278.033691 
	C451.273956,280.805695 448.346436,283.657257 445.209320,286.255798 
	C439.245697,291.195557 435.601990,296.929108 437.715759,304.886963 
	C436.278168,303.847534 435.140137,302.954926 433.602570,301.748932 
	C431.853790,303.828217 430.285492,305.692902 428.717194,307.557617 
z"/>
<path fill="#98999B" opacity="1.000000" stroke="none" 
	d="
M150.533981,306.168732 
	C146.341675,300.109009 146.838852,295.434967 152.432617,289.846008 
	C185.510269,256.796661 218.608200,223.767578 251.698578,190.730942 
	C255.349136,187.086288 258.975189,183.416794 262.648163,179.794907 
	C267.864960,174.650711 273.336426,174.200928 279.490173,178.708557 
	C274.848633,180.766144 275.172729,184.233810 275.639771,187.883057 
	C270.059875,185.696213 266.285706,188.253052 262.849701,191.678543 
	C249.195450,205.291061 235.555359,218.917969 221.970642,232.599716 
	C220.738297,233.840866 219.939163,235.512146 218.597809,237.020508 
	C209.835938,245.370102 201.415115,253.682907 192.695038,262.140564 
	C183.263260,271.523529 174.130768,280.761658 164.686630,290.153137 
	C159.299301,293.897400 159.775055,298.857178 160.615997,303.957153 
	C156.286606,301.594849 153.448380,304.045563 150.533981,306.168732 
z"/>
<path fill="#5DB4D8" opacity="1.000000" stroke="none" 
	d="
M291.694122,447.116211 
	C284.579498,440.859222 284.507568,434.247131 291.685425,427.097595 
	C318.362244,400.526093 345.093567,374.009308 371.787842,347.455322 
	C381.711090,337.584229 391.548584,327.626770 401.504364,317.788757 
	C406.289764,313.059937 410.848083,312.556549 416.910553,316.421417 
	C415.668518,318.685974 414.380096,320.281189 413.185150,321.760681 
	C413.877441,323.329285 414.447418,324.620819 414.628601,325.893219 
	C409.977600,323.910828 406.217987,325.422333 403.295746,328.308044 
	C392.067108,339.396179 381.060150,350.708862 369.673279,362.090515 
	C361.241669,370.478577 353.107300,378.713898 344.675720,387.101074 
	C336.804474,394.453033 329.187531,401.609009 321.692719,408.890656 
	C320.203339,410.337708 319.181793,412.266296 317.603760,414.014160 
	C311.175018,420.036163 305.087036,426.016876 298.688232,432.151245 
	C293.791107,434.943207 294.983002,438.399109 296.869446,442.275085 
	C295.051056,444.090149 293.372589,445.603180 291.694122,447.116211 
z"/>
<path fill="#636365" opacity="1.000000" stroke="none" 
	d="
M356.862701,255.692001 
	C345.099152,263.156891 336.016541,273.508728 326.334747,283.176392 
	C302.868652,306.608215 279.446503,330.084137 255.944977,353.480377 
	C254.491074,354.927734 252.502762,355.838287 250.386093,356.566833 
	C249.994232,354.085876 249.979355,352.036713 249.972046,349.550842 
	C249.984085,347.075287 249.988586,345.036438 250.338211,342.964783 
	C252.210403,341.699829 253.864426,340.594940 255.245636,339.216644 
	C279.936737,314.577484 304.481720,289.790375 329.340820,265.322266 
	C335.422577,259.336151 342.509583,254.371292 349.134399,248.936890 
	C351.662689,251.086899 354.190979,253.236908 356.862701,255.692001 
z"/>
<path fill="#D34C9D" opacity="1.000000" stroke="none" 
	d="
M292.518616,171.543152 
	C299.139526,166.900299 299.101624,166.940704 305.289581,172.746338 
	C307.541534,174.859161 310.021759,176.728653 312.847717,179.160767 
	C316.307373,183.977127 320.305511,185.642090 325.688202,185.077377 
	C334.735107,184.128250 343.824066,183.330368 352.912018,183.082840 
	C365.251465,182.746750 377.606598,182.988876 389.955017,182.983017 
	C389.301056,189.681808 388.647064,196.380585 387.522797,203.538773 
	C372.229309,204.331940 357.406769,204.796005 342.582367,204.863831 
	C340.267639,204.874420 337.487671,203.595581 335.713348,202.021774 
	C330.878571,197.733475 326.430328,193.003922 321.900970,188.378616 
	C319.002167,185.418396 316.071442,184.910751 312.756195,187.688705 
	C312.040558,188.288391 311.034851,188.541946 310.162781,188.954956 
	C304.334290,183.255692 298.505829,177.556427 292.518616,171.543152 
z"/>
<path fill="#4B4C4E" opacity="1.000000" stroke="none" 
	d="
M259.972260,398.999878 
	C261.460938,397.686493 263.025543,396.449127 264.427185,395.048615 
	C299.405518,360.098541 334.367828,325.132385 369.328552,290.164642 
	C371.818726,287.673950 373.957306,285.197327 378.324402,287.278625 
	C379.613464,287.892944 382.417542,285.328156 384.845337,284.072357 
	C387.409882,286.054077 389.656433,288.183685 392.032349,290.623718 
	C388.488983,292.495209 384.999603,295.492889 380.721191,292.206573 
	C380.392212,291.953888 379.228607,292.635834 378.547272,293.041718 
	C377.990234,293.373535 377.569366,293.937012 377.096130,294.405884 
	C340.904297,330.262878 304.719513,366.126984 268.509460,401.965515 
	C265.823700,404.623718 264.386414,407.076874 266.229523,411.188110 
	C266.862030,412.598969 264.268555,415.456055 262.997803,417.984589 
	C260.219879,415.794647 257.593079,413.272522 255.143860,410.305420 
	C256.769562,408.535583 258.069031,406.977112 259.699860,405.939423 
	C262.286377,404.293610 262.019348,402.778748 260.003296,400.666809 
	C259.987793,399.888947 259.980042,399.444427 259.972260,398.999878 
z"/>
<path fill="#87888A" opacity="1.000000" stroke="none" 
	d="
M183.044296,338.850159 
	C176.512451,332.420013 169.980606,325.989868 163.652390,319.234680 
	C166.237350,317.606415 168.618683,316.303223 171.274384,315.126831 
	C172.362762,315.837799 173.176743,316.421967 174.136810,317.305054 
	C181.153107,326.238739 187.291290,331.609833 200.474533,325.678375 
	C216.979218,318.252563 235.371735,315.022644 252.959351,310.377747 
	C252.653183,312.850586 252.337006,314.927246 252.001587,317.406311 
	C251.326050,322.206543 250.669754,326.604309 250.003510,331.331360 
	C249.985413,332.099792 249.977264,332.538940 249.565292,332.994019 
	C237.338638,336.082672 225.222748,338.345581 213.785797,342.484589 
	C204.654129,345.789246 198.671127,343.886932 192.916992,336.622986 
	C188.968857,331.638885 186.054565,332.583252 183.044296,338.850159 
z"/>
<path fill="#CF429A" opacity="1.000000" stroke="none" 
	d="
M310.295746,189.252823 
	C311.034851,188.541946 312.040558,188.288391 312.756195,187.688705 
	C316.071442,184.910751 319.002167,185.418396 321.900970,188.378616 
	C326.430328,193.003922 330.878571,197.733475 335.713348,202.021774 
	C337.487671,203.595581 340.267639,204.874420 342.582367,204.863831 
	C357.406769,204.796005 372.229309,204.331940 387.519653,203.995560 
	C387.994995,204.749115 388.003143,205.505295 388.023315,206.639771 
	C388.356842,212.707413 388.678345,218.396774 388.554535,224.542694 
	C379.073700,225.665359 370.038177,226.331467 360.703369,226.852753 
	C356.059631,222.430908 351.719208,218.149734 347.369629,213.877930 
	C342.763062,209.353760 339.897430,209.902939 337.044830,215.844315 
	C328.172791,207.079773 319.300751,198.315231 310.295746,189.252823 
z"/>
<path fill="#68686A" opacity="1.000000" stroke="none" 
	d="
M249.969116,332.978088 
	C249.977264,332.538940 249.985413,332.099792 250.346588,331.296204 
	C252.225677,329.695160 253.876495,328.583618 255.259293,327.203522 
	C280.904663,301.608704 306.474426,275.937897 332.193359,250.417343 
	C335.413422,247.222137 339.385620,244.784912 343.009308,241.996475 
	C345.009644,244.084076 347.010010,246.171661 349.072388,248.598083 
	C342.509583,254.371292 335.422577,259.336151 329.340820,265.322266 
	C304.481720,289.790375 279.936737,314.577484 255.245636,339.216644 
	C253.864426,340.594940 252.210403,341.699829 250.335449,342.510681 
	C249.981430,339.052277 249.975281,336.015167 249.969116,332.978088 
z"/>
<path fill="#6C6D6F" opacity="1.000000" stroke="none" 
	d="
M342.880798,241.687927 
	C339.385620,244.784912 335.413422,247.222137 332.193359,250.417343 
	C306.474426,275.937897 280.904663,301.608704 255.259293,327.203522 
	C253.876495,328.583618 252.225677,329.695160 250.356537,330.966919 
	C250.669754,326.604309 251.326050,322.206543 252.351517,317.369751 
	C254.850006,315.417480 257.242340,314.168579 259.068878,312.351044 
	C283.311951,288.227570 307.470917,264.019562 331.671295,239.853119 
	C333.068451,238.457901 334.641266,237.238586 336.132355,235.937424 
	C338.338989,237.751404 340.545654,239.565384 342.880798,241.687927 
z"/>
<path fill="#747577" opacity="1.000000" stroke="none" 
	d="
M324.010986,222.995697 
	C326.256714,225.123123 328.502411,227.250565 330.533966,229.723419 
	C327.325195,233.100494 324.345886,236.147430 321.333466,239.161301 
	C301.322205,259.182129 281.332886,279.225159 261.234863,299.158569 
	C259.552673,300.826965 257.123199,301.741882 255.034363,302.617981 
	C256.332642,298.482971 257.637482,294.736877 259.091797,290.674683 
	C260.166962,288.240692 261.092651,286.122803 262.361694,283.968689 
	C264.109558,282.815338 265.630219,281.815735 266.899292,280.561523 
	C273.855896,273.686523 280.869781,266.863220 287.639862,259.807068 
	C298.617981,248.365005 309.401123,236.735992 320.337006,225.252960 
	C321.295227,224.246796 322.773987,223.736389 324.010986,222.995697 
z"/>
<path fill="#797B7D" opacity="1.000000" stroke="none" 
	d="
M249.565292,332.994019 
	C249.975281,336.015167 249.981430,339.052277 249.990326,342.543457 
	C249.988586,345.036438 249.984085,347.075287 249.569504,349.555847 
	C241.959473,351.761169 234.735275,353.433014 227.569229,355.325134 
	C223.661911,356.356842 219.853180,357.762024 215.700668,358.853638 
	C214.438293,357.809204 213.451340,356.933990 212.516037,356.006714 
	C205.829086,349.377014 205.832428,349.373657 198.411499,354.178650 
	C193.391586,349.269562 188.371658,344.360474 183.198029,339.150757 
	C186.054565,332.583252 188.968857,331.638885 192.916992,336.622986 
	C198.671127,343.886932 204.654129,345.789246 213.785797,342.484589 
	C225.222748,338.345581 237.338638,336.082672 249.565292,332.994019 
z"/>
<path fill="#707173" opacity="1.000000" stroke="none" 
	d="
M255.040924,303.006897 
	C257.123199,301.741882 259.552673,300.826965 261.234863,299.158569 
	C281.332886,279.225159 301.322205,259.182129 321.333466,239.161301 
	C324.345886,236.147430 327.325195,233.100494 330.665710,230.032654 
	C332.677094,231.753174 334.342529,233.509888 336.070160,235.602005 
	C334.641266,237.238586 333.068451,238.457901 331.671295,239.853119 
	C307.470917,264.019562 283.311951,288.227570 259.068878,312.351044 
	C257.242340,314.168579 254.850006,315.417480 252.370758,316.967285 
	C252.337006,314.927246 252.653183,312.850586 253.112732,310.045380 
	C253.851028,307.213501 254.445969,305.110168 255.040924,303.006897 
z"/>
<path fill="#797B7D" opacity="1.000000" stroke="none" 
	d="
M323.880737,222.688171 
	C322.773987,223.736389 321.295227,224.246796 320.337006,225.252960 
	C309.401123,236.735992 298.617981,248.365005 287.639862,259.807068 
	C280.869781,266.863220 273.855896,273.686523 266.899292,280.561523 
	C265.630219,281.815735 264.109558,282.815338 262.379822,283.649536 
	C262.360504,282.575928 262.666412,281.785339 263.023499,280.643890 
	C265.020569,276.856964 266.966522,273.420929 269.066528,269.676056 
	C272.504974,264.258209 275.789368,259.149200 279.367126,253.880249 
	C285.805908,247.161316 291.951416,240.602310 298.397125,233.898026 
	C303.210327,230.323837 307.723297,226.894958 312.239502,223.463638 
	C309.100983,219.614349 306.430817,216.339508 304.082031,212.933319 
	C306.272766,211.532928 308.142120,210.263885 310.011475,208.994858 
	C314.591125,213.456802 319.170807,217.918732 323.880737,222.688171 
z"/>
<path fill="#000000" opacity="1.000000" stroke="none" 
	d="
M672.999695,340.999268 
	C672.999695,346.472412 672.999695,351.446808 672.999695,356.709015 
	C661.730774,356.709015 650.666748,356.709015 640.597534,356.709015 
	C651.085144,346.261749 662.152222,335.237152 672.999695,324.431366 
	C672.999695,329.071991 672.999695,334.786255 672.999695,340.999268 
z"/>
<path fill="#707173" opacity="1.000000" stroke="none" 
	d="
M198.588272,354.483582 
	C205.832428,349.373657 205.829086,349.377014 212.516037,356.006714 
	C213.451340,356.933990 214.438293,357.809204 215.846680,359.155914 
	C219.296066,364.326569 223.122177,364.952271 228.428589,363.228363 
	C235.446426,360.948486 242.797897,359.695557 250.005966,358.001221 
	C250.336121,361.040680 250.666275,364.080109 250.656708,367.708740 
	C243.877808,370.199402 237.438614,372.100952 230.699799,373.856903 
	C228.352753,371.819672 226.305328,369.928040 223.819870,367.631714 
	C221.726807,369.921967 219.863464,371.960907 218.000092,373.999817 
	C211.588409,367.596039 205.176727,361.192261 198.588272,354.483582 
z"/>
<path fill="#4098C0" opacity="1.000000" stroke="none" 
	d="
M428.302338,327.136658 
	C434.058044,333.064636 439.710114,339.097870 445.595978,344.893677 
	C452.789307,351.976990 460.181519,358.858215 467.478027,365.836945 
	C468.073700,366.406677 468.595062,367.054138 469.048737,368.344116 
	C467.629028,371.011932 466.311523,373.001068 464.719177,374.866028 
	C463.631592,374.156921 462.818848,373.571930 461.858704,372.689880 
	C458.169678,368.935028 454.628052,365.477234 450.963043,361.734131 
	C449.939911,360.608765 449.040192,359.768677 447.969238,358.640076 
	C443.266510,353.867737 438.735016,349.383850 434.023193,344.614746 
	C430.577271,340.846375 427.311707,337.363220 424.081238,333.535889 
	C425.511627,331.173340 426.906982,329.154999 428.302338,327.136658 
z"/>
<path fill="#C5238A" opacity="1.000000" stroke="none" 
	d="
M397.007599,258.995697 
	C397.506622,259.561127 398.005676,260.126526 398.747498,260.845337 
	C398.246918,262.400757 397.677490,263.937683 396.718903,265.172577 
	C395.334473,266.955994 393.667908,268.520325 392.087646,270.518494 
	C382.151306,261.057068 372.249084,251.255295 362.230927,240.813599 
	C364.076172,238.445145 366.037354,236.716614 368.283264,235.125031 
	C369.711548,236.178253 370.855164,237.094528 372.143677,238.309235 
	C378.703796,245.079971 385.016876,251.660263 391.633179,257.920044 
	C392.757538,258.983765 395.183167,258.671997 397.007599,258.995697 
z"/>
<path fill="#636365" opacity="1.000000" stroke="none" 
	d="
M218.096466,374.323120 
	C219.863464,371.960907 221.726807,369.921967 223.819870,367.631714 
	C226.305328,369.928040 228.352753,371.819672 230.844330,374.156464 
	C232.428543,375.802582 233.544235,377.027863 234.712906,378.200348 
	C239.878662,383.382935 247.478149,383.291046 253.004105,377.996368 
	C253.645264,379.756653 254.286423,381.516907 254.973022,383.642273 
	C256.488220,388.850159 257.957977,393.693024 259.700012,398.767883 
	C259.980042,399.444427 259.987793,399.888947 259.811920,400.909302 
	C257.087799,399.650909 254.547318,397.816772 251.860779,395.684387 
	C248.018219,391.425781 244.321716,387.465424 240.636490,383.517151 
	C237.728165,385.851868 235.688339,387.489349 233.648499,389.126862 
	C228.496628,384.300049 223.344727,379.473267 218.096466,374.323120 
z"/>
<path fill="#D34C9D" opacity="1.000000" stroke="none" 
	d="
M445.989075,68.551826 
	C445.023560,71.025803 444.001770,73.167145 442.670807,75.536400 
	C440.822388,74.272644 439.301819,72.761124 437.740723,71.292641 
	C429.833771,63.854561 421.916260,56.427681 414.002441,48.996887 
	C412.694153,45.498528 412.387909,42.184143 415.895264,39.213169 
	C418.989960,41.477852 422.071564,43.926872 424.837952,46.691349 
	C431.944183,53.792648 438.910553,61.033890 445.989075,68.551826 
z"/>
<path fill="#C92E8F" opacity="1.000000" stroke="none" 
	d="
M367.998535,234.988068 
	C366.037354,236.716614 364.076172,238.445145 362.084351,240.510803 
	C353.819672,232.713943 345.585632,224.579971 337.198181,216.145142 
	C339.897430,209.902939 342.763062,209.353760 347.369629,213.877930 
	C351.719208,218.149734 356.059631,222.430908 360.845825,227.151886 
	C363.524567,230.059906 365.761566,232.523987 367.998535,234.988068 
z"/>
<path fill="#4098C0" opacity="1.000000" stroke="none" 
	d="
M333.821594,489.280182 
	C324.888885,480.420868 315.956177,471.561523 307.182129,462.271667 
	C308.893341,460.208069 310.445892,458.575012 312.286926,457.094238 
	C314.056274,458.495117 315.537140,459.743713 317.159302,461.295898 
	C322.191986,466.080353 327.083405,470.561188 332.019928,475.382996 
	C334.395813,478.456665 336.726562,481.189362 338.757812,484.078430 
	C336.912720,485.916626 335.367157,487.598389 333.821594,489.280182 
z"/>
<path fill="#2780AD" opacity="1.000000" stroke="none" 
	d="
M333.981201,489.566284 
	C335.367157,487.598389 336.912720,485.916626 339.064392,484.119568 
	C340.080505,484.056641 340.490570,484.109039 340.963379,484.490601 
	C344.666351,488.244568 348.306610,491.669373 352.093903,495.394043 
	C355.861603,499.451630 359.482269,503.209259 363.081299,507.195068 
	C363.059692,507.423218 363.032104,507.880768 362.891907,508.194397 
	C361.478851,510.395966 360.205994,512.283936 358.933136,514.171875 
	C350.669037,506.065369 342.404938,497.958862 333.981201,489.566284 
z"/>
<path fill="#000000" opacity="1.000000" stroke="none" 
	d="
M169.018631,356.999634 
	C166.229355,356.999634 163.925247,356.999634 161.311325,356.999634 
	C161.311325,350.456604 161.311325,344.067657 161.311325,338.885651 
	C166.923584,344.549255 173.282349,350.966187 179.261108,356.999634 
	C176.921112,356.999634 173.212463,356.999634 169.018631,356.999634 
z"/>
<path fill="#87888A" opacity="1.000000" stroke="none" 
	d="
M309.884583,208.685959 
	C308.142120,210.263885 306.272766,211.532928 303.791443,212.896484 
	C302.461029,212.643234 301.742554,212.295502 300.871521,211.655426 
	C296.471832,206.923096 292.224701,202.483078 287.984680,197.652527 
	C289.095337,194.936859 290.198914,192.611725 291.302460,190.286621 
	C297.454193,196.316757 303.605927,202.346909 309.884583,208.685959 
z"/>
<path fill="#329525" opacity="1.000000" stroke="none" 
	d="
M522.117432,389.901672 
	C520.456299,391.490875 518.795227,393.080139 516.983154,394.987671 
	C511.262726,389.835999 505.693329,384.366028 500.131409,378.280396 
	C501.813782,376.076019 503.488647,374.487274 505.443604,373.067749 
	C509.783417,376.862701 513.843140,380.488464 518.060486,384.404480 
	C519.517883,386.430389 520.817688,388.166016 522.117432,389.901672 
z"/>
<path fill="#2780AD" opacity="1.000000" stroke="none" 
	d="
M464.994019,374.990234 
	C466.311523,373.001068 467.629028,371.011932 469.098999,368.660339 
	C474.800598,373.635742 480.349762,378.973572 485.681885,384.669189 
	C483.609009,386.359772 481.753174,387.692596 479.571960,388.987244 
	C477.515320,387.626465 475.784027,386.303925 473.899292,384.684814 
	C470.828583,381.255554 467.911316,378.122894 464.994019,374.990234 
z"/>
<path fill="#87C044" opacity="1.000000" stroke="none" 
	d="
M573.055481,194.980972 
	C578.007507,199.761093 582.959595,204.541199 587.693726,209.676254 
	C585.524719,211.404053 583.573669,212.776917 581.320190,214.068710 
	C576.713257,209.940125 572.408630,205.892609 567.960205,201.568726 
	C567.444031,200.552872 567.071594,199.813354 567.026123,198.944580 
	C569.253906,197.537201 571.154663,196.259094 573.055481,194.980972 
z"/>
<path fill="#1B74A3" opacity="1.000000" stroke="none" 
	d="
M479.897308,389.025452 
	C481.753174,387.692596 483.609009,386.359772 485.815674,384.980774 
	C490.825806,389.497131 495.485046,394.059662 500.102661,399.268005 
	C498.689880,401.630707 497.318726,403.347626 495.654633,404.907898 
	C492.266174,402.158051 489.170685,399.564911 485.918396,396.676056 
	C483.806824,393.928741 481.852051,391.477081 479.897308,389.025452 
z"/>
<path fill="#56AA40" opacity="1.000000" stroke="none" 
	d="
M600.352356,222.067719 
	C605.537964,227.144730 610.723633,232.221741 615.690918,237.659180 
	C613.652344,239.666290 611.832092,241.312973 609.750244,242.864090 
	C609.001282,242.499466 608.514038,242.230408 607.878113,241.671112 
	C605.842163,239.575302 603.954956,237.769714 601.912354,235.674957 
	C599.873352,233.572876 597.989746,231.759949 596.079651,229.704605 
	C596.053223,229.462173 596.016663,228.975830 596.054993,228.620728 
	C597.513000,226.199661 598.932678,224.133682 600.352356,222.067719 
z"/>
<path fill="#A2CC56" opacity="1.000000" stroke="none" 
	d="
M572.922485,194.672821 
	C571.154663,196.259094 569.253906,197.537201 566.714111,198.888916 
	C561.727173,195.274918 557.379150,191.587296 553.031189,187.899673 
	C554.354736,185.295258 555.678345,182.690857 557.171204,179.723114 
	C562.490112,184.361420 567.639771,189.363052 572.922485,194.672821 
z"/>
<path fill="#0E6899" opacity="1.000000" stroke="none" 
	d="
M391.062866,535.790466 
	C389.718079,537.677795 388.373291,539.565125 386.980225,541.805298 
	C381.762573,537.090942 376.593109,532.023743 371.627411,526.521606 
	C373.887695,524.721680 375.944244,523.356628 378.253235,522.100464 
	C378.976135,522.489014 379.446625,522.768677 380.070190,523.345825 
	C383.836426,527.692322 387.449646,531.741394 391.062866,535.790466 
z"/>
<path fill="#000000" opacity="1.000000" stroke="none" 
	d="
M380.753021,555.253906 
	C382.994507,557.382080 384.985718,559.258667 387.655823,561.775146 
	C380.875397,561.775146 375.201233,561.775146 369.262390,561.775146 
	C369.262390,556.032043 369.262390,550.321716 369.262390,543.345886 
	C373.363953,547.599243 376.933350,551.300781 380.753021,555.253906 
z"/>
<path fill="#45A6DB" opacity="1.000000" stroke="none" 
	d="
M311.998413,456.941956 
	C310.445892,458.575012 308.893341,460.208069 307.014648,461.972656 
	C301.810242,457.302399 296.932007,452.500580 291.873962,447.407501 
	C293.372589,445.603180 295.051056,444.090149 297.165558,442.428406 
	C300.741364,445.183472 303.881104,448.087219 307.162537,451.295837 
	C308.868988,453.381104 310.433716,455.161530 311.998413,456.941956 
z"/>
<path fill="#479F2B" opacity="1.000000" stroke="none" 
	d="
M610.011902,242.959656 
	C611.832092,241.312973 613.652344,239.666290 615.821838,237.971985 
	C620.750671,242.384705 625.330261,246.845047 629.687256,251.665955 
	C627.589355,253.362350 625.714172,254.698212 623.512146,255.992081 
	C620.145935,253.276672 617.106506,250.603256 613.911865,247.647644 
	C612.508362,245.896866 611.260132,244.428253 610.011902,242.959656 
z"/>
<path fill="#909193" opacity="1.000000" stroke="none" 
	d="
M171.000000,315.000000 
	C168.618683,316.303223 166.237350,317.606415 163.519714,318.938904 
	C159.076645,314.906097 154.969894,310.844025 150.698578,306.475342 
	C153.448380,304.045563 156.286606,301.594849 160.616913,303.956543 
	C161.000000,304.000000 160.998749,304.001221 161.142227,304.300232 
	C163.857132,307.066193 166.428574,309.533081 169.125610,312.275360 
	C169.834152,313.367157 170.417068,314.183563 171.000000,315.000000 
z"/>
<path fill="#6FB542" opacity="1.000000" stroke="none" 
	d="
M600.219482,221.798798 
	C598.932678,224.133682 597.513000,226.199661 595.754272,228.489227 
	C593.576416,227.126312 591.737610,225.539780 589.779785,223.648743 
	C586.981384,220.279419 584.301941,217.214600 581.622559,214.149780 
	C583.573669,212.776917 585.524719,211.404053 587.838257,209.984344 
	C592.162659,213.801605 596.124634,217.665741 600.219482,221.798798 
z"/>
<path fill="#909193" opacity="1.000000" stroke="none" 
	d="
M291.163452,190.017029 
	C290.198914,192.611725 289.095337,194.936859 287.640167,197.607712 
	C283.535553,194.602081 279.782532,191.250717 276.029541,187.899353 
	C275.172729,184.233810 274.848633,180.766144 279.658569,179.036011 
	C283.681244,182.580353 287.352844,186.163895 291.163452,190.017029 
z"/>
<path fill="#0E6899" opacity="1.000000" stroke="none" 
	d="
M495.947571,405.064514 
	C497.318726,403.347626 498.689880,401.630707 500.234711,399.553711 
	C505.283691,403.868927 510.158997,408.544220 515.174133,413.531464 
	C513.628235,415.379791 511.942505,416.916168 509.856934,418.642090 
	C508.965607,418.572021 508.474091,418.312408 507.840240,417.748657 
	C504.128387,413.987762 500.558868,410.530975 496.745911,406.901184 
	C496.317505,406.173645 496.132507,405.619080 495.947571,405.064514 
z"/>
<path fill="#000000" opacity="1.000000" stroke="none" 
	d="
M380.758118,42.740707 
	C376.989990,46.660595 373.472198,50.326847 369.281311,54.694611 
	C369.281311,48.273308 369.281311,42.936081 369.281311,37.297920 
	C374.576294,37.297920 379.965790,37.297920 386.135681,37.297920 
	C384.276215,39.179848 382.642334,40.833458 380.758118,42.740707 
z"/>
<path fill="#1B74A3" opacity="1.000000" stroke="none" 
	d="
M378.000793,521.991577 
	C375.944244,523.356628 373.887695,524.721680 371.448608,526.211609 
	C367.113525,522.480469 363.160919,518.624390 359.070740,514.470093 
	C360.205994,512.283936 361.478851,510.395966 363.183350,508.364868 
	C368.410217,512.811646 373.205505,517.401611 378.000793,521.991577 
z"/>
<path fill="#8FC346" opacity="1.000000" stroke="none" 
	d="
M453.654388,332.149689 
	C449.431183,328.007019 445.207977,323.864349 441.133789,319.296844 
	C442.855530,317.237366 444.428223,315.602692 446.299133,314.122803 
	C449.729645,316.860870 452.862030,319.444122 456.138641,322.322449 
	C457.195618,324.060822 458.108368,325.504150 458.878967,327.252380 
	C457.042694,329.088104 455.348541,330.618896 453.654388,332.149689 
z"/>
<path fill="#575759" opacity="1.000000" stroke="none" 
	d="
M233.812302,389.429504 
	C235.688339,387.489349 237.728165,385.851868 240.636490,383.517151 
	C244.321716,387.465424 248.018219,391.425781 251.715942,395.986603 
	C250.094940,398.500336 248.472702,400.413605 246.850464,402.326874 
	C242.559021,398.128632 238.267563,393.930420 233.812302,389.429504 
z"/>
<path fill="#7ABA43" opacity="1.000000" stroke="none" 
	d="
M453.825256,332.446320 
	C455.348541,330.618896 457.042694,329.088104 459.208984,327.322632 
	C463.114471,330.066498 466.547821,333.045074 470.118011,336.306702 
	C471.163574,337.733398 472.072266,338.877045 472.637573,340.053131 
	C470.475281,341.839447 468.656311,343.593353 466.837341,345.347229 
	C462.556885,341.145782 458.276489,336.944366 453.825256,332.446320 
z"/>
<path fill="#A2CC56" opacity="1.000000" stroke="none" 
	d="
M446.000946,313.968018 
	C444.428223,315.602692 442.855530,317.237366 440.952332,319.005005 
	C436.753021,315.459503 432.884186,311.781036 428.866272,307.830109 
	C430.285492,305.692902 431.853790,303.828217 433.602570,301.748932 
	C435.140137,302.954926 436.278168,303.847534 437.845673,305.161377 
	C439.178070,306.384583 440.080933,307.186523 441.175049,308.260162 
	C442.911163,310.343903 444.456055,312.155975 446.000946,313.968018 
z"/>
<path fill="#479F2B" opacity="1.000000" stroke="none" 
	d="
M505.163483,372.898529 
	C503.488647,374.487274 501.813782,376.076019 499.989258,377.985077 
	C495.933228,374.501099 492.026917,370.696777 488.121338,366.281830 
	C489.776550,364.081696 491.431000,362.492157 493.415283,360.977295 
	C497.551239,365.000824 501.357361,368.949677 505.163483,372.898529 
z"/>
<path fill="#65B141" opacity="1.000000" stroke="none" 
	d="
M466.989197,345.632446 
	C468.656311,343.593353 470.475281,341.839447 472.934570,340.200928 
	C476.369019,342.901337 479.163116,345.486359 482.090271,348.354248 
	C482.502380,349.407745 482.781494,350.178436 482.757324,351.099731 
	C480.915222,352.952393 479.376373,354.654419 477.837524,356.356415 
	C474.272034,352.876831 470.706543,349.397247 466.989197,345.632446 
z"/>
<path fill="#329525" opacity="1.000000" stroke="none" 
	d="
M623.838928,256.034058 
	C625.714172,254.698212 627.589355,253.362350 629.816895,251.979584 
	C633.746521,255.389526 637.323914,258.846405 641.021423,262.621918 
	C639.255981,264.216705 637.370361,265.492859 634.837097,266.861206 
	C631.471924,264.616821 628.754272,262.280182 625.891602,259.654358 
	C625.110718,258.254791 624.474854,257.144409 623.838928,256.034058 
z"/>
<path fill="#4EACDE" opacity="1.000000" stroke="none" 
	d="
M428.180603,326.866913 
	C426.906982,329.154999 425.511627,331.173340 423.771423,333.425049 
	C420.623505,331.076355 417.820435,328.494354 415.017395,325.912323 
	C414.447418,324.620819 413.877441,323.329285 413.185150,321.760681 
	C414.380096,320.281189 415.668518,318.685974 417.091980,316.726196 
	C420.837677,319.773499 424.448242,323.185333 428.180603,326.866913 
z"/>
<path fill="#56AA40" opacity="1.000000" stroke="none" 
	d="
M477.985382,356.643738 
	C479.376373,354.654419 480.915222,352.952393 483.084015,351.173737 
	C486.837799,354.365631 489.961609,357.634155 493.085449,360.902649 
	C491.431000,362.492157 489.776550,364.081696 487.970947,365.990173 
	C484.590942,363.183136 481.362091,360.057068 477.985382,356.643738 
z"/>
<path fill="#525254" opacity="1.000000" stroke="none" 
	d="
M246.988037,402.620056 
	C248.472702,400.413605 250.094940,398.500336 251.862015,396.284851 
	C254.547318,397.816772 257.087799,399.650909 259.819641,401.242615 
	C262.019348,402.778748 262.286377,404.293610 259.699860,405.939423 
	C258.069031,406.977112 256.769562,408.535583 254.990601,409.999451 
	C252.148346,407.730042 249.636978,405.321655 246.988037,402.620056 
z"/>
<path fill="#CE3A94" opacity="1.000000" stroke="none" 
	d="
M368.283264,235.125031 
	C365.761566,232.523987 363.524567,230.059906 361.145111,227.296692 
	C370.038177,226.331467 379.073700,225.665359 388.554626,224.999863 
	C389.665863,228.717056 390.331696,232.433640 391.003632,236.577698 
	C391.009766,237.005203 391.010895,237.503189 390.568359,237.751663 
	C387.878235,237.761871 385.627136,237.300034 383.383881,237.335327 
	C379.586243,237.395050 375.793549,237.768951 371.998779,238.010788 
	C370.855164,237.094528 369.711548,236.178253 368.283264,235.125031 
z"/>
<path fill="#C92E8F" opacity="1.000000" stroke="none" 
	d="
M372.143677,238.309219 
	C375.793549,237.768951 379.586243,237.395050 383.383881,237.335327 
	C385.627136,237.300034 387.878235,237.761871 390.573242,238.000610 
	C393.009033,244.736618 394.997406,251.472137 396.996674,258.601685 
	C395.183167,258.671997 392.757538,258.983765 391.633179,257.920044 
	C385.016876,251.660263 378.703796,245.079971 372.143677,238.309219 
z"/>
<path fill="#D656A3" opacity="1.000000" stroke="none" 
	d="
M389.969971,182.565948 
	C377.606598,182.988876 365.251465,182.746750 352.912018,183.082840 
	C343.824066,183.330368 334.735107,184.128250 325.688202,185.077377 
	C320.305511,185.642090 316.307373,183.977127 313.148804,179.306488 
	C318.892914,172.182205 327.375275,171.774200 335.303497,170.000168 
	C336.100861,169.821762 336.940979,169.808197 337.720062,169.578476 
	C343.315948,167.928329 348.901154,166.242050 355.173401,164.282349 
	C359.950623,163.664948 364.040466,163.117142 368.138702,163.044708 
	C376.744141,162.892578 385.353943,162.990250 393.961975,162.985367 
	C393.645142,164.411957 393.328339,165.838562 393.013275,167.635773 
	C392.005005,172.720551 390.994965,177.434723 389.969971,182.565948 
z"/>
<path fill="#D961A7" opacity="1.000000" stroke="none" 
	d="
M394.016907,162.613556 
	C385.353943,162.990250 376.744141,162.892578 368.138702,163.044708 
	C364.040466,163.117142 359.950623,163.664948 355.427887,163.999634 
	C353.779968,163.341827 352.550537,162.095490 351.344116,162.117432 
	C343.805176,162.254532 336.263977,162.557785 328.737946,163.033951 
	C321.009033,163.522934 313.303802,164.413651 305.571899,164.811142 
	C303.579987,164.913559 300.219757,164.321518 299.782257,163.173904 
	C298.951599,160.994995 298.838959,157.500458 300.099426,155.769089 
	C303.383789,151.257751 307.571930,147.404358 311.714844,143.554474 
	C313.446228,147.820877 316.825256,145.969925 319.201813,145.843903 
	C333.747284,145.072601 348.263336,143.648071 362.813965,143.101074 
	C375.539001,142.622726 388.296600,143.012161 401.039856,143.018219 
	C398.717163,149.426071 396.394501,155.833908 394.016907,162.613556 
z"/>
<path fill="#E07BB6" opacity="1.000000" stroke="none" 
	d="
M445.064789,89.116287 
	C438.263977,95.322823 431.463165,101.529350 423.911255,107.874275 
	C408.421875,107.341774 393.688416,106.512756 378.943481,106.056213 
	C369.291718,105.757370 359.623260,105.997887 349.962280,105.996826 
	C351.061676,104.414482 351.940186,102.604019 353.298309,101.288826 
	C359.575317,95.210243 365.985626,89.269379 373.114777,83.137482 
	C379.938568,83.013184 386.013275,82.741272 392.049316,83.107407 
	C405.138519,83.901344 418.224854,84.845573 431.276367,86.102562 
	C435.926117,86.550385 440.471680,88.080299 445.064789,89.116287 
z"/>
<path fill="#E286BB" opacity="1.000000" stroke="none" 
	d="
M445.388794,89.024635 
	C440.471680,88.080299 435.926117,86.550385 431.276367,86.102562 
	C418.224854,84.845573 405.138519,83.901344 392.049316,83.107407 
	C386.013275,82.741272 379.938568,83.013184 373.410950,82.990326 
	C383.389069,72.388710 393.678528,61.626087 404.434326,51.351654 
	C406.344055,49.527416 410.193298,49.733540 413.574677,48.999496 
	C421.916260,56.427681 429.833771,63.854561 437.740723,71.292641 
	C439.301819,72.761124 440.822388,74.272644 442.657349,75.918335 
	C445.209534,79.028412 447.466034,81.984467 450.001678,85.306168 
	C448.587097,86.502373 447.149933,87.717682 445.388794,89.024635 
z"/>
<path fill="#DB6AAC" opacity="1.000000" stroke="none" 
	d="
M401.307190,142.807739 
	C388.296600,143.012161 375.539001,142.622726 362.813965,143.101074 
	C348.263336,143.648071 333.747284,145.072601 319.201813,145.843903 
	C316.825256,145.969925 313.446228,147.820877 312.014465,143.410217 
	C318.133240,136.763443 324.267700,130.526901 330.772369,124.513680 
	C333.403687,125.437737 335.688965,126.804161 337.921661,126.722992 
	C347.165680,126.386932 356.391754,125.145164 365.628143,125.106049 
	C380.725006,125.042114 395.824799,125.656784 410.923340,125.985184 
	C407.807068,131.522537 404.690796,137.059891 401.307190,142.807739 
z"/>
<path fill="#DE72B1" opacity="1.000000" stroke="none" 
	d="
M411.089294,125.681877 
	C395.824799,125.656784 380.725006,125.042114 365.628143,125.106049 
	C356.391754,125.145164 347.165680,126.386932 337.921661,126.722992 
	C335.688965,126.804161 333.403687,125.437737 331.071899,124.369385 
	C337.123596,118.097054 343.246002,112.192352 349.665344,106.142242 
	C359.623260,105.997887 369.291718,105.757370 378.943481,106.056213 
	C393.688416,106.512756 408.421875,107.341774 423.618103,108.028259 
	C419.802429,113.822098 415.528839,119.600334 411.089294,125.681877 
z"/>
<path fill="#56AA40" opacity="1.000000" stroke="none" 
	d="
M638.117554,271.839294 
	C646.158752,279.784790 654.194397,287.735931 662.244080,295.672821 
	C665.226013,298.613037 664.341248,301.142639 661.677795,303.769989 
	C653.742188,311.597961 645.894104,319.514557 638.011902,327.396698 
	C616.835999,348.572540 595.694580,369.783234 574.464905,390.905090 
	C567.283203,398.050323 559.829224,404.921295 552.598938,412.018799 
	C549.725708,414.839325 547.140015,414.801819 544.501709,411.898468 
	C542.384705,409.568787 540.315491,407.195648 538.093750,404.135254 
	C535.638367,395.616516 533.314331,387.804321 530.988281,379.659607 
	C530.981323,378.883545 530.976379,378.440033 531.317932,377.964966 
	C533.080139,376.818329 534.626038,375.833679 535.892395,374.569122 
	C568.908142,341.601471 601.897644,308.607574 634.875061,275.601654 
	C636.042053,274.433624 637.040527,273.097229 638.117554,271.839294 
z"/>
<path fill="#65B141" opacity="1.000000" stroke="none" 
	d="
M637.941284,271.566956 
	C637.040527,273.097229 636.042053,274.433624 634.875061,275.601654 
	C601.897644,308.607574 568.908142,341.601471 535.892395,374.569122 
	C534.626038,375.833679 533.080139,376.818329 531.035767,377.701111 
	C529.282227,370.649323 528.157410,363.829895 527.394165,357.003052 
	C529.491211,355.842926 531.478210,354.942474 532.925171,353.500244 
	C562.922363,323.601685 592.861145,293.644592 622.795288,263.682861 
	C623.958252,262.518799 624.959900,261.193665 626.036682,259.943542 
	C628.754272,262.280182 631.471924,264.616821 634.516785,266.989258 
	C635.817688,268.448212 636.791382,269.871399 637.941284,271.566956 
z"/>
<path fill="#65B141" opacity="1.000000" stroke="none" 
	d="
M530.990234,379.992157 
	C533.314331,387.804321 535.638367,395.616516 537.938599,403.847351 
	C532.836548,399.592560 527.758301,394.919159 522.398682,390.073700 
	C520.817688,388.166016 519.517883,386.430389 518.418213,384.223969 
	C522.742249,382.499542 526.866211,381.245850 530.990234,379.992157 
z"/>
<path fill="#0181C6" opacity="1.000000" stroke="none" 
	d="
M507.982544,418.052795 
	C508.474091,418.312408 508.965607,418.572021 509.711395,418.946930 
	C514.236328,423.489014 518.513916,427.909119 522.775696,432.344452 
	C526.911072,436.648193 526.928955,437.611267 522.849060,441.691071 
	C486.814087,477.725708 450.725433,513.706970 414.806610,549.857056 
	C411.298645,553.387512 409.092804,553.254028 406.023895,549.686523 
	C403.769226,547.065491 400.936279,544.941833 398.319458,541.983337 
	C397.842590,537.580505 397.407349,533.790833 397.276184,529.859985 
	C433.748566,493.616730 469.921997,457.519989 506.054413,421.382263 
	C506.930634,420.505890 507.350067,419.172821 507.982544,418.052795 
z"/>
<path fill="#188FCE" opacity="1.000000" stroke="none" 
	d="
M396.972076,530.001221 
	C397.407349,533.790833 397.842590,537.580505 398.130371,541.713379 
	C395.896576,540.033386 393.810303,538.010254 391.393433,535.888794 
	C387.449646,531.741394 383.836426,527.692322 380.487793,523.327637 
	C384.830170,522.002136 388.907959,520.992371 393.035156,520.363281 
	C394.380371,523.829712 395.676239,526.915466 396.972076,530.001221 
z"/>
<path fill="#747577" opacity="1.000000" stroke="none" 
	d="
M250.011719,357.754272 
	C242.797897,359.695557 235.446426,360.948486 228.428589,363.228363 
	C223.122177,364.952271 219.296066,364.326569 216.145996,359.301025 
	C219.853180,357.762024 223.661911,356.356842 227.569229,355.325134 
	C234.735275,353.433014 241.959473,351.761169 249.561951,349.992493 
	C249.979355,352.036713 249.994232,354.085876 250.023102,356.574402 
	C250.037125,357.013733 250.017471,357.507355 250.011719,357.754272 
z"/>
<path fill="#6C6D6F" opacity="1.000000" stroke="none" 
	d="
M253.001495,377.609802 
	C247.478149,383.291046 239.878662,383.382935 234.712906,378.200348 
	C233.544235,377.027863 232.428543,375.802582 231.143936,374.302032 
	C237.438614,372.100952 243.877808,370.199402 250.657272,368.148956 
	C251.334213,369.092773 251.670883,370.185486 252.020309,371.645721 
	C252.355011,373.749878 252.676956,375.486542 253.001495,377.609802 
z"/>
<path fill="#CAE07B" opacity="1.000000" stroke="none" 
	d="
M552.667603,187.782379 
	C557.379150,191.587296 561.727173,195.274918 566.387207,199.018188 
	C567.071594,199.813354 567.444031,200.552872 567.796875,201.890625 
	C563.960938,204.672989 560.325378,207.297150 556.292419,208.954239 
	C546.358093,213.036133 540.704651,221.003281 535.639526,230.155853 
	C530.519226,231.209610 525.759338,232.105728 520.829224,232.677765 
	C518.766113,231.569702 516.900024,230.711319 514.974304,230.018936 
	C511.976257,228.941055 508.937653,227.975967 505.916260,226.963089 
	C506.689697,225.735703 507.269440,224.316376 508.266388,223.310501 
	C518.634521,212.849442 528.990845,202.373917 539.531799,192.088272 
	C542.969849,188.733459 546.874878,185.737045 552.667603,187.782379 
z"/>
<path fill="#B7D660" opacity="1.000000" stroke="none" 
	d="
M440.983826,307.988464 
	C440.080933,307.186523 439.178070,306.384583 438.145264,305.308197 
	C435.601990,296.929108 439.245697,291.195557 445.209320,286.255798 
	C448.346436,283.657257 451.273956,280.805695 454.932129,278.241425 
	C457.103210,279.268738 458.721985,280.961060 460.157410,280.817657 
	C464.211395,280.412811 468.232330,279.411285 472.185577,278.345490 
	C475.515778,277.447754 478.732880,276.130432 482.398956,274.999878 
	C486.865692,275.333984 490.933441,275.666992 495.000031,276.407104 
	C494.333771,280.544037 493.668732,284.273865 492.645203,288.039795 
	C487.194000,290.385559 482.101288,292.695221 476.587860,295.012939 
	C463.041779,295.551483 451.098663,299.289734 440.983826,307.988464 
z"/>
<path fill="#C7DE6F" opacity="1.000000" stroke="none" 
	d="
M505.580475,227.008118 
	C508.937653,227.975967 511.976257,228.941055 514.974304,230.018936 
	C516.900024,230.711319 518.766113,231.569702 520.794617,233.024307 
	C516.604187,238.137833 512.231934,242.537079 507.971710,247.042282 
	C505.874634,249.259995 503.984833,251.673752 501.590057,253.999237 
	C498.119263,254.666870 495.059631,255.334045 491.572021,256.000732 
	C487.096893,255.607574 482.581848,256.521423 480.008850,252.012436 
	C488.420807,243.692673 496.832733,235.372894 505.580475,227.008118 
z"/>
<path fill="#C2DB63" opacity="1.000000" stroke="none" 
	d="
M479.707184,252.152618 
	C482.581848,256.521423 487.096893,255.607574 491.567078,256.374878 
	C491.285522,258.384369 490.723114,260.099915 489.849457,261.638763 
	C487.299622,266.129913 484.625427,270.550507 482.000000,274.998779 
	C478.732880,276.130432 475.515778,277.447754 472.185577,278.345490 
	C468.232330,279.411285 464.211395,280.412811 460.157410,280.817657 
	C458.721985,280.961060 457.103210,279.268738 455.275513,278.206726 
	C455.610260,276.882538 456.028229,275.558167 456.897888,274.682312 
	C464.354095,267.173126 471.892029,259.745087 479.707184,252.152618 
z"/>
<path fill="#A3A4A6" opacity="1.000000" stroke="none" 
	d="
M298.096924,234.043304 
	C291.951416,240.602310 285.805908,247.161316 278.949585,253.866806 
	C271.194672,255.672043 264.076538,257.070038 257.122040,259.044281 
	C243.028168,263.045227 228.828644,266.809143 215.032822,271.688904 
	C199.621689,277.139984 184.623154,283.753723 169.401199,289.750153 
	C168.102341,290.261841 166.473709,289.936340 164.998276,289.999756 
	C174.130768,280.761658 183.263260,271.523529 192.954651,262.422913 
	C195.749664,262.341339 198.139145,262.555664 200.195328,261.828094 
	C209.056778,258.692535 217.701523,254.908035 226.646408,252.052963 
	C241.762146,247.228226 256.954926,242.584961 272.293976,238.543488 
	C280.706207,236.327072 289.483948,235.497971 298.096924,234.043304 
z"/>
<path fill="#AAABAD" opacity="1.000000" stroke="none" 
	d="
M298.397095,233.898010 
	C289.483948,235.497971 280.706207,236.327072 272.293976,238.543488 
	C256.954926,242.584961 241.762146,247.228226 226.646408,252.052963 
	C217.701523,254.908035 209.056778,258.692535 200.195328,261.828094 
	C198.139145,262.555664 195.749664,262.341339 193.253937,262.278046 
	C201.415115,253.682907 209.835938,245.370102 219.018341,237.026306 
	C230.023682,233.917938 240.207672,230.620697 250.525726,227.816833 
	C264.545532,224.007065 278.684204,220.636459 292.733734,216.932846 
	C295.895142,216.099472 299.972534,216.434235 301.024109,211.947754 
	C301.742554,212.295502 302.461029,212.643234 303.470093,213.027832 
	C306.430817,216.339508 309.100983,219.614349 312.239502,223.463638 
	C307.723297,226.894958 303.210327,230.323837 298.397095,233.898010 
z"/>
<path fill="#B1B2B4" opacity="1.000000" stroke="none" 
	d="
M300.871521,211.655426 
	C299.972534,216.434235 295.895142,216.099472 292.733734,216.932846 
	C278.684204,220.636459 264.545532,224.007065 250.525726,227.816833 
	C240.207672,230.620697 230.023682,233.917938 219.359406,236.989502 
	C219.939163,235.512146 220.738297,233.840866 221.970642,232.599716 
	C235.555359,218.917969 249.195450,205.291061 262.849701,191.678543 
	C266.285706,188.253052 270.059875,185.696213 275.639771,187.883057 
	C279.782532,191.250717 283.535553,194.602081 287.633057,197.998260 
	C292.224701,202.483078 296.471832,206.923096 300.871521,211.655426 
z"/>
<path fill="#9D9EA0" opacity="1.000000" stroke="none" 
	d="
M164.686630,290.153137 
	C166.473709,289.936340 168.102341,290.261841 169.401199,289.750153 
	C184.623154,283.753723 199.621689,277.139984 215.032822,271.688904 
	C228.828644,266.809143 243.028168,263.045227 257.122040,259.044281 
	C264.076538,257.070038 271.194672,255.672043 278.656250,254.026733 
	C275.789368,259.149200 272.504974,264.258209 268.646545,269.680725 
	C258.124817,272.264160 247.911423,273.741638 238.284821,276.969238 
	C218.338547,283.656830 198.729691,291.345612 178.925766,298.466003 
	C173.046722,300.579803 166.979660,302.170715 160.998749,304.001221 
	C160.998749,304.001221 161.000000,304.000000 160.999084,304.000610 
	C159.775055,298.857178 159.299301,293.897400 164.686630,290.153137 
z"/>
<path fill="#78C3E9" opacity="1.000000" stroke="none" 
	d="
M298.999054,431.997559 
	C305.087036,426.016876 311.175018,420.036163 317.942444,414.161407 
	C321.271362,413.753082 324.083221,413.637970 326.536133,412.640350 
	C331.438721,410.646484 335.989929,407.733582 340.959045,405.968079 
	C360.331512,399.084930 379.712585,392.195526 399.290009,385.932129 
	C409.637360,382.621704 420.395630,380.595673 430.832947,378.292358 
	C424.803223,385.398926 418.908936,392.202942 412.609283,399.012817 
	C408.984100,399.771423 405.680206,400.273193 402.558502,401.318848 
	C386.201263,406.797760 369.808746,412.190094 353.595795,418.073578 
	C344.893188,421.231659 336.534637,425.334534 328.006042,428.976440 
	C320.864960,432.025848 313.832520,435.399750 306.512939,437.941620 
	C299.134796,440.503876 299.005737,440.132202 298.999054,431.997559 
z"/>
<path fill="#80C7EC" opacity="1.000000" stroke="none" 
	d="
M430.968384,377.989777 
	C420.395630,380.595673 409.637360,382.621704 399.290009,385.932129 
	C379.712585,392.195526 360.331512,399.084930 340.959045,405.968079 
	C335.989929,407.733582 331.438721,410.646484 326.536133,412.640350 
	C324.083221,413.637970 321.271362,413.753082 318.283203,414.120056 
	C319.181793,412.266296 320.203339,410.337708 321.692719,408.890656 
	C329.187531,401.609009 336.804474,394.453033 344.756348,387.478760 
	C347.082031,387.961639 349.289825,388.943207 350.933990,388.353485 
	C359.185150,385.393951 367.143036,381.568146 375.476746,378.898163 
	C389.970886,374.254517 404.620972,370.076233 419.291016,366.010956 
	C428.829254,363.367767 438.518768,361.270447 448.140503,358.928589 
	C449.040192,359.768677 449.939911,360.608765 450.653381,361.881927 
	C443.967529,367.539948 437.467957,372.764862 430.968384,377.989777 
z"/>
<path fill="#6DBEE7" opacity="1.000000" stroke="none" 
	d="
M298.688232,432.151245 
	C299.005737,440.132202 299.134796,440.503876 306.512939,437.941620 
	C313.832520,435.399750 320.864960,432.025848 328.006042,428.976440 
	C336.534637,425.334534 344.893188,421.231659 353.595795,418.073578 
	C369.808746,412.190094 386.201263,406.797760 402.558502,401.318848 
	C405.680206,400.273193 408.984100,399.771423 412.476318,399.330505 
	C409.145813,406.088470 405.542908,412.534607 401.525848,418.986938 
	C399.801788,419.139252 398.421814,419.067963 397.192444,419.464111 
	C378.990295,425.329559 360.723694,431.012604 342.650970,437.255890 
	C330.627502,441.409424 318.887634,446.383911 307.020844,450.990967 
	C303.881104,448.087219 300.741364,445.183472 297.305481,442.126404 
	C294.983002,438.399109 293.791107,434.943207 298.688232,432.151245 
z"/>
<path fill="#89CBED" opacity="1.000000" stroke="none" 
	d="
M447.969238,358.640076 
	C438.518768,361.270447 428.829254,363.367767 419.291016,366.010956 
	C404.620972,370.076233 389.970886,374.254517 375.476746,378.898163 
	C367.143036,381.568146 359.185150,385.393951 350.933990,388.353485 
	C349.289825,388.943207 347.082031,387.961639 345.053528,387.326935 
	C353.107300,378.713898 361.241669,370.478577 369.690979,362.470459 
	C370.312012,365.944946 372.118958,364.719757 373.877136,364.073334 
	C381.312653,361.339569 388.685333,358.392548 396.241577,356.039062 
	C408.830750,352.117981 421.543060,348.592224 434.203522,344.899994 
	C438.735016,349.383850 443.266510,353.867737 447.969238,358.640076 
z"/>
<path fill="#92D0F0" opacity="1.000000" stroke="none" 
	d="
M434.023193,344.614746 
	C421.543060,348.592224 408.830750,352.117981 396.241577,356.039062 
	C388.685333,358.392548 381.312653,361.339569 373.877136,364.073334 
	C372.118958,364.719757 370.312012,365.944946 369.988251,362.317719 
	C381.060150,350.708862 392.067108,339.396179 403.295746,328.308044 
	C406.217987,325.422333 409.977600,323.910828 414.628601,325.893219 
	C417.820435,328.494354 420.623505,331.076355 423.736328,333.769226 
	C427.311707,337.363220 430.577271,340.846375 434.023193,344.614746 
z"/>
<path fill="#909193" opacity="1.000000" stroke="none" 
	d="
M255.034363,302.617981 
	C254.445969,305.110168 253.851028,307.213501 253.102722,309.649170 
	C235.371735,315.022644 216.979218,318.252563 200.474533,325.678375 
	C187.291290,331.609833 181.153107,326.238739 174.507874,317.263245 
	C196.487289,309.449127 218.179382,301.785370 240.036591,294.625732 
	C246.086243,292.644073 252.626907,292.161285 258.942291,290.990784 
	C257.637482,294.736877 256.332642,298.482971 255.034363,302.617981 
z"/>
<path fill="#949597" opacity="1.000000" stroke="none" 
	d="
M259.091797,290.674683 
	C252.626907,292.161285 246.086243,292.644073 240.036591,294.625732 
	C218.179382,301.785370 196.487289,309.449127 174.361801,316.964355 
	C173.176743,316.421967 172.362762,315.837799 171.274384,315.126831 
	C170.417068,314.183563 169.834152,313.367157 169.352463,312.001495 
	C176.942123,308.356750 184.318375,304.945374 191.944305,302.237091 
	C204.520981,297.770538 217.174667,293.477356 229.954880,289.640656 
	C240.844482,286.371582 251.957932,283.848053 262.972351,280.994751 
	C262.666412,281.785339 262.360504,282.575928 262.036438,283.685730 
	C261.092651,286.122803 260.166962,288.240692 259.091797,290.674683 
z"/>
<path fill="#98999B" opacity="1.000000" stroke="none" 
	d="
M263.023499,280.643860 
	C251.957932,283.848053 240.844482,286.371582 229.954880,289.640656 
	C217.174667,293.477356 204.520981,297.770538 191.944305,302.237091 
	C184.318375,304.945374 176.942123,308.356750 169.226852,311.726135 
	C166.428574,309.533081 163.857132,307.066193 161.142227,304.300232 
	C166.979660,302.170715 173.046722,300.579803 178.925766,298.466003 
	C198.729691,291.345612 218.338547,283.656830 238.284821,276.969238 
	C247.911423,273.741638 258.124817,272.264160 268.492493,269.989563 
	C266.966522,273.420929 265.020569,276.856964 263.023499,280.643860 
z"/>
<path fill="#309DD7" opacity="1.000000" stroke="none" 
	d="
M464.719177,374.866058 
	C467.911316,378.122894 470.828583,381.255554 473.592651,384.828491 
	C447.009247,411.629730 420.590851,438.002625 394.117188,464.319977 
	C392.646301,465.782166 390.718445,466.784698 388.998047,467.569397 
	C389.319885,463.754791 389.647003,460.371979 390.028778,456.595001 
	C391.720276,450.132660 393.357086,444.064484 395.338989,437.963806 
	C397.215637,436.694458 398.872894,435.583740 400.259735,434.201691 
	C417.257782,417.262512 434.202545,400.269928 451.196106,383.326263 
	C454.726257,379.806427 458.399048,376.429657 462.006104,372.986938 
	C462.818848,373.571930 463.631592,374.156921 464.719177,374.866058 
z"/>
<path fill="#3CA5DB" opacity="1.000000" stroke="none" 
	d="
M461.858704,372.689880 
	C458.399048,376.429657 454.726257,379.806427 451.196106,383.326263 
	C434.202545,400.269928 417.257782,417.262512 400.259735,434.201691 
	C398.872894,435.583740 397.215637,436.694458 395.336243,437.629578 
	C394.983215,436.882172 394.977936,436.436432 395.124329,435.658020 
	C397.497314,429.877136 399.718628,424.428955 401.939941,418.980774 
	C405.542908,412.534607 409.145813,406.088470 412.881714,399.324615 
	C418.908936,392.202942 424.803223,385.398926 430.832947,378.292358 
	C437.467957,372.764862 443.967529,367.539948 450.776794,362.167236 
	C454.628052,365.477234 458.169678,368.935028 461.858704,372.689880 
z"/>
<path fill="#5AB3E2" opacity="1.000000" stroke="none" 
	d="
M394.972687,435.990723 
	C394.977936,436.436432 394.983215,436.882172 394.991180,437.662109 
	C393.357086,444.064484 391.720276,450.132660 389.643158,456.644745 
	C388.095154,457.398987 386.977661,457.678345 385.881165,458.024200 
	C367.910797,463.691833 349.943085,469.367859 331.974792,475.042023 
	C327.083405,470.561188 322.191986,466.080353 317.542236,461.291504 
	C320.813293,459.712830 323.787048,458.283478 326.881531,457.198364 
	C341.856628,451.947388 356.790466,446.560150 371.891357,441.694397 
	C379.416473,439.269684 387.268524,437.859711 394.972687,435.990723 
z"/>
<path fill="#63B8E4" opacity="1.000000" stroke="none" 
	d="
M395.124329,435.658020 
	C387.268524,437.859711 379.416473,439.269684 371.891357,441.694397 
	C356.790466,446.560150 341.856628,451.947388 326.881531,457.198364 
	C323.787048,458.283478 320.813293,459.712830 317.400940,460.987915 
	C315.537140,459.743713 314.056274,458.495117 312.286926,457.094238 
	C310.433716,455.161530 308.868988,453.381104 307.162537,451.295807 
	C318.887634,446.383911 330.627502,441.409424 342.650970,437.255890 
	C360.723694,431.012604 378.990295,425.329559 397.192444,419.464111 
	C398.421814,419.067963 399.801788,419.139252 401.525818,418.986938 
	C399.718628,424.428955 397.497314,429.877136 395.124329,435.658020 
z"/>
<path fill="#4EACDE" opacity="1.000000" stroke="none" 
	d="
M332.019928,475.382996 
	C349.943085,469.367859 367.910797,463.691833 385.881165,458.024200 
	C386.977661,457.678345 388.095154,457.398987 389.588501,457.038940 
	C389.647003,460.371979 389.319885,463.754791 388.992645,467.899963 
	C388.976807,469.102722 388.961090,469.543060 388.533966,469.988464 
	C372.381927,474.716156 356.641266,479.438782 340.900635,484.161438 
	C340.490570,484.109039 340.080505,484.056641 339.363892,483.963135 
	C336.726562,481.189362 334.395813,478.456665 332.019928,475.382996 
z"/>
<path fill="#45A6DB" opacity="1.000000" stroke="none" 
	d="
M340.963379,484.490601 
	C356.641266,479.438782 372.381927,474.716156 388.549988,470.416931 
	C388.645813,475.558838 388.314148,480.277283 387.571686,484.997925 
	C385.398163,485.338379 383.591492,485.529175 381.879944,486.039185 
	C371.889893,489.016022 361.922150,492.067719 351.946869,495.094116 
	C348.306610,491.669373 344.666351,488.244568 340.963379,484.490601 
z"/>
<path fill="#3CA5DB" opacity="1.000000" stroke="none" 
	d="
M352.093903,495.394043 
	C361.922150,492.067719 371.889893,489.016022 381.879944,486.039185 
	C383.591492,485.529175 385.398163,485.338379 387.579163,485.401794 
	C388.323303,487.537262 388.649170,489.271057 388.979065,491.458466 
	C388.983887,494.940613 388.984680,497.969208 388.603516,501.041199 
	C379.848663,503.045349 371.475800,505.006104 363.102936,506.966919 
	C359.482269,503.209259 355.861603,499.451630 352.093903,495.394043 
z"/>
<path fill="#309DD7" opacity="1.000000" stroke="none" 
	d="
M363.081299,507.195068 
	C371.475800,505.006104 379.848663,503.045349 388.895752,501.317017 
	C390.374023,505.705597 391.178101,509.861725 391.986420,514.403076 
	C392.322388,516.519653 392.654083,518.251160 392.985779,519.982605 
	C388.907959,520.992371 384.830170,522.002136 380.334717,523.030151 
	C379.446625,522.768677 378.976135,522.489014 378.253235,522.100464 
	C373.205505,517.401611 368.410217,512.811646 363.323517,508.051270 
	C363.032104,507.880768 363.059692,507.423218 363.081299,507.195068 
z"/>
<path fill="#7FBD55" opacity="1.000000" stroke="none" 
	d="
M530.988281,379.659607 
	C526.866211,381.245850 522.742249,382.499542 518.260498,383.933716 
	C513.843140,380.488464 509.783417,376.862701 505.443604,373.067749 
	C501.357361,368.949677 497.551239,365.000824 493.415283,360.977295 
	C489.961609,357.634155 486.837799,354.365631 483.387299,351.023132 
	C482.781494,350.178436 482.502380,349.407745 482.432678,348.189880 
	C486.556091,346.497681 490.392029,344.631073 494.399231,344.127319 
	C505.218964,342.767151 516.111633,341.987122 526.985229,341.445129 
	C527.007568,346.945740 527.020081,351.978088 527.032593,357.010468 
	C528.157410,363.829895 529.282227,370.649323 530.689209,377.732605 
	C530.976379,378.440033 530.981323,378.883545 530.988281,379.659607 
z"/>
<path fill="#2496D3" opacity="1.000000" stroke="none" 
	d="
M388.975067,491.004883 
	C388.649170,489.271057 388.323303,487.537262 387.989929,485.399597 
	C388.314148,480.277283 388.645813,475.558838 388.961426,470.411865 
	C388.961090,469.543060 388.976807,469.102722 388.997925,468.331787 
	C390.718445,466.784698 392.646301,465.782166 394.117188,464.319977 
	C420.590851,438.002625 447.009247,411.629730 473.746124,385.125061 
	C475.784027,386.303925 477.515320,387.626465 479.571960,388.987213 
	C481.852051,391.477081 483.806824,393.928741 485.608887,396.819824 
	C474.205688,408.104645 462.834839,418.828430 451.731323,429.822235 
	C432.324860,449.036926 413.097870,468.432739 393.739166,487.695923 
	C392.389740,489.038696 390.573975,489.912811 388.975067,491.004883 
z"/>
<path fill="#C0DC82" opacity="1.000000" stroke="none" 
	d="
M536.000000,229.998215 
	C540.704651,221.003281 546.358093,213.036133 556.292419,208.954239 
	C560.325378,207.297150 563.960938,204.672989 567.940674,202.166977 
	C572.408630,205.892609 576.713257,209.940125 581.320190,214.068726 
	C584.301941,217.214600 586.981384,220.279419 589.443970,223.701935 
	C586.168457,226.074112 583.109680,228.088593 579.763550,229.785126 
	C577.837952,229.311447 576.179993,228.909531 574.564697,229.039490 
	C563.039062,229.966736 551.522156,231.002441 539.807739,231.745346 
	C538.408630,230.990753 537.204346,230.494476 536.000000,229.998215 
z"/>
<path fill="#188FCE" opacity="1.000000" stroke="none" 
	d="
M388.979065,491.458466 
	C390.573975,489.912811 392.389740,489.038696 393.739166,487.695923 
	C413.097870,468.432739 432.324860,449.036926 451.731323,429.822235 
	C462.834839,418.828430 474.205688,408.104645 485.765686,397.115540 
	C489.170685,399.564911 492.266174,402.158051 495.654602,404.907867 
	C496.132507,405.619080 496.317505,406.173645 496.711853,407.237671 
	C495.677490,409.267975 494.553802,410.908661 493.172424,412.292023 
	C460.774902,444.734924 428.346466,477.146942 395.939941,509.580841 
	C394.541351,510.980591 393.297882,512.535339 391.982178,514.017883 
	C391.178101,509.861725 390.374023,505.705597 389.277710,501.273621 
	C388.984680,497.969208 388.983887,494.940613 388.979065,491.458466 
z"/>
<path fill="#7ABA43" opacity="1.000000" stroke="none" 
	d="
M609.750244,242.864090 
	C611.260132,244.428253 612.508362,245.896866 613.755859,247.952957 
	C586.576782,275.786255 559.415710,303.049347 532.167480,330.225189 
	C530.845276,331.543945 528.758362,332.096069 527.017944,332.580902 
	C527.323059,328.430084 527.637756,324.703522 527.983032,320.682739 
	C528.321838,319.916992 528.630188,319.445465 529.307373,318.977905 
	C531.422852,317.849213 533.432800,316.981201 534.876587,315.544312 
	C558.222412,292.310181 581.499878,269.007416 604.775452,245.702805 
	C605.940247,244.536575 606.946594,243.212112 608.026794,241.961334 
	C608.514038,242.230408 609.001282,242.499466 609.750244,242.864090 
z"/>
<path fill="#81BD44" opacity="1.000000" stroke="none" 
	d="
M607.878113,241.671112 
	C606.946594,243.212112 605.940247,244.536575 604.775452,245.702805 
	C581.499878,269.007416 558.222412,292.310181 534.876587,315.544312 
	C533.432800,316.981201 531.422852,317.849213 529.322937,318.564697 
	C530.289368,313.088684 531.609131,308.029877 533.278320,302.948730 
	C535.165222,301.704254 536.837708,300.617523 538.219849,299.239563 
	C558.152771,279.366150 578.041687,259.448608 597.961243,239.561798 
	C599.246399,238.278778 600.695068,237.159561 602.067688,235.964142 
	C603.954956,237.769714 605.842163,239.575302 607.878113,241.671112 
z"/>
<path fill="#87C044" opacity="1.000000" stroke="none" 
	d="
M601.912354,235.674957 
	C600.695068,237.159561 599.246399,238.278778 597.961243,239.561798 
	C578.041687,259.448608 558.152771,279.366150 538.219849,299.239563 
	C536.837708,300.617523 535.165222,301.704254 533.293640,302.539276 
	C534.984131,296.103027 537.008667,290.053925 539.396423,283.999176 
	C541.381409,282.953827 543.247681,282.161072 544.587036,280.835907 
	C556.902405,268.650787 569.101135,256.347992 581.389709,244.135635 
	C586.222412,239.332916 591.196411,234.672318 596.106079,229.947021 
	C597.989746,231.759949 599.873352,233.572876 601.912354,235.674957 
z"/>
<path fill="#8FC346" opacity="1.000000" stroke="none" 
	d="
M596.079651,229.704590 
	C591.196411,234.672318 586.222412,239.332916 581.389709,244.135635 
	C569.101135,256.347992 556.902405,268.650787 544.587036,280.835907 
	C543.247681,282.161072 541.381409,282.953827 539.523071,283.675171 
	C540.864258,279.907166 542.441895,276.457489 544.285828,272.798584 
	C548.752502,265.775879 552.952881,258.962433 557.471436,252.057068 
	C565.210144,244.677811 572.630554,237.390442 580.050964,230.103073 
	C583.109680,228.088593 586.168457,226.074112 589.562988,224.006439 
	C591.737610,225.539780 593.576416,227.126312 595.715942,228.844330 
	C596.016663,228.975830 596.053223,229.462173 596.079651,229.704590 
z"/>
<path fill="#6FB542" opacity="1.000000" stroke="none" 
	d="
M527.027527,333.005127 
	C528.758362,332.096069 530.845276,331.543945 532.167480,330.225189 
	C559.415710,303.049347 586.576782,275.786255 613.911133,248.235138 
	C617.106506,250.603256 620.145935,253.276672 623.512146,255.992081 
	C624.474854,257.144409 625.110718,258.254791 625.891602,259.654358 
	C624.959900,261.193665 623.958252,262.518799 622.795288,263.682861 
	C592.861145,293.644592 562.922363,323.601685 532.925171,353.500244 
	C531.478210,354.942474 529.491211,355.842926 527.394165,357.003052 
	C527.020081,351.978088 527.007568,346.945740 526.989685,341.003723 
	C526.998718,337.731079 527.013123,335.368103 527.027527,333.005127 
z"/>
<path fill="#0C87CA" opacity="1.000000" stroke="none" 
	d="
M391.986389,514.403076 
	C393.297882,512.535339 394.541351,510.980591 395.939941,509.580841 
	C428.346466,477.146942 460.774902,444.734924 493.172424,412.292023 
	C494.553802,410.908661 495.677490,409.267975 496.955292,407.410675 
	C500.558868,410.530975 504.128387,413.987762 507.840210,417.748657 
	C507.350067,419.172821 506.930634,420.505890 506.054413,421.382263 
	C469.921997,457.519989 433.748566,493.616730 397.276184,529.859985 
	C395.676239,526.915466 394.380371,523.829712 393.035156,520.363281 
	C392.654083,518.251160 392.322388,516.519653 391.986389,514.403076 
z"/>
<path fill="#A2CC56" opacity="1.000000" stroke="none" 
	d="
M469.981140,336.023651 
	C466.547821,333.045074 463.114471,330.066498 459.351135,327.017700 
	C458.108368,325.504150 457.195618,324.060822 456.292511,322.011841 
	C459.870514,319.268341 463.438934,317.130493 467.401489,314.987000 
	C472.156311,313.655029 476.588654,312.524078 480.860840,310.956665 
	C487.296936,308.595245 492.374603,314.099213 498.669556,313.259125 
	C497.688141,316.472137 496.844666,319.233612 495.641724,322.032959 
	C493.506470,322.925598 491.678589,323.687775 489.964111,324.651703 
	C483.283600,328.407654 476.639069,332.227539 469.981140,336.023651 
z"/>
<path fill="#B2D356" opacity="1.000000" stroke="none" 
	d="
M467.007324,314.992676 
	C463.438934,317.130493 459.870514,319.268341 456.148254,321.716736 
	C452.862030,319.444122 449.729645,316.860870 446.299133,314.122803 
	C444.456055,312.155975 442.911163,310.343903 441.175049,308.260162 
	C451.098663,299.289734 463.041779,295.551483 476.548645,295.369446 
	C474.072510,300.605682 471.143158,305.453827 468.403870,310.407043 
	C467.647491,311.774719 467.457306,313.455536 467.007324,314.992676 
z"/>
<path fill="#96C757" opacity="1.000000" stroke="none" 
	d="
M470.118011,336.306702 
	C476.639069,332.227539 483.283600,328.407654 489.964111,324.651703 
	C491.678589,323.687775 493.506470,322.925598 496.067596,322.033997 
	C507.241364,322.325623 517.686523,324.383362 527.952454,320.976959 
	C527.637756,324.703522 527.323059,328.430084 527.017944,332.580872 
	C527.013123,335.368103 526.998718,337.731079 526.979858,340.535461 
	C516.111633,341.987122 505.218964,342.767151 494.399231,344.127319 
	C490.392029,344.631073 486.556091,346.497681 482.299652,347.907074 
	C479.163116,345.486359 476.369019,342.901337 473.277893,340.168488 
	C472.072266,338.877045 471.163574,337.733398 470.118011,336.306702 
z"/>
<path fill="#BEDA73" opacity="1.000000" stroke="none" 
	d="
M535.639526,230.155853 
	C537.204346,230.494476 538.408630,230.990753 539.801147,232.128143 
	C537.992920,239.181152 535.996460,245.593018 533.842957,252.313110 
	C529.456482,254.748367 525.227051,256.875397 520.781616,258.713318 
	C514.377502,256.949066 508.189362,255.473923 502.001221,253.998795 
	C503.984833,251.673752 505.874634,249.259995 507.971710,247.042282 
	C512.231934,242.537079 516.604187,238.137833 520.964844,233.348389 
	C525.759338,232.105728 530.519226,231.209610 535.639526,230.155853 
z"/>
<path fill="#A4CE62" opacity="1.000000" stroke="none" 
	d="
M527.983032,320.682739 
	C517.686523,324.383362 507.241364,322.325623 496.427063,321.996185 
	C496.844666,319.233612 497.688141,316.472137 498.669556,313.259125 
	C492.374603,314.099213 487.296936,308.595245 480.860840,310.956665 
	C476.588654,312.524078 472.156311,313.655029 467.401489,314.987000 
	C467.457306,313.455536 467.647491,311.774719 468.403870,310.407043 
	C471.143158,305.453827 474.072510,300.605682 476.969299,295.361389 
	C482.101288,292.695221 487.194000,290.385559 492.999817,288.194916 
	C499.758270,288.475525 505.740601,288.711609 510.952667,284.599274 
	C520.618713,276.972870 531.252930,271.891937 544.019470,273.007782 
	C542.441895,276.457489 540.864258,279.907166 539.159912,283.680847 
	C537.008667,290.053925 534.984131,296.103027 532.944214,302.561584 
	C531.609131,308.029877 530.289368,313.088684 528.953979,318.560699 
	C528.630188,319.445465 528.321838,319.916992 527.983032,320.682739 
z"/>
<path fill="#B2D469" opacity="1.000000" stroke="none" 
	d="
M544.285828,272.798584 
	C531.252930,271.891937 520.618713,276.972870 510.952667,284.599274 
	C505.740601,288.711609 499.758270,288.475525 493.358337,288.158813 
	C493.668732,284.273865 494.333771,280.544037 495.318481,276.267029 
	C503.187103,271.430481 510.782532,267.219116 518.239014,262.774567 
	C519.470581,262.040527 520.093506,260.285583 520.997681,259.002441 
	C525.227051,256.875397 529.456482,254.748367 534.311523,252.312408 
	C542.342590,252.052002 549.747864,252.100479 557.153198,252.148956 
	C552.952881,258.962433 548.752502,265.775879 544.285828,272.798584 
z"/>
<path fill="#BBD869" opacity="1.000000" stroke="none" 
	d="
M520.781616,258.713318 
	C520.093506,260.285583 519.470581,262.040527 518.239014,262.774567 
	C510.782532,267.219116 503.187103,271.430481 495.319641,275.859894 
	C490.933441,275.666992 486.865692,275.333984 482.398956,274.999878 
	C484.625427,270.550507 487.299622,266.129913 489.849457,261.638763 
	C490.723114,260.099915 491.285522,258.384369 491.995056,256.375397 
	C495.059631,255.334045 498.119263,254.666870 501.590057,253.999237 
	C508.189362,255.473923 514.377502,256.949066 520.781616,258.713318 
z"/>
<path fill="#B8D87B" opacity="1.000000" stroke="none" 
	d="
M557.471436,252.057068 
	C549.747864,252.100479 542.342590,252.052002 534.468628,252.004211 
	C535.996460,245.593018 537.992920,239.181152 539.995911,232.386475 
	C551.522156,231.002441 563.039062,229.966736 574.564697,229.039490 
	C576.179993,228.909531 577.837952,229.311447 579.763550,229.785126 
	C572.630554,237.390442 565.210144,244.677811 557.471436,252.057068 
z"/>
</svg>