<svg version="1.1" id="Layer_1" xmlns="http://www.w3.org/2000/svg" xmlns:xlink="http://www.w3.org/1999/xlink" x="0px" y="0px"
	 width="100%" viewBox="1.000052 1.000082 498.99994 498.99988" enable-background="new 0 0 499 499" xml:space="preserve">
<path fill="#000000" opacity="1.000000" stroke="none" 
	d="
M500.000000,128.000000 
	C500.000000,252.333298 500.000000,376.166595 500.000000,499.999939 
	C333.666748,499.999939 167.333466,499.999939 1.000156,499.999969 
	C1.000104,333.666779 1.000104,167.333557 1.000052,1.000245 
	C167.333176,1.000163 333.666351,1.000163 499.999756,1.000082 
	C500.000000,43.166668 500.000000,85.333336 500.000000,128.000000 
M336.042358,9.025382 
	C314.047943,9.072688 292.053497,9.119993 269.124634,9.023155 
	C258.116028,9.328279 247.107422,9.633403 235.597763,9.224858 
	C223.077271,9.205154 210.556793,9.185450 197.103226,9.028986 
	C180.442993,9.019531 163.781509,8.876955 147.122879,9.035966 
	C128.361115,9.215052 109.592377,9.401792 90.844711,10.082269 
	C75.912399,10.624261 62.050964,15.376406 48.968052,22.505629 
	C34.682793,30.290039 24.108873,41.174828 20.313192,57.443733 
	C17.253952,70.556137 16.588345,83.480797 23.397934,96.001961 
	C31.504507,110.907959 52.316433,119.236687 69.147827,114.556183 
	C86.727287,109.667656 99.459373,92.989006 99.401146,74.102974 
	C99.349945,57.493927 85.922142,40.442162 71.850746,36.029942 
	C75.361389,32.322201 77.994263,28.539616 81.523926,26.006735 
	C91.055389,19.166954 101.763016,16.554569 113.672760,15.694690 
	C137.641373,13.964166 155.216492,30.666016 153.260406,55.534019 
	C151.905884,72.754189 153.326569,90.175652 152.865479,107.490082 
	C152.626480,116.464066 151.825684,125.592888 149.815414,134.314484 
	C145.661652,152.335648 137.435806,168.351898 121.004692,178.213654 
	C111.954300,183.645599 101.577209,186.835709 92.378693,192.058777 
	C73.348846,202.864212 58.908855,217.358917 54.756607,240.238312 
	C51.844765,256.282898 61.713356,270.671631 75.175056,275.934204 
	C87.799660,280.869537 100.812752,280.662781 113.750832,277.581818 
	C133.154984,272.961029 149.626968,263.065094 162.485199,247.846786 
	C170.975723,237.797897 176.118652,226.210480 176.073578,212.502396 
	C175.894379,158.023804 176.119858,103.543861 175.931534,49.065331 
	C175.869980,31.257923 191.249985,15.559304 209.066467,15.969168 
	C215.056107,16.106956 221.053970,15.886488 227.765427,15.982169 
	C241.694229,22.217501 251.523117,32.228809 254.554977,47.441765 
	C256.018646,54.785969 255.684692,62.488430 256.023193,70.953293 
	C256.015472,90.054619 255.983627,109.155968 256.005768,128.257263 
	C256.037750,155.826080 256.108948,183.394867 256.027283,211.721344 
	C256.073120,212.486893 256.118958,213.252441 256.020538,214.945557 
	C256.013763,254.913483 256.185181,294.882843 255.863022,334.848236 
	C255.791077,343.775482 254.773453,352.869598 252.775452,361.561432 
	C250.422134,371.798950 246.090866,381.712708 236.224655,386.990845 
	C229.970062,390.336853 222.803726,391.978607 217.116333,394.003662 
	C216.178238,393.790253 216.618271,393.977692 217.058441,393.977997 
	C242.371445,393.994995 267.690582,394.316132 292.994293,393.832428 
	C302.311737,393.654327 311.297058,390.831207 317.999054,383.486816 
	C327.851440,372.690125 331.162476,359.225891 331.822021,345.344788 
	C332.837799,323.967133 332.680176,302.533722 333.949951,281.019897 
	C341.973236,280.958710 349.996521,280.897552 358.946655,280.980621 
	C368.472351,281.002319 377.961609,281.394470 387.286102,278.373047 
	C408.815643,271.396790 425.207397,257.334381 438.385437,239.811920 
	C455.530975,217.013977 464.638947,190.654755 466.781281,162.290421 
	C467.737640,149.628540 466.356018,136.788101 466.000824,124.029678 
	C465.608582,109.938789 463.059875,96.232338 459.072388,82.714478 
	C453.015289,62.180557 442.688751,44.638336 425.707214,31.085798 
	C405.514374,14.970432 382.354065,8.831216 356.091064,9.026406 
	C349.716034,9.073075 343.341034,9.119744 336.042358,9.025382 
M402.054840,448.600586 
	C397.613403,424.259064 372.548767,417.745178 354.246246,426.031555 
	C340.355164,432.320648 335.521454,444.314301 336.014526,458.871124 
	C336.852386,483.607147 354.698822,495.880371 377.720123,491.424774 
	C397.975311,487.504486 405.939026,469.012512 402.054840,448.600586 
M250.287796,490.034271 
	C255.067932,490.442871 259.848053,490.851471 265.255585,491.313721 
	C265.255585,481.515320 265.255585,472.943024 265.255585,464.023407 
	C268.806610,464.023407 271.797119,463.833435 274.755066,464.062897 
	C280.978271,464.545654 284.802277,467.508392 285.760071,472.833130 
	C286.458984,476.718811 286.932587,480.705109 286.914215,484.643799 
	C286.893280,489.131073 288.091858,491.571869 293.161560,491.069122 
	C296.772888,490.710968 300.448334,490.999695 303.342468,490.999695 
	C302.876129,484.817322 302.649017,478.930817 301.931091,473.104767 
	C301.224274,467.369110 301.043488,461.195740 294.300232,458.375366 
	C295.066589,457.563538 295.430298,456.907013 295.983459,456.633209 
	C303.611420,452.857666 304.397919,444.162537 302.046021,435.136444 
	C300.225281,428.148804 293.814514,424.073639 285.690613,424.010406 
	C279.364014,423.961182 273.036713,424.000122 266.709747,424.000000 
	C261.283356,423.999878 255.856964,424.000000 250.077103,424.000000 
	C250.077103,446.230377 250.077103,467.677948 250.287796,490.034271 
M86.931732,490.699127 
	C91.505173,490.699127 96.078606,490.699127 101.215820,490.699127 
	C101.215820,482.896606 101.215820,475.656494 101.215820,468.000000 
	C106.101761,468.000000 110.406967,468.071899 114.708427,467.975983 
	C117.840965,467.906128 121.160889,468.227142 124.064850,467.315247 
	C136.243469,463.491028 140.533249,451.804047 137.147263,438.601959 
	C134.713486,429.112610 127.455162,424.020874 117.802025,424.003937 
	C107.370750,423.985657 96.939423,423.999817 86.286858,423.999817 
	C86.286858,446.487976 86.286858,468.259644 86.931732,490.699127 
M193.564499,445.907227 
	C192.864182,447.103058 192.163864,448.298889 191.093582,450.126465 
	C187.470505,442.155731 184.236145,434.789215 180.734848,427.551819 
	C180.045120,426.126099 178.399567,424.310364 177.068451,424.200104 
	C172.210266,423.797699 167.298599,424.040985 161.385620,424.040985 
	C167.303345,435.227234 172.555466,445.480164 178.122330,455.559296 
	C181.591354,461.840179 184.885208,467.945618 184.095108,475.567291 
	C183.588058,480.458588 184.000000,485.445160 184.000000,490.554291 
	C189.299515,490.554291 193.980042,490.554291 199.000000,490.554291 
	C199.000000,487.132111 199.260986,484.125946 198.952652,481.179352 
	C197.892517,471.048187 200.623520,462.167694 205.986755,453.491150 
	C211.725403,444.207306 216.286102,434.195312 221.622208,424.002014 
	C216.481445,424.002014 212.135178,423.718933 207.858719,424.141663 
	C206.153900,424.310150 203.923279,425.657410 203.101822,427.123474 
	C199.790298,433.033661 196.935455,439.199768 193.564499,445.907227 
z"/>
<path fill="#EE383A" opacity="1.000000" stroke="none" 
	d="
M227.048080,15.829763 
	C221.053970,15.886488 215.056107,16.106956 209.066467,15.969168 
	C191.249985,15.559304 175.869980,31.257923 175.931534,49.065331 
	C176.119858,103.543861 175.894379,158.023804 176.073578,212.502396 
	C176.118652,226.210480 170.975723,237.797897 162.485199,247.846786 
	C149.626968,263.065094 133.154984,272.961029 113.750832,277.581818 
	C100.812752,280.662781 87.799660,280.869537 75.175056,275.934204 
	C61.713356,270.671631 51.844765,256.282898 54.756607,240.238312 
	C58.908855,217.358917 73.348846,202.864212 92.378693,192.058777 
	C101.577209,186.835709 111.954300,183.645599 121.004692,178.213654 
	C137.435806,168.351898 145.661652,152.335648 149.815414,134.314484 
	C151.825684,125.592888 152.626480,116.464066 152.865479,107.490082 
	C153.326569,90.175652 151.905884,72.754189 153.260406,55.534019 
	C155.216492,30.666016 137.641373,13.964166 113.672760,15.694690 
	C101.763016,16.554569 91.055389,19.166954 81.523926,26.006735 
	C77.994263,28.539616 75.361389,32.322201 71.850746,36.029942 
	C85.922142,40.442162 99.349945,57.493927 99.401146,74.102974 
	C99.459373,92.989006 86.727287,109.667656 69.147827,114.556183 
	C52.316433,119.236687 31.504507,110.907959 23.397934,96.001961 
	C16.588345,83.480797 17.253952,70.556137 20.313192,57.443733 
	C24.108873,41.174828 34.682793,30.290039 48.968052,22.505629 
	C62.050964,15.376406 75.912399,10.624261 90.844711,10.082269 
	C109.592377,9.401792 128.361115,9.215052 147.122879,9.035966 
	C163.781509,8.876955 180.442993,9.019531 197.892578,9.297489 
	C202.152435,10.028285 205.622925,10.490579 209.506485,10.960398 
	C215.629059,12.588536 221.338577,14.209149 227.048080,15.829763 
z"/>
<path fill="#F26722" opacity="1.000000" stroke="none" 
	d="
M227.406754,15.905966 
	C221.338577,14.209149 215.629059,12.588536 209.835541,10.729106 
	C218.533951,10.306368 227.316391,10.122447 236.098816,9.938526 
	C247.107422,9.633403 258.116028,9.328279 269.941864,9.302851 
	C271.574066,9.718868 272.388855,9.973256 273.204010,9.974230 
	C293.181488,9.998104 313.159027,10.010281 333.136414,9.961218 
	C334.413574,9.958081 335.689514,9.443218 336.966003,9.166412 
	C343.341034,9.119744 349.716034,9.073075 356.816559,9.344004 
	C359.920105,10.376402 362.426453,10.822941 364.640167,11.881418 
	C366.855988,12.940888 368.779449,14.611799 370.416992,16.008726 
	C368.267151,15.671004 366.544891,15.186098 364.793427,15.031572 
	C349.886444,13.716365 332.766998,25.201805 330.598083,42.404938 
	C330.240173,44.223957 330.015625,45.711304 330.015228,47.198708 
	C329.997772,112.528351 329.994202,177.857986 330.035126,243.187622 
	C330.036102,244.785446 330.557617,246.382950 330.905334,248.387650 
	C332.232147,252.594894 332.856750,256.774780 334.865417,260.124817 
	C341.147400,270.601593 351.242004,274.841125 363.355530,275.909546 
	C365.074097,276.031586 366.418549,276.119965 367.763031,276.208344 
	C367.823059,276.543976 367.883087,276.879608 367.943115,277.215271 
	C364.635345,278.422302 361.327576,279.629333 358.019806,280.836365 
	C349.996521,280.897552 341.973236,280.958710 333.057983,281.030701 
	C323.431061,279.308105 314.465790,278.316406 306.008087,275.690063 
	C287.234497,269.860352 271.879150,259.127808 263.939789,240.474747 
	C260.364380,232.074539 258.697571,222.861969 256.164764,214.017990 
	C256.118958,213.252441 256.073120,212.486893 256.307312,210.992157 
	C256.723663,209.280365 256.978790,208.297852 256.979248,207.315186 
	C257.000244,162.996552 257.006805,118.677902 256.965057,74.359299 
	C256.963684,72.915504 256.443207,71.472206 256.164703,70.028671 
	C255.684692,62.488430 256.018646,54.785969 254.554977,47.441765 
	C251.523117,32.228809 241.694229,22.217501 227.406754,15.905966 
z"/>
<path fill="#FECD08" opacity="1.000000" stroke="none" 
	d="
M358.483215,280.908508 
	C361.327576,279.629333 364.635345,278.422302 367.943115,277.215271 
	C367.883087,276.879608 367.823059,276.543976 367.763031,276.208344 
	C366.418549,276.119965 365.074097,276.031586 363.535461,275.575073 
	C376.865906,273.433563 387.991425,260.902039 387.994019,247.342224 
	C388.007141,178.780228 388.006592,110.218224 387.963165,41.656265 
	C387.962067,39.914520 387.515778,38.147747 387.099609,36.435795 
	C384.836304,27.125534 378.552582,20.991358 370.831055,16.014696 
	C368.779449,14.611799 366.855988,12.940888 364.640167,11.881418 
	C362.426453,10.822941 359.920105,10.376402 357.281860,9.412922 
	C382.354065,8.831216 405.514374,14.970432 425.707214,31.085798 
	C442.688751,44.638336 453.015289,62.180557 459.072388,82.714478 
	C463.059875,96.232338 465.608582,109.938789 466.000824,124.029678 
	C466.356018,136.788101 467.737640,149.628540 466.781281,162.290421 
	C464.638947,190.654755 455.530975,217.013977 438.385437,239.811920 
	C425.207397,257.334381 408.815643,271.396790 387.286102,278.373047 
	C377.961609,281.394470 368.472351,281.002319 358.483215,280.908508 
z"/>
<path fill="#FECD08" opacity="1.000000" stroke="none" 
	d="
M256.092651,214.481781 
	C258.697571,222.861969 260.364380,232.074539 263.939789,240.474747 
	C271.879150,259.127808 287.234497,269.860352 306.008087,275.690063 
	C314.465790,278.316406 323.431061,279.308105 332.593201,281.082733 
	C332.680176,302.533722 332.837799,323.967133 331.822021,345.344788 
	C331.162476,359.225891 327.851440,372.690125 317.999054,383.486816 
	C311.297058,390.831207 302.311737,393.654327 292.994293,393.832428 
	C267.690582,394.316132 242.371445,393.994995 217.058441,393.977997 
	C216.618271,393.977692 216.178238,393.790253 217.116333,394.003662 
	C222.803726,391.978607 229.970062,390.336853 236.224655,386.990845 
	C246.090866,381.712708 250.422134,371.798950 252.775452,361.561432 
	C254.773453,352.869598 255.791077,343.775482 255.863022,334.848236 
	C256.185181,294.882843 256.013763,254.913483 256.092651,214.481781 
z"/>
<path fill="#58585A" opacity="1.000000" stroke="none" 
	d="
M402.130432,449.026367 
	C405.939026,469.012512 397.975311,487.504486 377.720123,491.424774 
	C354.698822,495.880371 336.852386,483.607147 336.014526,458.871124 
	C335.521454,444.314301 340.355164,432.320648 354.246246,426.031555 
	C372.548767,417.745178 397.613403,424.259064 402.130432,449.026367 
M353.004974,463.334045 
	C353.518585,465.234222 353.847168,467.209198 354.579498,469.020966 
	C357.057953,475.152130 362.000366,478.447296 368.292938,478.845886 
	C374.508423,479.239594 380.074554,477.045990 383.275391,471.136047 
	C388.108185,462.212921 387.921570,453.067169 383.462677,444.156128 
	C380.399384,438.034149 374.608459,435.623230 368.153046,436.157074 
	C361.227844,436.729797 355.787415,440.491577 354.155212,447.531189 
	C353.038361,452.348206 353.327606,457.491241 353.004974,463.334045 
z"/>
<path fill="#58585A" opacity="1.000000" stroke="none" 
	d="
M250.182449,489.579895 
	C250.077103,467.677948 250.077103,446.230377 250.077103,424.000000 
	C255.856964,424.000000 261.283356,423.999878 266.709747,424.000000 
	C273.036713,424.000122 279.364014,423.961182 285.690613,424.010406 
	C293.814514,424.073639 300.225281,428.148804 302.046021,435.136444 
	C304.397919,444.162537 303.611420,452.857666 295.983459,456.633209 
	C295.430298,456.907013 295.066589,457.563538 294.300232,458.375366 
	C301.043488,461.195740 301.224274,467.369110 301.931091,473.104767 
	C302.649017,478.930817 302.876129,484.817322 303.342468,490.999695 
	C300.448334,490.999695 296.772888,490.710968 293.161560,491.069122 
	C288.091858,491.571869 286.893280,489.131073 286.914215,484.643799 
	C286.932587,480.705109 286.458984,476.718811 285.760071,472.833130 
	C284.802277,467.508392 280.978271,464.545654 274.755066,464.062897 
	C271.797119,463.833435 268.806610,464.023407 265.255585,464.023407 
	C265.255585,472.943024 265.255585,481.515320 265.255585,491.313721 
	C259.848053,490.851471 255.067932,490.442871 250.182449,489.579895 
M275.366943,437.000824 
	C272.090240,437.000824 268.813538,437.000824 265.306885,437.000824 
	C265.306885,442.245300 265.306885,446.809662 265.306885,451.878754 
	C270.711853,451.878754 275.839386,452.144745 280.923859,451.791473 
	C284.737976,451.526459 287.753693,449.077209 287.624878,445.186035 
	C287.545898,442.800354 285.883575,439.734161 283.947998,438.351013 
	C282.048706,436.993774 278.903625,437.379852 275.366943,437.000824 
z"/>
<path fill="#58585A" opacity="1.000000" stroke="none" 
	d="
M86.609299,490.365204 
	C86.286858,468.259644 86.286858,446.487976 86.286858,423.999817 
	C96.939423,423.999817 107.370750,423.985657 117.802025,424.003937 
	C127.455162,424.020874 134.713486,429.112610 137.147263,438.601959 
	C140.533249,451.804047 136.243469,463.491028 124.064850,467.315247 
	C121.160889,468.227142 117.840965,467.906128 114.708427,467.975983 
	C110.406967,468.071899 106.101761,468.000000 101.215820,468.000000 
	C101.215820,475.656494 101.215820,482.896606 101.215820,490.699127 
	C96.078606,490.699127 91.505173,490.699127 86.609299,490.365204 
M100.999992,446.486084 
	C100.999992,449.222839 100.999992,451.959564 100.999992,454.976379 
	C105.892990,454.976379 109.886673,455.200256 113.844887,454.921143 
	C119.089798,454.551300 121.823997,451.608734 121.997116,446.746490 
	C122.203697,440.944031 119.861237,437.689087 114.334969,437.140106 
	C110.110512,436.720398 105.810959,437.056671 100.999992,437.056671 
	C100.999992,440.284668 100.999992,442.900757 100.999992,446.486084 
z"/>
<path fill="#58585A" opacity="1.000000" stroke="none" 
	d="
M193.738220,445.589294 
	C196.935455,439.199768 199.790298,433.033661 203.101822,427.123474 
	C203.923279,425.657410 206.153900,424.310150 207.858719,424.141663 
	C212.135178,423.718933 216.481445,424.002014 221.622208,424.002014 
	C216.286102,434.195312 211.725403,444.207306 205.986755,453.491150 
	C200.623520,462.167694 197.892517,471.048187 198.952652,481.179352 
	C199.260986,484.125946 199.000000,487.132111 199.000000,490.554291 
	C193.980042,490.554291 189.299515,490.554291 184.000000,490.554291 
	C184.000000,485.445160 183.588058,480.458588 184.095108,475.567291 
	C184.885208,467.945618 181.591354,461.840179 178.122330,455.559296 
	C172.555466,445.480164 167.303345,435.227234 161.385620,424.040985 
	C167.298599,424.040985 172.210266,423.797699 177.068451,424.200104 
	C178.399567,424.310364 180.045120,426.126099 180.734848,427.551819 
	C184.236145,434.789215 187.470505,442.155731 191.093582,450.126465 
	C192.163864,448.298889 192.864182,447.103058 193.738220,445.589294 
z"/>
<path fill="#F68A1F" opacity="1.000000" stroke="none" 
	d="
M256.093933,70.490982 
	C256.443207,71.472206 256.963684,72.915504 256.965057,74.359299 
	C257.006805,118.677902 257.000244,162.996552 256.979248,207.315186 
	C256.978790,208.297852 256.723663,209.280365 256.375366,210.613312 
	C256.108948,183.394867 256.037750,155.826080 256.005768,128.257263 
	C255.983627,109.155968 256.015472,90.054619 256.093933,70.490982 
z"/>
<path fill="#F68A1F" opacity="1.000000" stroke="none" 
	d="
M336.504181,9.095896 
	C335.689514,9.443218 334.413574,9.958081 333.136414,9.961218 
	C313.159027,10.010281 293.181488,9.998104 273.204010,9.974230 
	C272.388855,9.973256 271.574066,9.718868 270.409088,9.374924 
	C292.053497,9.119993 314.047943,9.072688 336.504181,9.095896 
z"/>
<path fill="#F14E30" opacity="1.000000" stroke="none" 
	d="
M235.848297,9.581693 
	C227.316391,10.122447 218.533951,10.306368 209.422470,10.721581 
	C205.622925,10.490579 202.152435,10.028285 198.359131,9.365869 
	C210.556793,9.185450 223.077271,9.205154 235.848297,9.581693 
z"/>
<path fill="#000000" opacity="1.000000" stroke="none" 
	d="
M370.416992,16.008726 
	C378.552582,20.991358 384.836304,27.125534 387.099609,36.435795 
	C387.515778,38.147747 387.962067,39.914520 387.963165,41.656265 
	C388.006592,110.218224 388.007141,178.780228 387.994019,247.342224 
	C387.991425,260.902039 376.865906,273.433563 363.161377,275.541443 
	C351.242004,274.841125 341.147400,270.601593 334.865417,260.124817 
	C332.856750,256.774780 332.232147,252.594894 330.977478,247.923767 
	C330.987152,183.722717 330.997345,120.392563 330.992889,57.062416 
	C330.992554,52.066036 330.890686,47.069660 330.835968,42.073284 
	C332.766998,25.201805 349.886444,13.716365 364.793427,15.031572 
	C366.544891,15.186098 368.267151,15.671004 370.416992,16.008726 
z"/>
<path fill="#FDCD08" opacity="1.000000" stroke="none" 
	d="
M330.598083,42.404938 
	C330.890686,47.069660 330.992554,52.066036 330.992889,57.062416 
	C330.997345,120.392563 330.987152,183.722717 330.908539,247.516724 
	C330.557617,246.382950 330.036102,244.785446 330.035126,243.187622 
	C329.994202,177.857986 329.997772,112.528351 330.015228,47.198708 
	C330.015625,45.711304 330.240173,44.223957 330.598083,42.404938 
z"/>
<path fill="#000000" opacity="1.000000" stroke="none" 
	d="
M352.996613,462.911285 
	C353.327606,457.491241 353.038361,452.348206 354.155212,447.531189 
	C355.787415,440.491577 361.227844,436.729797 368.153046,436.157074 
	C374.608459,435.623230 380.399384,438.034149 383.462677,444.156128 
	C387.921570,453.067169 388.108185,462.212921 383.275391,471.136047 
	C380.074554,477.045990 374.508423,479.239594 368.292938,478.845886 
	C362.000366,478.447296 357.057953,475.152130 354.579498,469.020966 
	C353.847168,467.209198 353.518585,465.234222 352.996613,462.911285 
z"/>
<path fill="#000000" opacity="1.000000" stroke="none" 
	d="
M275.836121,437.000854 
	C278.903625,437.379852 282.048706,436.993774 283.947998,438.351013 
	C285.883575,439.734161 287.545898,442.800354 287.624878,445.186035 
	C287.753693,449.077209 284.737976,451.526459 280.923859,451.791473 
	C275.839386,452.144745 270.711853,451.878754 265.306885,451.878754 
	C265.306885,446.809662 265.306885,442.245300 265.306885,437.000824 
	C268.813538,437.000824 272.090240,437.000824 275.836121,437.000854 
z"/>
<path fill="#000000" opacity="1.000000" stroke="none" 
	d="
M100.999992,446.001465 
	C100.999992,442.900757 100.999992,440.284668 100.999992,437.056671 
	C105.810959,437.056671 110.110512,436.720398 114.334969,437.140106 
	C119.861237,437.689087 122.203697,440.944031 121.997116,446.746490 
	C121.823997,451.608734 119.089798,454.551300 113.844887,454.921143 
	C109.886673,455.200256 105.892990,454.976379 100.999992,454.976379 
	C100.999992,451.959564 100.999992,449.222839 100.999992,446.001465 
z"/>
</svg>