<svg version="1.1" id="Layer_1" xmlns="http://www.w3.org/2000/svg" xmlns:xlink="http://www.w3.org/1999/xlink" x="0px" y="0px"
	 width="100%" viewBox="0.999999 0.999999 599.906 153" enable-background="new 0 0 600 153" xml:space="preserve">
<path fill="#476F4C" opacity="1.000000" stroke="none" 
	d="
M71.000000,0.999999 
	C247.604019,1.000000 424.208038,1.000000 600.906006,1.000000 
	C600.906006,51.919117 600.906006,102.838463 600.906006,154.000000 
	C424.643402,154.000000 248.286713,154.000000 71.624405,153.697983 
	C73.871262,151.875336 76.423737,150.354706 79.309143,148.765198 
	C82.437401,146.843567 85.232727,144.990829 88.330719,143.074829 
	C89.118401,142.688416 89.603409,142.365280 90.055435,142.037521 
	C90.022446,142.032913 90.065300,142.083923 90.378456,141.927063 
	C95.495064,138.863892 100.298523,135.957581 105.457596,133.009125 
	C110.221146,130.350815 114.629066,127.734680 119.392136,125.052368 
	C122.933693,123.286079 126.109825,121.566330 129.309021,119.890602 
	C133.750214,117.564323 135.971664,114.135818 134.892700,108.527557 
	C134.966583,87.075111 134.846222,66.086037 135.100967,45.101521 
	C135.159546,40.275146 133.288010,37.348183 129.351257,35.128708 
	C120.164734,29.949528 110.980293,24.763544 101.881638,19.432476 
	C91.538567,13.372276 81.289780,7.151162 71.000000,0.999999 
M328.002808,37.501846 
	C328.009491,45.322124 328.118774,53.144276 327.976440,60.961842 
	C327.912140,64.492874 329.760620,65.035477 332.673187,65.023956 
	C335.466339,65.012924 337.119049,64.287796 337.003021,61.109070 
	C336.875671,57.619854 336.990601,54.121914 336.994293,50.627769 
	C336.998108,47.006165 336.995117,43.384552 336.995117,39.762943 
	C337.437012,39.728985 337.878906,39.695026 338.320801,39.661068 
	C341.081818,46.535126 343.794128,53.429352 346.628815,60.272900 
	C347.699707,62.858307 348.729095,65.304802 352.555054,65.085167 
	C356.109558,64.881111 356.857971,62.532108 357.852112,60.083748 
	C360.599487,53.317513 363.321777,46.541092 366.053986,39.768696 
	C367.007294,46.872440 367.138458,53.686771 366.953552,60.492516 
	C366.856995,64.046883 368.333527,65.074249 371.692322,65.052826 
	C374.967773,65.031929 376.049683,63.750645 376.022827,60.591816 
	C375.920959,48.612656 376.075104,36.630547 375.872253,24.653973 
	C375.846405,23.126781 374.291260,20.349072 373.424408,20.341070 
	C370.251526,20.311779 366.263397,18.171316 364.079193,22.418850 
	C362.871674,24.767015 361.945374,27.261169 360.917999,29.700333 
	C358.138214,36.300133 355.372131,42.905724 352.124664,50.642982 
	C347.811401,40.402889 344.080444,31.446541 340.265015,22.526312 
	C338.174774,17.639317 333.914764,20.629412 330.679565,20.323965 
	C329.930084,20.253206 328.282562,22.988203 328.137329,24.534403 
	C327.765564,28.493202 328.006775,32.509563 328.002808,37.501846 
M301.001923,54.479328 
	C301.015381,51.148865 301.043640,47.818375 301.038635,44.487938 
	C301.032196,40.215752 303.902863,38.323929 307.413605,38.386913 
	C310.802185,38.447712 313.126648,40.602772 313.021637,44.619289 
	C312.878052,50.110710 313.131042,55.612659 312.980316,61.103676 
	C312.866608,65.246246 315.568146,64.928955 318.315857,65.012077 
	C321.212585,65.099731 323.138794,64.523788 323.026520,60.971786 
	C322.853058,55.481659 323.277985,49.960171 322.888367,44.491928 
	C322.082733,33.184956 315.343994,27.881214 306.052155,30.856043 
	C304.578156,31.327950 303.113983,31.830513 300.957062,32.547756 
	C300.957062,29.331268 300.915863,26.692921 300.967255,24.056377 
	C301.034760,20.594614 298.917450,20.059469 296.061371,19.985115 
	C293.004974,19.905544 291.968933,21.214706 291.988342,24.152729 
	C292.068665,36.309017 292.083405,48.466709 291.976685,60.622608 
	C291.948639,63.817997 293.100922,65.020668 296.344513,65.055069 
	C299.756622,65.091270 301.325226,63.955029 301.016357,60.446503 
	C300.870911,58.794323 300.998199,57.118130 301.001923,54.479328 
M392.288818,51.100178 
	C397.953369,51.058285 403.628510,51.189075 409.274353,50.842411 
	C410.546173,50.764324 412.545258,49.194565 412.792084,48.014912 
	C414.007355,42.206631 410.124207,34.552715 405.114044,32.009022 
	C398.388672,28.594494 391.486450,29.819828 386.154022,34.193527 
	C379.546143,39.613346 380.110107,50.996468 382.165863,56.956577 
	C384.362793,63.325970 391.083252,66.558746 399.358154,65.964417 
	C406.779510,65.431396 410.764160,62.297741 412.573364,55.397388 
	C408.905884,55.110889 405.448822,52.572685 401.862244,56.937725 
	C400.614563,58.456196 395.881989,57.932888 393.121674,57.092213 
	C391.340973,56.549881 388.760315,54.119263 392.288818,51.100178 
M200.128586,40.020313 
	C200.106522,45.404251 198.957809,51.098785 200.335663,56.096783 
	C202.236633,62.992176 208.274078,65.850510 215.410416,65.997063 
	C222.027817,66.132957 227.419937,63.371929 230.025482,57.512337 
	C233.162277,50.457996 233.387039,42.897980 228.597610,36.199425 
	C222.346024,27.455910 206.119583,27.312374 200.128586,40.020313 
M520.604675,57.952953 
	C519.914001,57.527954 518.832947,57.254498 518.599182,56.652164 
	C517.487488,53.788139 515.291931,53.484314 512.926392,54.309509 
	C511.537292,54.794075 509.241119,56.426926 509.392090,56.924427 
	C510.023529,59.005135 510.965912,61.520733 512.628479,62.665371 
	C518.979187,67.037697 525.962036,67.272728 532.873596,64.018936 
	C537.051392,62.052120 538.676819,58.265644 538.328674,53.769135 
	C537.978210,49.243240 535.158203,46.630276 530.982056,45.448498 
	C528.605652,44.776005 526.063843,44.639332 523.742249,43.838638 
	C522.141357,43.286499 520.704041,42.103809 519.437134,40.938244 
	C519.279968,40.793636 520.465698,38.334316 521.300476,38.145164 
	C523.025635,37.754261 525.986450,37.466995 526.591370,38.372021 
	C529.886292,43.302109 533.804443,40.856411 537.759766,40.352493 
	C535.886047,31.798100 528.773132,28.350470 518.941162,30.845354 
	C512.995239,32.354134 509.200897,36.492081 509.346344,41.308998 
	C509.480469,45.751106 513.035400,49.488426 518.657715,50.959541 
	C521.049500,51.585346 523.582825,51.783253 525.867615,52.657219 
	C527.034058,53.103397 528.590698,54.670593 528.522217,55.627327 
	C528.447327,56.672489 526.847534,58.051983 525.637634,58.449635 
	C524.386230,58.860905 522.804871,58.268166 520.604675,57.952953 
M200.913895,25.291658 
	C201.103775,22.475128 201.203201,19.930864 197.093781,19.984940 
	C187.286270,20.113993 177.472488,19.907963 167.671188,20.186897 
	C166.432236,20.222155 164.149567,22.518782 164.293503,23.475300 
	C164.535416,25.082815 166.058655,27.002932 167.563614,27.770660 
	C169.024551,28.515944 171.159409,28.155743 172.965118,27.965670 
	C176.981354,27.542906 178.135803,29.374941 178.058655,33.174770 
	C177.873062,42.315117 178.125259,51.464108 177.959061,60.605213 
	C177.892349,64.273918 179.587967,65.054794 182.812027,65.052383 
	C186.105682,65.049919 188.152878,64.558441 188.059845,60.491970 
	C187.850754,51.352642 188.160782,42.201202 187.938019,33.062527 
	C187.841187,29.090302 189.310898,27.869591 193.147461,27.882460 
	C195.692017,27.890995 198.240372,26.764454 200.913895,25.291658 
M256.095459,45.003151 
	C256.406433,48.448914 256.265564,52.011791 257.121979,55.316181 
	C258.933716,62.306511 266.133209,66.559975 274.255524,65.966011 
	C282.065826,65.394852 286.469452,61.393131 287.498047,53.697002 
	C283.716370,52.607273 280.458527,52.329079 277.283264,55.827755 
	C275.981537,57.262062 272.561462,58.069702 270.694519,57.433250 
	C266.428162,55.978794 265.209686,51.724571 265.262878,47.693447 
	C265.313904,43.825497 266.757477,39.896984 270.779999,38.417824 
	C274.441223,37.071537 277.115692,39.212730 278.908447,42.431763 
	C278.988220,42.575043 279.102600,42.794579 279.219757,42.807522 
	C281.755280,43.087612 284.293457,43.343327 286.831146,43.603748 
	C286.682587,41.680840 287.230804,39.211411 286.240448,37.948792 
	C284.178528,35.320030 281.661865,32.445332 278.694855,31.239206 
	C268.795685,27.215057 259.660645,32.723335 256.095459,45.003151 
M478.418488,59.991859 
	C481.551300,61.924610 484.457458,64.669434 487.864319,65.620308 
	C494.859039,67.572594 502.489502,64.091072 505.018402,58.731239 
	C506.896057,54.751652 505.950409,52.886074 501.732269,53.141529 
	C499.967896,53.248383 497.920929,54.316292 496.636902,55.587910 
	C493.720520,58.476093 489.135284,58.834900 486.492462,55.932671 
	C482.959961,52.053543 483.219604,43.341351 486.972748,39.816589 
	C489.932648,37.036812 494.934265,37.447857 496.759644,41.158829 
	C498.790222,45.286907 501.880890,43.768589 504.860046,43.573174 
	C504.677704,40.995594 505.403809,37.805222 504.151794,35.949173 
	C499.364685,28.852415 486.887421,27.983505 480.657349,33.851307 
	C473.867767,40.246105 472.822632,50.092999 478.418488,59.991859 
M418.988678,27.383139 
	C418.160645,28.586525 417.336151,29.792393 416.503540,30.992598 
	C415.680634,32.178776 414.316803,33.304096 414.186890,34.559280 
	C414.078857,35.603012 415.398621,36.808277 416.118988,37.920609 
	C417.058228,39.370953 418.735931,40.743744 418.856354,42.249043 
	C419.226562,46.877182 419.021393,51.552597 419.011749,56.209583 
	C418.994873,64.351036 425.392273,66.353676 431.659241,65.693993 
	C432.862335,65.567352 434.580109,63.442368 434.718811,62.100597 
	C434.847717,60.853111 433.414642,58.528484 432.270203,58.235229 
	C428.706879,57.322124 427.939362,55.076900 427.993164,51.949463 
	C428.047546,48.790257 428.069000,45.627827 427.988312,42.469784 
	C427.920685,39.822990 428.439209,38.086864 431.691925,37.818279 
	C432.853973,37.722321 434.669983,35.780403 434.712250,34.626995 
	C434.754761,33.466908 433.052246,31.325264 431.956451,31.217323 
	C428.962555,30.922407 428.134766,29.668701 427.820984,26.842501 
	C427.669373,25.476410 425.922760,23.501871 424.599121,23.222998 
	C422.208130,22.719250 418.911499,22.186478 418.988678,27.383139 
M236.004501,40.562454 
	C236.011444,47.377125 236.126877,54.194118 235.980927,61.005516 
	C235.904602,64.567673 237.842117,65.018463 240.712814,65.022774 
	C243.535690,65.027008 245.086136,64.220421 245.007980,61.077351 
	C244.888184,56.260540 245.019577,51.437954 245.003799,46.617950 
	C244.988968,42.083305 247.021393,39.525795 251.697479,39.004356 
	C253.114975,38.846283 255.375046,38.024792 255.601120,37.102982 
	C256.079987,35.150410 256.078247,32.546490 255.075348,30.973824 
	C254.517120,30.098471 251.442963,30.359074 249.695648,30.827538 
	C247.444168,31.431164 245.758423,32.314873 243.014877,31.316362 
	C237.930435,29.465881 236.095291,31.250008 236.009583,36.594494 
	C235.993607,37.591530 236.005508,38.589008 236.004501,40.562454 
M440.875824,64.784950 
	C447.962860,65.187042 447.967285,65.187057 447.995148,58.436119 
	C448.013702,53.944324 447.484650,49.358730 448.251678,45.000092 
	C448.636719,42.812111 451.040253,39.870182 453.099121,39.291840 
	C459.528809,37.485722 460.004089,37.240685 458.026855,30.126947 
	C456.843781,30.126947 455.534973,30.044798 454.239807,30.143045 
	C450.954315,30.392279 447.657410,31.086040 444.397614,30.928440 
	C440.285156,30.729612 438.759277,32.129875 438.936371,36.310883 
	C439.210663,42.787529 438.900848,49.286911 439.052277,55.771664 
	C439.120148,58.678902 439.705078,61.574070 440.875824,64.784950 
M470.827576,33.032089 
	C468.503082,32.429150 466.183502,31.490770 463.850677,31.456556 
	C463.259399,31.447886 462.129120,34.308544 462.094940,35.869316 
	C461.916840,44.003429 462.106781,52.145161 461.967133,60.280781 
	C461.910370,63.586491 462.897552,65.072739 466.481598,65.069717 
	C470.013306,65.066734 471.104858,63.699047 471.043427,60.337448 
	C470.882568,51.538063 470.957489,42.734367 470.827576,33.032089 
M423.004852,109.516838 
	C423.005249,112.341530 422.670593,115.219704 423.110291,117.974274 
	C423.473083,120.247185 424.752319,122.373802 425.625427,124.565247 
	C426.417267,122.293381 427.424469,120.068184 427.930237,117.734329 
	C428.309418,115.984535 427.551666,113.894844 428.192566,112.319572 
	C428.948395,110.461746 430.666077,108.995239 431.966766,107.359093 
	C433.289215,108.973129 435.333557,110.415596 435.767365,112.240829 
	C436.442352,115.080940 435.816345,118.205727 436.167511,121.159241 
	C436.310242,122.359634 437.568817,123.427361 438.319672,124.555466 
	C439.194580,123.385101 440.730255,122.263016 440.820007,121.035278 
	C441.084808,117.411133 441.068970,113.708969 440.620972,110.104691 
	C440.052185,105.528885 437.221863,102.872375 432.461700,103.178230 
	C429.652679,103.358719 428.036133,102.835342 427.752930,99.696365 
	C427.679565,98.883118 426.344574,98.183701 425.589081,97.432007 
	C424.773621,98.308945 423.376953,99.111168 423.252808,100.076988 
	C422.895050,102.859879 423.050812,105.708778 423.004852,109.516838 
M240.335876,124.552696 
	C244.527313,125.520859 246.238312,123.758766 246.010956,119.582420 
	C245.848236,116.593376 246.075821,113.579971 245.853302,110.598038 
	C245.542023,106.426392 243.216278,103.770012 239.031555,103.210617 
	C234.960617,102.666428 231.532578,103.748253 230.088516,108.685341 
	C232.161270,108.699249 233.983139,107.750916 235.877106,107.573868 
	C237.276581,107.443047 238.769989,108.317322 240.221542,108.743797 
	C239.285736,109.693733 238.499130,110.927246 237.374786,111.518814 
	C236.091370,112.194077 234.057739,111.843887 233.148026,112.744911 
	C231.299805,114.575455 228.329590,117.520149 228.829117,118.968262 
	C229.660339,121.377907 232.693237,123.232109 235.139740,124.782455 
	C236.151962,125.423904 238.043579,124.677605 240.335876,124.552696 
M218.742706,120.406807 
	C214.860443,121.369568 212.392578,120.299774 211.875076,114.986931 
	C214.988525,114.986931 217.739960,115.043816 220.488235,114.974747 
	C225.717697,114.843307 227.375778,112.496674 224.591599,108.191040 
	C223.151947,105.964699 220.295959,104.010811 217.709061,103.317581 
	C213.630829,102.224724 210.357529,104.275558 208.419662,108.209373 
	C206.045609,113.028618 206.545654,118.966576 209.803482,122.158134 
	C213.172379,125.458511 217.265564,125.815758 221.300903,124.018013 
	C222.716522,123.387352 223.419250,121.156464 224.447495,119.656281 
	C222.767487,119.803535 221.087479,119.950790 218.742706,120.406807 
M475.965851,112.867004 
	C474.947205,103.991302 474.379639,103.674797 460.046600,103.989677 
	C457.857178,110.343338 458.621521,122.056290 462.475220,125.161919 
	C462.691925,120.390297 462.511505,116.345146 463.210632,112.458214 
	C463.544281,110.603348 465.548767,109.049026 466.796417,107.358574 
	C468.179474,109.079994 469.916351,110.635948 470.825104,112.579170 
	C471.465118,113.947678 470.779633,115.875046 471.043396,117.494682 
	C471.449280,119.986893 469.488434,123.635040 473.668396,124.231483 
	C474.103424,124.293556 475.307587,119.721581 475.947052,117.246033 
	C476.228180,116.157555 475.987701,114.934349 475.965851,112.867004 
M493.025787,113.924805 
	C493.207367,110.466232 494.368591,107.024338 498.251678,107.696617 
	C499.823120,107.968674 501.168243,111.804962 501.858582,114.234634 
	C502.471649,116.392281 501.870514,118.866692 502.132172,121.164047 
	C502.267883,122.355141 503.111786,123.465561 503.635742,124.612427 
	C504.112793,124.498665 504.589844,124.384911 505.066895,124.271149 
	C506.414459,118.428131 507.198364,112.360649 504.593994,106.747673 
	C503.719269,104.862488 500.123627,104.017494 497.607056,103.209984 
	C496.344635,102.804909 494.597961,104.016571 493.269775,103.688721 
	C489.380096,102.728584 489.042572,105.019791 489.028290,107.793556 
	C489.006927,111.944191 488.925507,116.098701 489.079346,120.243774 
	C489.132538,121.676712 489.811737,123.086426 490.204987,124.506744 
	C490.905365,124.479950 491.605713,124.453156 492.306061,124.426361 
	C492.539612,121.220909 492.773132,118.015457 493.025787,113.924805 
M375.741394,99.409424 
	C373.217957,95.926292 372.295593,98.079758 372.147888,100.638962 
	C371.889709,105.112579 372.013824,109.609291 372.009735,114.096352 
	C371.999542,125.264763 372.010742,125.362457 383.171234,124.907562 
	C384.962524,124.834549 386.700134,123.444946 388.462555,122.663971 
	C386.733795,121.778641 385.033203,120.829727 383.259796,120.045303 
	C382.700745,119.797997 381.943146,119.942604 381.282562,119.991318 
	C377.435699,120.275017 375.874084,118.476105 375.969208,114.667664 
	C376.089447,109.852699 375.924225,105.030609 375.741394,99.409424 
M252.315765,121.908920 
	C253.006577,122.605560 253.602844,123.727158 254.408722,123.906433 
	C255.884171,124.234642 257.483429,124.006226 259.031067,124.009926 
	C258.530945,122.798866 258.008820,121.596313 257.536530,120.374496 
	C257.013580,119.021561 255.998123,117.592285 256.139282,116.299095 
	C256.572754,112.328255 257.456940,108.406631 258.165955,104.465874 
	C258.315979,103.318092 256.910217,102.299095 256.145050,100.923714 
	C254.105469,97.257477 252.761261,98.354393 250.953522,101.157280 
	C249.372177,103.609138 248.582596,105.238358 250.172928,108.533920 
	C251.935440,112.186310 251.478943,116.909531 252.315765,121.908920 
M451.001862,112.642494 
	C451.967010,110.009964 452.932159,107.377434 454.085571,104.231361 
	C452.660339,102.636765 450.759125,100.509644 448.285583,97.742203 
	C446.653015,101.621613 441.379425,103.429375 445.404022,108.600128 
	C446.340912,109.803886 445.789154,112.134560 446.008667,113.936211 
	C446.307312,116.387657 446.234192,119.015198 447.141510,121.231033 
	C448.501648,124.552650 451.035950,125.920723 453.914856,123.995865 
	C452.845154,120.150520 451.921844,116.831383 451.001862,112.642494 
M198.996872,116.575195 
	C197.761078,110.802994 201.390320,107.624519 206.228165,105.118645 
	C198.996185,101.026321 195.063812,102.906265 195.012177,109.599846 
	C194.985275,113.087997 194.877350,116.584846 195.084564,120.061172 
	C195.175461,121.586151 195.962265,123.069649 196.433090,124.571983 
	C197.064346,124.514816 197.695618,124.457657 198.326874,124.400490 
	C198.549805,122.092957 198.772736,119.785423 198.996872,116.575195 
M569.047974,101.047455 
	C569.033447,105.019859 568.810547,109.005615 569.063965,112.960854 
	C569.308960,116.786514 567.745911,121.012276 570.694824,124.725868 
	C571.570801,124.081085 572.278870,123.807999 572.285583,123.518723 
	C572.471680,115.453415 572.618225,107.386566 572.640869,99.319595 
	C572.642334,98.795593 571.601196,98.268677 571.045105,97.743126 
	C570.401794,98.565567 569.758423,99.388000 569.047974,101.047455 
M483.762970,123.908096 
	C484.085083,117.904701 484.506897,111.902916 484.603912,105.895874 
	C484.616119,105.139931 482.918060,104.356377 482.012421,103.585617 
	C481.382050,104.443840 480.233398,105.286087 480.206360,106.162910 
	C480.043823,111.437393 480.011139,116.726318 480.280304,121.992767 
	C480.322174,122.812851 482.134277,123.542480 483.762970,123.908096 
M392.004425,117.348358 
	C392.281189,119.722290 392.557953,122.096230 392.956909,125.518150 
	C397.066772,120.709236 396.861938,106.493675 392.332611,102.519493 
	C392.205444,107.893845 392.104767,112.147491 392.004425,117.348358 
M468.696442,17.900574 
	C466.407593,18.559937 463.759338,18.744579 461.987122,20.086283 
	C461.147095,20.722229 461.271820,24.305361 462.232880,25.230625 
	C463.478973,26.430342 466.121552,26.966616 467.937653,26.617241 
	C471.324249,25.965746 471.838959,22.154314 468.696442,17.900574 
z"/>
<path fill="#782FE5" opacity="1.000000" stroke="none" 
	d="
M70.562500,0.999999 
	C81.289780,7.151162 91.538567,13.372276 101.881638,19.432476 
	C110.980293,24.763544 120.164734,29.949528 129.351257,35.128708 
	C133.288010,37.348183 135.159546,40.275146 135.100967,45.101521 
	C134.846222,66.086037 134.966583,87.075111 134.621536,108.350533 
	C122.808197,95.556770 111.364616,82.438736 99.774048,69.451889 
	C98.670097,68.214943 96.647148,67.798195 94.966667,66.538467 
	C94.861458,59.270580 95.116402,52.445518 94.640633,45.671780 
	C94.508690,43.793190 92.433846,40.825420 90.853325,40.537567 
	C87.859161,39.992249 86.911430,42.711357 86.951813,45.543190 
	C86.987244,48.027542 86.844604,50.514435 86.421097,52.977009 
	C84.613647,52.269985 82.809875,51.925781 81.778130,50.844757 
	C76.765335,45.592476 72.116959,39.988682 67.042480,34.799873 
	C59.792210,27.386242 52.283669,20.225195 45.083767,12.668419 
	C51.521404,8.587040 57.760704,4.793520 64.000000,1.000000 
	C66.041664,1.000000 68.083336,1.000000 70.562500,0.999999 
z"/>
<path fill="#6354EB" opacity="1.000000" stroke="none" 
	d="
M78.976204,148.834076 
	C76.423737,150.354706 73.871262,151.875336 71.159393,153.697983 
	C69.933327,154.000000 68.866661,154.000000 67.350952,153.646454 
	C66.327896,152.114502 65.985840,150.727615 65.143448,149.790466 
	C57.917927,141.752014 50.635731,133.763672 43.304070,125.821671 
	C34.731293,116.535225 26.240900,107.165131 17.424656,98.113907 
	C12.241090,92.792183 6.493759,88.019585 1.000000,83.000000 
	C1.000000,75.312424 1.000000,67.624847 1.323865,59.574120 
	C3.091467,60.300884 4.732507,61.206734 5.947956,62.509617 
	C16.353088,73.663284 26.681139,84.888863 37.029915,96.456665 
	C38.016159,98.521523 39.004726,100.222656 40.097618,102.254723 
	C40.917629,103.687134 41.496269,104.913658 42.369816,105.871109 
	C53.274921,117.823578 64.290314,129.676468 75.091751,141.721420 
	C76.847328,143.679108 77.704025,146.442886 78.976204,148.834076 
z"/>
<path fill="#5F5AED" opacity="1.000000" stroke="none" 
	d="
M1.000000,83.468658 
	C6.493759,88.019585 12.241090,92.792183 17.424656,98.113907 
	C26.240900,107.165131 34.731293,116.535225 43.304070,125.821671 
	C50.635731,133.763672 57.917927,141.752014 65.143448,149.790466 
	C65.985840,150.727615 66.327896,152.114502 66.950958,153.646454 
	C66.250000,154.000000 65.500000,154.000000 64.213066,153.696594 
	C49.514133,145.134079 35.313450,136.940292 21.206812,128.587662 
	C14.380152,124.545563 7.730044,120.205276 0.999999,116.000000 
	C1.000000,105.312439 1.000000,94.624878 1.000000,83.468658 
z"/>
<path fill="#694DEA" opacity="1.000000" stroke="none" 
	d="
M37.032238,96.092941 
	C26.681139,84.888863 16.353088,73.663284 5.947956,62.509617 
	C4.732507,61.206734 3.091467,60.300884 1.323865,59.105484 
	C1.000000,52.312355 1.000000,45.624710 1.301797,38.358952 
	C2.688004,37.173500 3.772414,36.566162 5.055189,35.837616 
	C5.514482,35.547283 5.763094,35.361652 6.251019,35.123611 
	C6.670008,35.114239 6.837368,35.140789 7.155710,35.451332 
	C8.094207,36.575706 8.887734,37.410545 9.668328,38.257309 
	C20.187586,49.668255 30.705048,61.080856 41.137623,72.922302 
	C40.992344,77.617073 40.634674,81.911247 41.041119,86.131844 
	C41.175312,87.525269 43.281742,88.728760 44.486389,90.019089 
	C45.771488,88.808891 47.512264,87.814247 48.215015,86.328590 
	C48.934471,84.807625 48.637043,82.805664 49.101734,81.143959 
	C51.571793,82.514755 53.724834,83.755829 55.961971,85.363541 
	C56.272736,88.810921 58.050362,90.166847 61.015087,90.560715 
	C61.010696,91.882240 61.008411,92.843315 60.541706,93.873848 
	C54.316463,93.953331 48.547100,93.788841 42.799564,94.070236 
	C40.848789,94.165741 38.953102,95.386421 37.032238,96.092941 
z"/>
<path fill="#47704C" opacity="1.000000" stroke="none" 
	d="
M4.856826,35.958824 
	C3.772414,36.566162 2.688004,37.173500 1.301797,37.890419 
	C1.000000,25.720875 1.000000,13.441751 1.000000,1.000000 
	C21.687307,1.000000 42.374996,1.000000 63.531342,1.000000 
	C57.760704,4.793520 51.521404,8.587040 44.772919,12.821758 
	C39.171238,16.229557 34.078751,19.196154 28.649586,22.234356 
	C21.210184,26.593084 14.107456,30.880211 7.004728,35.167336 
	C6.837368,35.140789 6.670008,35.114239 5.995713,35.135532 
	C5.278128,35.441860 5.067478,35.700344 4.856826,35.958824 
z"/>
<path fill="#47704C" opacity="1.000000" stroke="none" 
	d="
M0.999999,116.468658 
	C7.730044,120.205276 14.380152,124.545563 21.206812,128.587662 
	C35.313450,136.940292 49.514133,145.134079 63.838066,153.696594 
	C43.091377,154.000000 22.182753,154.000000 1.000000,154.000000 
	C1.000000,141.647125 1.000000,129.292221 0.999999,116.468658 
z"/>
<path fill="#1B1B1C" opacity="1.000000" stroke="none" 
	d="
M328.002808,37.002377 
	C328.006775,32.509563 327.765564,28.493202 328.137329,24.534403 
	C328.282562,22.988203 329.930084,20.253206 330.679565,20.323965 
	C333.914764,20.629412 338.174774,17.639317 340.265015,22.526312 
	C344.080444,31.446541 347.811401,40.402889 352.124664,50.642982 
	C355.372131,42.905724 358.138214,36.300133 360.917999,29.700333 
	C361.945374,27.261169 362.871674,24.767015 364.079193,22.418850 
	C366.263397,18.171316 370.251526,20.311779 373.424408,20.341070 
	C374.291260,20.349072 375.846405,23.126781 375.872253,24.653973 
	C376.075104,36.630547 375.920959,48.612656 376.022827,60.591816 
	C376.049683,63.750645 374.967773,65.031929 371.692322,65.052826 
	C368.333527,65.074249 366.856995,64.046883 366.953552,60.492516 
	C367.138458,53.686771 367.007294,46.872440 366.053986,39.768696 
	C363.321777,46.541092 360.599487,53.317513 357.852112,60.083748 
	C356.857971,62.532108 356.109558,64.881111 352.555054,65.085167 
	C348.729095,65.304802 347.699707,62.858307 346.628815,60.272900 
	C343.794128,53.429352 341.081818,46.535126 338.320801,39.661068 
	C337.878906,39.695026 337.437012,39.728985 336.995117,39.762943 
	C336.995117,43.384552 336.998108,47.006165 336.994293,50.627769 
	C336.990601,54.121914 336.875671,57.619854 337.003021,61.109070 
	C337.119049,64.287796 335.466339,65.012924 332.673187,65.023956 
	C329.760620,65.035477 327.912140,64.492874 327.976440,60.961842 
	C328.118774,53.144276 328.009491,45.322124 328.002808,37.002377 
z"/>
<path fill="#7337E7" opacity="1.000000" stroke="none" 
	d="
M95.050842,67.000671 
	C96.647148,67.798195 98.670097,68.214943 99.774048,69.451889 
	C111.364616,82.438736 122.808197,95.556770 134.563599,108.815559 
	C135.971664,114.135818 133.750214,117.564323 129.309021,119.890602 
	C126.109825,121.566330 122.933693,123.286079 119.343445,124.678986 
	C116.809418,120.931587 114.999321,117.233047 112.477798,114.108665 
	C108.150085,108.746216 103.378128,103.742294 98.709625,98.289375 
	C97.753975,96.647942 96.881378,95.304977 95.893311,93.599884 
	C94.904503,92.017937 94.031174,90.798126 93.412666,89.253723 
	C94.055229,87.039154 94.705193,85.159584 94.780869,83.257179 
	C94.996231,77.843330 94.977463,72.420166 95.050842,67.000671 
z"/>
<path fill="#1B1B1C" opacity="1.000000" stroke="none" 
	d="
M301.001892,54.966072 
	C300.998199,57.118130 300.870911,58.794323 301.016357,60.446503 
	C301.325226,63.955029 299.756622,65.091270 296.344513,65.055069 
	C293.100922,65.020668 291.948639,63.817997 291.976685,60.622608 
	C292.083405,48.466709 292.068665,36.309017 291.988342,24.152729 
	C291.968933,21.214706 293.004974,19.905544 296.061371,19.985115 
	C298.917450,20.059469 301.034760,20.594614 300.967255,24.056377 
	C300.915863,26.692921 300.957062,29.331268 300.957062,32.547756 
	C303.113983,31.830513 304.578156,31.327950 306.052155,30.856043 
	C315.343994,27.881214 322.082733,33.184956 322.888367,44.491928 
	C323.277985,49.960171 322.853058,55.481659 323.026520,60.971786 
	C323.138794,64.523788 321.212585,65.099731 318.315857,65.012077 
	C315.568146,64.928955 312.866608,65.246246 312.980316,61.103676 
	C313.131042,55.612659 312.878052,50.110710 313.021637,44.619289 
	C313.126648,40.602772 310.802185,38.447712 307.413605,38.386913 
	C303.902863,38.323929 301.032196,40.215752 301.038635,44.487938 
	C301.043640,47.818375 301.015381,51.148865 301.001892,54.966072 
z"/>
<path fill="#1B1B1B" opacity="1.000000" stroke="none" 
	d="
M391.886963,51.179749 
	C388.760315,54.119263 391.340973,56.549881 393.121674,57.092213 
	C395.881989,57.932888 400.614563,58.456196 401.862244,56.937725 
	C405.448822,52.572685 408.905884,55.110889 412.573364,55.397388 
	C410.764160,62.297741 406.779510,65.431396 399.358154,65.964417 
	C391.083252,66.558746 384.362793,63.325970 382.165863,56.956577 
	C380.110107,50.996468 379.546143,39.613346 386.154022,34.193527 
	C391.486450,29.819828 398.388672,28.594494 405.114044,32.009022 
	C410.124207,34.552715 414.007355,42.206631 412.792084,48.014912 
	C412.545258,49.194565 410.546173,50.764324 409.274353,50.842411 
	C403.628510,51.189075 397.953369,51.058285 391.886963,51.179749 
M398.296509,43.999317 
	C399.995392,43.862637 401.694305,43.725960 403.513458,43.579605 
	C402.795258,38.983849 400.029266,37.992809 396.634491,38.105247 
	C393.414215,38.211903 390.964630,39.434807 390.534119,44.000008 
	C392.989288,44.000008 395.210541,44.000008 398.296509,43.999317 
z"/>
<path fill="#1B1B1C" opacity="1.000000" stroke="none" 
	d="
M200.263580,39.647331 
	C206.119583,27.312374 222.346024,27.455910 228.597610,36.199425 
	C233.387039,42.897980 233.162277,50.457996 230.025482,57.512337 
	C227.419937,63.371929 222.027817,66.132957 215.410416,65.997063 
	C208.274078,65.850510 202.236633,62.992176 200.335663,56.096783 
	C198.957809,51.098785 200.106522,45.404251 200.263580,39.647331 
M208.787170,52.376759 
	C210.176147,55.185390 211.282516,58.589928 215.346085,57.874237 
	C217.241928,57.540333 219.673889,56.639244 220.616501,55.186531 
	C223.360718,50.957359 223.787567,46.302639 221.200455,41.622986 
	C218.681641,37.066822 212.223221,36.553738 210.071884,41.236633 
	C208.656616,44.317307 208.896423,48.158325 208.787170,52.376759 
z"/>
<path fill="#664EEB" opacity="1.000000" stroke="none" 
	d="
M79.309143,148.765198 
	C77.704025,146.442886 76.847328,143.679108 75.091751,141.721420 
	C64.290314,129.676468 53.274921,117.823578 42.369816,105.871109 
	C41.496269,104.913658 40.917629,103.687134 40.563103,102.198090 
	C46.283108,101.878258 51.641956,101.945992 57.107021,102.337158 
	C57.841782,103.628807 58.346260,104.711494 59.117840,105.547722 
	C67.900322,115.066093 76.821602,124.459015 85.462776,134.103210 
	C87.468102,136.341309 88.555519,139.401825 90.065300,142.083923 
	C90.065300,142.083923 90.022446,142.032913 89.776627,142.132431 
	C89.029900,142.533997 88.528976,142.836044 88.028053,143.138077 
	C85.232727,144.990829 82.437401,146.843567 79.309143,148.765198 
z"/>
<path fill="#6948EA" opacity="1.000000" stroke="none" 
	d="
M90.378456,141.927063 
	C88.555519,139.401825 87.468102,136.341309 85.462776,134.103210 
	C76.821602,124.459015 67.900322,115.066093 59.117840,105.547722 
	C58.346260,104.711494 57.841782,103.628807 57.568054,102.248276 
	C64.281265,101.894554 70.639671,101.953156 77.105286,102.337463 
	C83.065819,109.532608 88.795761,116.512817 94.822899,123.226204 
	C97.980103,126.742867 101.658798,129.791367 105.101974,133.051285 
	C100.298523,135.957581 95.495064,138.863892 90.378456,141.927063 
z"/>
<path fill="#6E42E9" opacity="1.000000" stroke="none" 
	d="
M105.457596,133.009125 
	C101.658798,129.791367 97.980103,126.742867 94.822899,123.226204 
	C88.795761,116.512817 83.065819,109.532608 77.566528,102.248367 
	C82.842522,101.811012 87.794479,102.096848 92.672546,101.622635 
	C94.790909,101.416702 96.757271,99.647194 98.792679,98.587860 
	C103.378128,103.742294 108.150085,108.746216 112.477798,114.108665 
	C114.999321,117.233047 116.809418,120.931587 118.988312,124.745163 
	C114.629066,127.734680 110.221146,130.350815 105.457596,133.009125 
z"/>
<path fill="#1B1B1B" opacity="1.000000" stroke="none" 
	d="
M520.986267,58.033787 
	C522.804871,58.268166 524.386230,58.860905 525.637634,58.449635 
	C526.847534,58.051983 528.447327,56.672489 528.522217,55.627327 
	C528.590698,54.670593 527.034058,53.103397 525.867615,52.657219 
	C523.582825,51.783253 521.049500,51.585346 518.657715,50.959541 
	C513.035400,49.488426 509.480469,45.751106 509.346344,41.308998 
	C509.200897,36.492081 512.995239,32.354134 518.941162,30.845354 
	C528.773132,28.350470 535.886047,31.798100 537.759766,40.352493 
	C533.804443,40.856411 529.886292,43.302109 526.591370,38.372021 
	C525.986450,37.466995 523.025635,37.754261 521.300476,38.145164 
	C520.465698,38.334316 519.279968,40.793636 519.437134,40.938244 
	C520.704041,42.103809 522.141357,43.286499 523.742249,43.838638 
	C526.063843,44.639332 528.605652,44.776005 530.982056,45.448498 
	C535.158203,46.630276 537.978210,49.243240 538.328674,53.769135 
	C538.676819,58.265644 537.051392,62.052120 532.873596,64.018936 
	C525.962036,67.272728 518.979187,67.037697 512.628479,62.665371 
	C510.965912,61.520733 510.023529,59.005135 509.392090,56.924427 
	C509.241119,56.426926 511.537292,54.794075 512.926392,54.309509 
	C515.291931,53.484314 517.487488,53.788139 518.599182,56.652164 
	C518.832947,57.254498 519.914001,57.527954 520.986267,58.033787 
z"/>
<path fill="#1C1C1C" opacity="1.000000" stroke="none" 
	d="
M200.850464,25.718843 
	C198.240372,26.764454 195.692017,27.890995 193.147461,27.882460 
	C189.310898,27.869591 187.841187,29.090302 187.938019,33.062527 
	C188.160782,42.201202 187.850754,51.352642 188.059845,60.491970 
	C188.152878,64.558441 186.105682,65.049919 182.812027,65.052383 
	C179.587967,65.054794 177.892349,64.273918 177.959061,60.605213 
	C178.125259,51.464108 177.873062,42.315117 178.058655,33.174770 
	C178.135803,29.374941 176.981354,27.542906 172.965118,27.965670 
	C171.159409,28.155743 169.024551,28.515944 167.563614,27.770660 
	C166.058655,27.002932 164.535416,25.082815 164.293503,23.475300 
	C164.149567,22.518782 166.432236,20.222155 167.671188,20.186897 
	C177.472488,19.907963 187.286270,20.113993 197.093781,19.984940 
	C201.203201,19.930864 201.103775,22.475128 200.850464,25.718843 
z"/>
<path fill="#1B1B1C" opacity="1.000000" stroke="none" 
	d="
M256.163330,44.582989 
	C259.660645,32.723335 268.795685,27.215057 278.694855,31.239206 
	C281.661865,32.445332 284.178528,35.320030 286.240448,37.948792 
	C287.230804,39.211411 286.682587,41.680840 286.831146,43.603748 
	C284.293457,43.343327 281.755280,43.087612 279.219757,42.807522 
	C279.102600,42.794579 278.988220,42.575043 278.908447,42.431763 
	C277.115692,39.212730 274.441223,37.071537 270.779999,38.417824 
	C266.757477,39.896984 265.313904,43.825497 265.262878,47.693447 
	C265.209686,51.724571 266.428162,55.978794 270.694519,57.433250 
	C272.561462,58.069702 275.981537,57.262062 277.283264,55.827755 
	C280.458527,52.329079 283.716370,52.607273 287.498047,53.697002 
	C286.469452,61.393131 282.065826,65.394852 274.255524,65.966011 
	C266.133209,66.559975 258.933716,62.306511 257.121979,55.316181 
	C256.265564,52.011791 256.406433,48.448914 256.163330,44.582989 
z"/>
<path fill="#1B1B1C" opacity="1.000000" stroke="none" 
	d="
M478.182068,59.696426 
	C472.822632,50.092999 473.867767,40.246105 480.657349,33.851307 
	C486.887421,27.983505 499.364685,28.852415 504.151794,35.949173 
	C505.403809,37.805222 504.677704,40.995594 504.860046,43.573174 
	C501.880890,43.768589 498.790222,45.286907 496.759644,41.158829 
	C494.934265,37.447857 489.932648,37.036812 486.972748,39.816589 
	C483.219604,43.341351 482.959961,52.053543 486.492462,55.932671 
	C489.135284,58.834900 493.720520,58.476093 496.636902,55.587910 
	C497.920929,54.316292 499.967896,53.248383 501.732269,53.141529 
	C505.950409,52.886074 506.896057,54.751652 505.018402,58.731239 
	C502.489502,64.091072 494.859039,67.572594 487.864319,65.620308 
	C484.457458,64.669434 481.551300,61.924610 478.182068,59.696426 
z"/>
<path fill="#1B1B1C" opacity="1.000000" stroke="none" 
	d="
M419.005493,26.960463 
	C418.911499,22.186478 422.208130,22.719250 424.599121,23.222998 
	C425.922760,23.501871 427.669373,25.476410 427.820984,26.842501 
	C428.134766,29.668701 428.962555,30.922407 431.956451,31.217323 
	C433.052246,31.325264 434.754761,33.466908 434.712250,34.626995 
	C434.669983,35.780403 432.853973,37.722321 431.691925,37.818279 
	C428.439209,38.086864 427.920685,39.822990 427.988312,42.469784 
	C428.069000,45.627827 428.047546,48.790257 427.993164,51.949463 
	C427.939362,55.076900 428.706879,57.322124 432.270203,58.235229 
	C433.414642,58.528484 434.847717,60.853111 434.718811,62.100597 
	C434.580109,63.442368 432.862335,65.567352 431.659241,65.693993 
	C425.392273,66.353676 418.994873,64.351036 419.011749,56.209583 
	C419.021393,51.552597 419.226562,46.877182 418.856354,42.249043 
	C418.735931,40.743744 417.058228,39.370953 416.118988,37.920609 
	C415.398621,36.808277 414.078857,35.603012 414.186890,34.559280 
	C414.316803,33.304096 415.680634,32.178776 416.503540,30.992598 
	C417.336151,29.792393 418.160645,28.586525 419.005493,26.960463 
z"/>
<path fill="#1B1B1C" opacity="1.000000" stroke="none" 
	d="
M236.004517,40.074371 
	C236.005508,38.589008 235.993607,37.591530 236.009583,36.594494 
	C236.095291,31.250008 237.930435,29.465881 243.014877,31.316362 
	C245.758423,32.314873 247.444168,31.431164 249.695648,30.827538 
	C251.442963,30.359074 254.517120,30.098471 255.075348,30.973824 
	C256.078247,32.546490 256.079987,35.150410 255.601120,37.102982 
	C255.375046,38.024792 253.114975,38.846283 251.697479,39.004356 
	C247.021393,39.525795 244.988968,42.083305 245.003799,46.617950 
	C245.019577,51.437954 244.888184,56.260540 245.007980,61.077351 
	C245.086136,64.220421 243.535690,65.027008 240.712814,65.022774 
	C237.842117,65.018463 235.904602,64.567673 235.980927,61.005516 
	C236.126877,54.194118 236.011444,47.377125 236.004517,40.074371 
z"/>
<path fill="#1C1C1C" opacity="1.000000" stroke="none" 
	d="
M440.465576,64.629837 
	C439.705078,61.574070 439.120148,58.678902 439.052277,55.771664 
	C438.900848,49.286911 439.210663,42.787529 438.936371,36.310883 
	C438.759277,32.129875 440.285156,30.729612 444.397614,30.928440 
	C447.657410,31.086040 450.954315,30.392279 454.239807,30.143045 
	C455.534973,30.044798 456.843781,30.126947 458.026855,30.126947 
	C460.004089,37.240685 459.528809,37.485722 453.099121,39.291840 
	C451.040253,39.870182 448.636719,42.812111 448.251678,45.000092 
	C447.484650,49.358730 448.013702,53.944324 447.995148,58.436119 
	C447.967285,65.187057 447.962860,65.187042 440.465576,64.629837 
z"/>
<path fill="#1C1C1C" opacity="1.000000" stroke="none" 
	d="
M470.882996,33.482239 
	C470.957489,42.734367 470.882568,51.538063 471.043427,60.337448 
	C471.104858,63.699047 470.013306,65.066734 466.481598,65.069717 
	C462.897552,65.072739 461.910370,63.586491 461.967133,60.280781 
	C462.106781,52.145161 461.916840,44.003429 462.094940,35.869316 
	C462.129120,34.308544 463.259399,31.447886 463.850677,31.456556 
	C466.183502,31.490770 468.503082,32.429150 470.882996,33.482239 
z"/>
<path fill="#4E4E4E" opacity="1.000000" stroke="none" 
	d="
M423.004852,109.024292 
	C423.050812,105.708778 422.895050,102.859879 423.252808,100.076988 
	C423.376953,99.111168 424.773621,98.308945 425.589111,97.431999 
	C426.344574,98.183701 427.679565,98.883118 427.752930,99.696365 
	C428.036133,102.835342 429.652679,103.358719 432.461700,103.178230 
	C437.221863,102.872375 440.052185,105.528885 440.620972,110.104691 
	C441.068970,113.708969 441.084808,117.411133 440.820007,121.035278 
	C440.730255,122.263016 439.194580,123.385101 438.319702,124.555466 
	C437.568817,123.427361 436.310242,122.359634 436.167511,121.159241 
	C435.816345,118.205727 436.442352,115.080940 435.767365,112.240829 
	C435.333557,110.415596 433.289215,108.973129 431.966766,107.359085 
	C430.666077,108.995239 428.948395,110.461746 428.192566,112.319572 
	C427.551666,113.894844 428.309418,115.984535 427.930237,117.734329 
	C427.424469,120.068184 426.417267,122.293381 425.625427,124.565247 
	C424.752319,122.373802 423.473083,120.247185 423.110291,117.974274 
	C422.670593,115.219704 423.005249,112.341530 423.004852,109.024292 
z"/>
<path fill="#4E4E4E" opacity="1.000000" stroke="none" 
	d="
M239.935577,124.557564 
	C238.043579,124.677605 236.151962,125.423904 235.139740,124.782455 
	C232.693237,123.232109 229.660339,121.377907 228.829117,118.968262 
	C228.329590,117.520149 231.299805,114.575455 233.148026,112.744911 
	C234.057739,111.843887 236.091370,112.194077 237.374786,111.518814 
	C238.499130,110.927246 239.285736,109.693733 240.221558,108.743805 
	C238.769989,108.317322 237.276581,107.443047 235.877106,107.573868 
	C233.983139,107.750916 232.161270,108.699249 230.088516,108.685341 
	C231.532578,103.748253 234.960617,102.666428 239.031555,103.210617 
	C243.216278,103.770012 245.542023,106.426392 245.853302,110.598038 
	C246.075821,113.579971 245.848236,116.593376 246.010956,119.582420 
	C246.238312,123.758766 244.527313,125.520859 239.935577,124.557564 
M238.421585,115.356956 
	C236.819199,116.299103 235.191071,117.204384 233.671860,118.265587 
	C233.569611,118.337006 234.256958,120.164528 234.633438,120.185974 
	C236.171906,120.273651 238.133804,120.470566 239.144012,119.648888 
	C239.822128,119.097305 239.163361,116.902077 238.421585,115.356956 
z"/>
<path fill="#4E4E4E" opacity="1.000000" stroke="none" 
	d="
M219.075089,120.252426 
	C221.087479,119.950790 222.767487,119.803535 224.447510,119.656281 
	C223.419250,121.156464 222.716522,123.387352 221.300903,124.018013 
	C217.265564,125.815758 213.172379,125.458511 209.803482,122.158134 
	C206.545654,118.966576 206.045609,113.028618 208.419662,108.209373 
	C210.357529,104.275558 213.630829,102.224724 217.709061,103.317581 
	C220.295959,104.010811 223.151947,105.964699 224.591599,108.191040 
	C227.375778,112.496674 225.717697,114.843307 220.488235,114.974747 
	C217.739960,115.043816 214.988525,114.986931 211.875076,114.986931 
	C212.392578,120.299774 214.860443,121.369568 219.075089,120.252426 
M216.756577,111.298447 
	C217.886139,110.881035 219.015717,110.463615 220.145279,110.046204 
	C220.140701,109.480194 220.136124,108.914192 220.131546,108.348183 
	C218.209824,108.136215 216.267715,107.685905 214.377899,107.847458 
	C213.754791,107.900734 213.266846,109.534950 212.717087,110.446281 
	C213.835068,110.783905 214.953064,111.121521 216.756577,111.298447 
z"/>
<path fill="#4E4E4E" opacity="1.000000" stroke="none" 
	d="
M475.974976,113.319656 
	C475.987701,114.934349 476.228180,116.157555 475.947052,117.246033 
	C475.307587,119.721581 474.103424,124.293556 473.668396,124.231483 
	C469.488434,123.635040 471.449280,119.986893 471.043396,117.494682 
	C470.779633,115.875046 471.465118,113.947678 470.825104,112.579170 
	C469.916351,110.635948 468.179474,109.079994 466.796417,107.358574 
	C465.548767,109.049026 463.544281,110.603348 463.210632,112.458214 
	C462.511505,116.345146 462.691925,120.390297 462.475220,125.161919 
	C458.621521,122.056290 457.857178,110.343338 460.046600,103.989677 
	C474.379639,103.674797 474.947205,103.991302 475.974976,113.319656 
z"/>
<path fill="#4E4E4E" opacity="1.000000" stroke="none" 
	d="
M493.016235,114.367409 
	C492.773132,118.015457 492.539612,121.220909 492.306061,124.426361 
	C491.605713,124.453156 490.905365,124.479950 490.204987,124.506744 
	C489.811737,123.086426 489.132538,121.676712 489.079346,120.243774 
	C488.925507,116.098701 489.006927,111.944191 489.028290,107.793556 
	C489.042572,105.019791 489.380096,102.728584 493.269775,103.688721 
	C494.597961,104.016571 496.344635,102.804909 497.607056,103.209984 
	C500.123627,104.017494 503.719269,104.862488 504.593994,106.747673 
	C507.198364,112.360649 506.414459,118.428131 505.066895,124.271149 
	C504.589844,124.384911 504.112793,124.498665 503.635742,124.612427 
	C503.111786,123.465561 502.267883,122.355141 502.132172,121.164047 
	C501.870514,118.866692 502.471649,116.392281 501.858582,114.234634 
	C501.168243,111.804962 499.823120,107.968674 498.251678,107.696617 
	C494.368591,107.024338 493.207367,110.466232 493.016235,114.367409 
z"/>
<path fill="#4E4E4E" opacity="1.000000" stroke="none" 
	d="
M375.811768,99.810509 
	C375.924225,105.030609 376.089447,109.852699 375.969208,114.667664 
	C375.874084,118.476105 377.435699,120.275017 381.282562,119.991318 
	C381.943146,119.942604 382.700745,119.797997 383.259796,120.045303 
	C385.033203,120.829727 386.733795,121.778641 388.462555,122.663971 
	C386.700134,123.444946 384.962524,124.834549 383.171234,124.907562 
	C372.010742,125.362457 371.999542,125.264763 372.009735,114.096352 
	C372.013824,109.609291 371.889709,105.112579 372.147888,100.638962 
	C372.295593,98.079758 373.217957,95.926292 375.811768,99.810509 
z"/>
<path fill="#4E4E4E" opacity="1.000000" stroke="none" 
	d="
M252.152237,121.537689 
	C251.478943,116.909531 251.935440,112.186310 250.172928,108.533920 
	C248.582596,105.238358 249.372177,103.609138 250.953522,101.157280 
	C252.761261,98.354393 254.105469,97.257477 256.145050,100.923714 
	C256.910217,102.299095 258.315979,103.318092 258.165955,104.465874 
	C257.456940,108.406631 256.572754,112.328255 256.139282,116.299095 
	C255.998123,117.592285 257.013580,119.021561 257.536530,120.374496 
	C258.008820,121.596313 258.530945,122.798866 259.031067,124.009918 
	C257.483429,124.006226 255.884171,124.234642 254.408722,123.906433 
	C253.602844,123.727158 253.006577,122.605560 252.152237,121.537689 
z"/>
<path fill="#4E4E4E" opacity="1.000000" stroke="none" 
	d="
M451.000183,113.077362 
	C451.921844,116.831383 452.845154,120.150520 453.914856,123.995865 
	C451.035950,125.920723 448.501648,124.552650 447.141510,121.231033 
	C446.234192,119.015198 446.307312,116.387657 446.008667,113.936211 
	C445.789154,112.134560 446.340912,109.803886 445.404022,108.600128 
	C441.379425,103.429375 446.653015,101.621613 448.285583,97.742203 
	C450.759125,100.509644 452.660339,102.636765 454.085571,104.231361 
	C452.932159,107.377434 451.967010,110.009964 451.000183,113.077362 
z"/>
<path fill="#4E4E4E" opacity="1.000000" stroke="none" 
	d="
M198.996277,117.026543 
	C198.772736,119.785423 198.549805,122.092957 198.326874,124.400490 
	C197.695618,124.457657 197.064346,124.514816 196.433090,124.571983 
	C195.962265,123.069649 195.175461,121.586151 195.084564,120.061172 
	C194.877350,116.584846 194.985275,113.087997 195.012177,109.599846 
	C195.063812,102.906265 198.996185,101.026321 206.228165,105.118645 
	C201.390320,107.624519 197.761078,110.802994 198.996277,117.026543 
z"/>
<path fill="#4F4F4F" opacity="1.000000" stroke="none" 
	d="
M569.081543,100.628944 
	C569.758423,99.388000 570.401794,98.565567 571.045105,97.743118 
	C571.601196,98.268677 572.642334,98.795593 572.640869,99.319595 
	C572.618225,107.386566 572.471680,115.453415 572.285583,123.518723 
	C572.278870,123.807999 571.570801,124.081085 570.694824,124.725868 
	C567.745911,121.012276 569.308960,116.786514 569.063965,112.960854 
	C568.810547,109.005615 569.033447,105.019859 569.081543,100.628944 
z"/>
<path fill="#4D4D4D" opacity="1.000000" stroke="none" 
	d="
M483.445374,124.111015 
	C482.134277,123.542480 480.322174,122.812851 480.280304,121.992767 
	C480.011139,116.726318 480.043823,111.437393 480.206360,106.162910 
	C480.233398,105.286087 481.382050,104.443840 482.012421,103.585617 
	C482.918060,104.356377 484.616119,105.139931 484.603912,105.895874 
	C484.506897,111.902916 484.085083,117.904701 483.445374,124.111015 
z"/>
<path fill="#4F4F4F" opacity="1.000000" stroke="none" 
	d="
M392.004272,116.874748 
	C392.104767,112.147491 392.205444,107.893845 392.332611,102.519493 
	C396.861938,106.493675 397.066772,120.709236 392.956909,125.518150 
	C392.557953,122.096230 392.281189,119.722290 392.004272,116.874748 
z"/>
<path fill="#1A1A1A" opacity="1.000000" stroke="none" 
	d="
M469.047729,18.069897 
	C471.838959,22.154314 471.324249,25.965746 467.937653,26.617241 
	C466.121552,26.966616 463.478973,26.430342 462.232880,25.230625 
	C461.271820,24.305361 461.147095,20.722229 461.987122,20.086283 
	C463.759338,18.744579 466.407593,18.559937 469.047729,18.069897 
z"/>
<path fill="#6948EA" opacity="1.000000" stroke="none" 
	d="
M88.330719,143.074829 
	C88.528976,142.836044 89.029900,142.533997 89.809616,142.137039 
	C89.603409,142.365280 89.118401,142.688416 88.330719,143.074829 
z"/>
<path fill="#7338E7" opacity="1.000000" stroke="none" 
	d="
M28.986261,22.162750 
	C34.078751,19.196154 39.171238,16.229557 44.574577,13.109619 
	C52.283669,20.225195 59.792210,27.386242 67.042480,34.799873 
	C72.116959,39.988682 76.765335,45.592476 81.778130,50.844757 
	C82.809875,51.925781 84.613647,52.269985 86.499146,53.439705 
	C86.892891,62.944691 86.849052,71.963783 86.455162,80.939270 
	C83.867409,80.257614 81.629715,79.619576 79.316132,78.519615 
	C79.212166,71.918785 79.399513,65.765434 78.989594,59.652122 
	C78.898354,58.291466 76.704880,57.071777 75.479317,55.787182 
	C74.213020,57.037701 72.143005,58.124176 71.847328,59.572807 
	C71.227356,62.610348 71.540878,65.838417 71.127167,68.960815 
	C68.572563,68.284775 66.361908,67.636177 64.077957,66.525909 
	C63.982647,61.578243 64.101395,57.085785 63.895710,52.608227 
	C63.719666,48.775932 59.803303,46.270027 57.509617,48.530598 
	C56.322674,49.700401 56.380623,52.133331 55.561283,53.885769 
	C47.063995,45.253143 38.787045,36.817146 30.796358,28.118204 
	C29.531227,26.740940 29.557217,24.177675 28.986261,22.162750 
z"/>
<path fill="#F8F5FE" opacity="1.000000" stroke="none" 
	d="
M86.805214,80.982880 
	C86.849052,71.963783 86.892891,62.944691 86.858673,53.462902 
	C86.844604,50.514435 86.987244,48.027542 86.951813,45.543190 
	C86.911430,42.711357 87.859161,39.992249 90.853325,40.537567 
	C92.433846,40.825420 94.508690,43.793190 94.640633,45.671780 
	C95.116402,52.445518 94.861458,59.270580 94.966667,66.538467 
	C94.977463,72.420166 94.996231,77.843330 94.780869,83.257179 
	C94.705193,85.159584 94.055229,87.039154 93.066849,89.368187 
	C88.862709,90.560051 87.167061,88.953819 87.021370,85.414742 
	C86.960541,83.936996 86.877922,82.460136 86.805214,80.982880 
z"/>
<path fill="#F7F6FE" opacity="1.000000" stroke="none" 
	d="
M98.709625,98.289383 
	C96.757271,99.647194 94.790909,101.416702 92.672546,101.622635 
	C87.794479,102.096848 82.842522,101.811012 77.459305,101.922668 
	C70.639671,101.953156 64.281265,101.894554 57.461834,101.924835 
	C51.641956,101.945992 46.283108,101.878258 40.458778,101.867157 
	C39.004726,100.222656 38.016159,98.521523 37.029915,96.456665 
	C38.953102,95.386421 40.848789,94.165741 42.799564,94.070236 
	C48.547100,93.788841 54.316463,93.953331 61.005901,93.938919 
	C70.286438,93.898880 78.638359,93.863213 87.436523,93.896736 
	C90.591431,93.964630 93.300102,93.963326 96.008774,93.962021 
	C96.881378,95.304977 97.753975,96.647942 98.709625,98.289383 
z"/>
<path fill="#6D42E9" opacity="1.000000" stroke="none" 
	d="
M28.649586,22.234356 
	C29.557217,24.177675 29.531227,26.740940 30.796358,28.118204 
	C38.787045,36.817146 47.063995,45.253143 55.636452,54.349487 
	C55.976940,64.947647 55.927410,74.972275 55.877876,84.996895 
	C53.724834,83.755829 51.571793,82.514755 48.985954,80.730362 
	C48.516823,78.894020 48.511414,77.599243 48.438751,76.308258 
	C48.141212,71.022064 46.113071,69.955032 41.222950,72.493050 
	C30.705048,61.080856 20.187586,49.668255 9.668328,38.257309 
	C8.887734,37.410545 8.094207,36.575706 7.155710,35.451332 
	C14.107456,30.880211 21.210184,26.593084 28.649586,22.234356 
z"/>
<path fill="#F9F7FE" opacity="1.000000" stroke="none" 
	d="
M55.961971,85.363541 
	C55.927410,74.972275 55.976940,64.947647 55.951305,54.459305 
	C56.380623,52.133331 56.322674,49.700401 57.509617,48.530598 
	C59.803303,46.270027 63.719666,48.775932 63.895710,52.608227 
	C64.101395,57.085785 63.982647,61.578243 63.998287,66.989670 
	C63.977142,73.403915 64.217201,78.911552 63.813972,84.371674 
	C63.666210,86.372467 61.993999,88.260696 61.017197,90.200272 
	C58.050362,90.166847 56.272736,88.810921 55.961971,85.363541 
z"/>
<path fill="#6F43E9" opacity="1.000000" stroke="none" 
	d="
M61.015087,90.560715 
	C61.993999,88.260696 63.666210,86.372467 63.813972,84.371674 
	C64.217201,78.911552 63.977142,73.403915 64.071587,67.451340 
	C66.361908,67.636177 68.572563,68.284775 71.186951,69.426544 
	C71.608093,74.917404 71.369812,79.936249 71.780510,84.901405 
	C71.925797,86.657761 73.654305,88.283150 74.659988,89.968330 
	C76.233337,88.652626 77.806686,87.336922 79.720963,86.071281 
	C84.206299,87.040344 86.929367,89.237213 86.990280,93.827545 
	C78.638359,93.863213 70.286438,93.898880 61.470322,93.869476 
	C61.008411,92.843315 61.010696,91.882240 61.015087,90.560715 
z"/>
<path fill="#FCFBFF" opacity="1.000000" stroke="none" 
	d="
M41.137623,72.922302 
	C46.113071,69.955032 48.141212,71.022064 48.438751,76.308258 
	C48.511414,77.599243 48.516823,78.894020 48.668938,80.600647 
	C48.637043,82.805664 48.934471,84.807625 48.215015,86.328590 
	C47.512264,87.814247 45.771488,88.808891 44.486389,90.019089 
	C43.281742,88.728760 41.175312,87.525269 41.041119,86.131844 
	C40.634674,81.911247 40.992344,77.617073 41.137623,72.922302 
z"/>
<path fill="#6D42E9" opacity="1.000000" stroke="none" 
	d="
M5.055190,35.837620 
	C5.067478,35.700344 5.278128,35.441860 5.744085,35.171455 
	C5.763094,35.361652 5.514482,35.547283 5.055190,35.837620 
z"/>
<path fill="#7A47E9" opacity="1.000000" stroke="none" 
	d="
M87.436523,93.896736 
	C86.929367,89.237213 84.206299,87.040344 79.633194,85.637146 
	C79.267014,83.095802 79.329514,81.038673 79.392014,78.981537 
	C81.629715,79.619576 83.867409,80.257614 86.455162,80.939270 
	C86.877922,82.460136 86.960541,83.936996 87.021370,85.414742 
	C87.167061,88.953819 88.862709,90.560051 92.812012,89.692764 
	C94.031174,90.798126 94.904503,92.017937 95.893311,93.599884 
	C93.300102,93.963326 90.591431,93.964630 87.436523,93.896736 
z"/>
<path fill="#47704C" opacity="1.000000" stroke="none" 
	d="
M397.864166,43.999664 
	C395.210541,44.000008 392.989288,44.000008 390.534119,44.000008 
	C390.964630,39.434807 393.414215,38.211903 396.634491,38.105247 
	C400.029266,37.992809 402.795258,38.983849 403.513458,43.579605 
	C401.694305,43.725960 399.995392,43.862637 397.864166,43.999664 
z"/>
<path fill="#47704C" opacity="1.000000" stroke="none" 
	d="
M208.591125,52.017807 
	C208.896423,48.158325 208.656616,44.317307 210.071884,41.236633 
	C212.223221,36.553738 218.681641,37.066822 221.200455,41.622986 
	C223.787567,46.302639 223.360718,50.957359 220.616501,55.186531 
	C219.673889,56.639244 217.241928,57.540333 215.346085,57.874237 
	C211.282516,58.589928 210.176147,55.185390 208.591125,52.017807 
z"/>
<path fill="#47704C" opacity="1.000000" stroke="none" 
	d="
M238.762161,115.399605 
	C239.163361,116.902077 239.822128,119.097305 239.144012,119.648888 
	C238.133804,120.470566 236.171906,120.273651 234.633438,120.185974 
	C234.256958,120.164528 233.569611,118.337006 233.671860,118.265587 
	C235.191071,117.204384 236.819199,116.299103 238.762161,115.399605 
z"/>
<path fill="#47704C" opacity="1.000000" stroke="none" 
	d="
M216.413818,111.378792 
	C214.953064,111.121521 213.835068,110.783905 212.717087,110.446281 
	C213.266846,109.534950 213.754791,107.900734 214.377899,107.847458 
	C216.267715,107.685905 218.209824,108.136215 220.131546,108.348183 
	C220.136124,108.914192 220.140701,109.480194 220.145279,110.046204 
	C219.015717,110.463615 217.886139,110.881035 216.413818,111.378792 
z"/>
<path fill="#FDFDFF" opacity="1.000000" stroke="none" 
	d="
M79.316132,78.519615 
	C79.329514,81.038673 79.267014,83.095802 79.292267,85.587082 
	C77.806686,87.336922 76.233337,88.652626 74.659988,89.968330 
	C73.654305,88.283150 71.925797,86.657761 71.780510,84.901405 
	C71.369812,79.936249 71.608093,74.917404 71.530899,69.453987 
	C71.540878,65.838417 71.227356,62.610348 71.847328,59.572807 
	C72.143005,58.124176 74.213020,57.037701 75.479317,55.787182 
	C76.704880,57.071777 78.898354,58.291466 78.989594,59.652122 
	C79.399513,65.765434 79.212166,71.918785 79.316132,78.519615 
z"/>
</svg>