<svg version="1.1" id="Layer_1" xmlns="http://www.w3.org/2000/svg" xmlns:xlink="http://www.w3.org/1999/xlink" x="0px" y="0px"
	 width="100%" viewBox="1 1 2000 462" enable-background="new 0 0 2000 462" xml:space="preserve">
<path fill="#000000" opacity="1.000000" stroke="none" 
	d="
M1310.000000,463.000000 
	C873.333313,463.000000 437.166656,463.000000 1.000000,463.000000 
	C1.000000,309.000000 1.000000,155.000000 1.000000,1.000000 
	C667.666687,1.000000 1334.333374,1.000000 2001.000000,1.000000 
	C2001.000000,155.000000 2001.000000,309.000000 2001.000000,463.000000 
	C1770.833374,463.000000 1540.666626,463.000000 1310.000000,463.000000 
M395.952637,117.334930 
	C395.642731,117.033180 395.332825,116.731430 395.072266,116.137718 
	C394.960205,115.911751 394.793060,115.858398 394.099884,115.536858 
	C393.753143,115.309258 393.406372,115.081657 393.023621,114.900986 
	C393.023621,114.900986 393.014160,114.842590 392.891479,114.268120 
	C392.332794,114.146996 391.774109,114.025871 390.916748,113.274696 
	C390.296204,113.002235 389.675629,112.729767 389.016479,112.499779 
	C389.016479,112.499779 389.042084,112.451889 389.027069,111.673218 
	C388.659363,111.329277 388.291626,110.985336 387.876251,110.518501 
	C387.876251,110.518501 387.766235,110.727814 387.486847,109.945343 
	C386.377167,109.291252 385.267517,108.637161 384.154449,107.854935 
	C384.154449,107.854935 384.026611,107.845505 383.862793,107.224556 
	C382.951447,106.791908 382.040100,106.359268 381.007355,105.980286 
	C381.007355,105.980286 381.130463,105.919380 380.993073,105.390701 
	C380.687683,105.217285 380.382324,105.043869 380.053528,104.945786 
	C380.053528,104.945786 380.127747,104.919067 379.969482,104.391815 
	C379.659729,104.216171 379.350006,104.040527 379.017395,104.019096 
	C379.017395,104.019096 379.171631,104.041763 379.023254,103.108849 
	C379.027405,94.879532 379.237396,86.642914 378.945618,78.424103 
	C378.807495,74.532501 377.709839,70.674965 377.047852,65.926384 
	C376.397797,59.400204 376.045074,52.826366 375.009033,46.362057 
	C374.085754,40.601562 372.406464,34.962242 371.688477,28.879110 
	C370.221252,27.254982 368.958221,24.502153 367.252991,24.193665 
	C357.660980,22.458427 347.998108,20.851374 338.289825,20.101721 
	C329.713928,19.439507 321.044525,20.083864 312.420868,19.918789 
	C303.208130,19.742437 293.968048,18.672710 284.800781,19.153515 
	C276.976227,19.563892 269.237946,21.619024 261.444092,22.879501 
	C261.444092,22.879501 261.376068,22.892622 260.688934,22.990509 
	C260.465210,23.047226 260.241516,23.103941 259.235962,23.016035 
	C248.107483,26.414795 236.897141,29.265327 227.017441,36.142265 
	C219.095047,41.656776 211.209778,46.694752 207.995132,57.409340 
	C207.968964,57.702335 207.942780,57.995327 207.853821,58.753216 
	C207.361420,59.332615 206.869003,59.912014 206.077911,61.296448 
	C205.688446,62.883038 205.298996,64.469627 204.118988,66.370125 
	C205.022537,71.941559 205.926071,77.513000 206.903992,83.710739 
	C207.222626,84.152641 207.541245,84.594543 207.857513,85.095505 
	C207.857513,85.095505 207.914825,85.109917 207.923477,85.847641 
	C210.261200,89.998436 212.172073,94.482140 215.069107,98.196724 
	C217.471573,101.277176 221.035965,103.451447 224.101761,105.938286 
	C224.101761,105.938286 224.014450,105.915077 224.244949,106.533699 
	C224.817490,107.638008 225.390015,108.742310 225.935486,110.591835 
	C226.739304,112.176857 227.450470,113.817726 228.365479,115.335732 
	C230.536148,118.936897 232.803436,122.479813 234.967285,126.777176 
	C238.259811,131.668854 241.620651,136.516220 244.829651,141.462082 
	C250.329971,149.939423 255.735397,158.478317 261.238586,167.707703 
	C264.123993,172.185074 264.629730,178.225677 269.980225,181.687744 
	C270.057526,181.881424 270.134796,182.075089 270.744537,182.734268 
	C271.808197,185.667725 272.871857,188.601181 273.989349,191.497238 
	C273.989349,191.497238 273.924011,191.492371 273.945038,192.210632 
	C274.267578,192.512802 274.590088,192.814972 274.927704,193.042664 
	C274.927704,193.042664 274.852386,193.032562 274.910370,193.763626 
	C275.258942,194.364578 275.607544,194.965530 275.993042,195.505905 
	C275.993042,195.505905 275.932190,195.469482 275.933136,196.327560 
	C276.268738,197.071747 276.604340,197.815948 276.977478,198.508301 
	C276.977478,198.508301 276.950165,198.557831 276.965393,199.346664 
	C279.961243,205.935944 282.957062,212.525238 285.847656,219.518631 
	C285.920929,219.843628 286.124115,220.002090 286.912201,220.662354 
	C288.950165,224.856537 290.988159,229.050720 292.976196,233.791306 
	C293.055176,233.956253 293.134155,234.121201 293.391022,234.479462 
	C293.552399,234.547607 293.712677,234.618256 293.769562,235.402359 
	C294.500580,238.209946 295.231628,241.017548 295.218475,244.227386 
	C295.136261,245.376343 294.929443,246.532043 294.991211,247.673203 
	C295.573700,258.429871 296.201996,269.184052 296.075745,280.373718 
	C295.827087,286.728760 295.578461,293.083801 294.903259,300.036621 
	C294.608398,301.986115 294.313507,303.935608 293.288696,306.193146 
	C291.513306,313.943481 289.678894,321.681580 288.064575,329.465302 
	C287.921631,330.154510 289.039795,331.430634 289.873993,331.932556 
	C291.893646,333.147736 294.175354,333.925629 296.202789,335.130096 
	C303.457916,339.440094 305.721008,346.513184 301.679230,352.507294 
	C300.498505,354.258362 298.418884,355.413910 297.287201,357.184875 
	C295.843140,359.444672 294.942749,362.051910 293.528717,364.439575 
	C293.408905,364.755707 293.289062,365.071838 293.886719,364.513611 
	C293.069366,364.660645 292.252014,364.807678 290.899597,365.108643 
	C290.699036,365.706207 290.498444,366.303741 289.474365,367.006989 
	C289.293396,367.506104 289.112457,368.005219 288.996674,368.477783 
	C288.996674,368.477783 288.968079,368.413483 288.537231,368.906067 
	C288.305573,369.258575 288.073914,369.611115 287.935486,369.959198 
	C287.935486,369.959198 287.926544,369.866272 287.398346,370.009796 
	C287.221069,370.314575 287.043793,370.619385 286.992340,370.971069 
	C286.992340,370.971069 286.864563,370.938202 286.041718,371.345734 
	C285.943054,372.031891 285.844360,372.718018 285.362946,372.743317 
	C284.802094,373.316589 284.241241,373.889862 283.062378,374.341217 
	C282.680786,374.822662 282.299194,375.304077 281.315491,376.073181 
	C281.185577,376.707520 281.055634,377.341827 280.363586,378.236145 
	C280.250488,378.822449 280.137360,379.408752 279.431793,380.047119 
	C278.962830,380.645294 278.493866,381.243500 277.257599,382.039734 
	C275.020050,383.591614 272.390656,384.800110 270.649445,386.786957 
	C268.707306,389.003143 266.051849,392.228302 266.494934,394.460968 
	C266.979950,396.904877 270.651978,398.716217 273.018524,401.393585 
	C273.339996,401.594421 273.661469,401.795258 274.379028,402.418823 
	C275.170197,402.837158 275.961365,403.255493 276.832581,404.010864 
	C276.832581,404.010864 277.172333,404.078308 277.483429,404.435852 
	C277.902496,404.891754 278.321594,405.347626 279.359131,406.234894 
	C281.674042,407.117065 283.988922,407.999207 286.291534,409.681885 
	C286.516754,410.141144 286.621948,410.845184 286.985077,411.023224 
	C293.205261,414.073608 299.716064,415.700439 307.653412,414.981415 
	C310.230865,414.897827 312.808350,414.814240 316.180145,414.821564 
	C319.796234,415.750885 322.593597,414.358612 324.913422,411.696716 
	C326.958221,409.350372 329.437317,407.225769 330.883392,404.548798 
	C333.476898,399.747742 339.897217,397.521515 340.538513,390.946381 
	C342.024414,389.301514 343.510345,387.656647 345.686188,385.764221 
	C346.246124,385.531952 347.015686,385.459991 347.334534,385.043274 
	C351.950836,379.009308 356.607819,373.001587 361.033539,366.828766 
	C363.186493,363.825867 364.880096,360.493652 367.209534,356.730682 
	C374.463654,345.564087 381.717773,334.397491 389.591217,322.935699 
	C389.777924,322.295898 389.964630,321.656067 390.020355,321.013153 
	C390.020355,321.013153 390.018677,321.144196 390.729279,321.071625 
	C390.922455,320.584167 391.115631,320.096710 392.161652,319.230255 
	C391.760773,318.699615 391.359863,318.168976 391.809906,318.494446 
	C392.495789,318.201447 393.181671,317.908478 394.377045,317.151672 
	C394.614807,316.310120 394.852539,315.468536 395.109741,314.564392 
	C395.109741,314.564392 395.047821,314.542969 395.481934,314.080170 
	C395.628876,313.721741 395.775787,313.363342 396.197113,312.359344 
	C397.866882,310.041962 399.853699,307.887634 401.145142,305.375763 
	C404.610535,298.635468 407.778381,291.742188 410.950104,284.952850 
	C410.950104,284.952850 410.989563,285.068481 411.675964,284.844788 
	C414.009155,279.706055 416.342377,274.567291 419.148071,268.817352 
	C423.093292,258.531738 427.038513,248.246094 431.601654,237.491165 
	C432.059662,236.822662 432.851837,236.188812 432.925323,235.480423 
	C433.972473,225.384857 434.922485,215.279236 435.969177,204.252960 
	C435.947968,201.785461 435.926758,199.317978 435.966888,195.938980 
	C436.030914,188.031342 436.947052,179.976334 432.027649,172.099045 
	C431.922821,171.274185 431.817993,170.449310 431.430573,169.434464 
	C431.190247,169.378281 431.023621,169.235916 430.968658,169.096359 
	C430.968658,169.096359 431.059875,169.064072 430.871979,168.230774 
	C429.318146,164.128510 427.764313,160.026245 426.076111,155.168686 
	C425.739410,154.266220 425.402740,153.363739 425.013000,152.500931 
	C425.013000,152.500931 425.078888,152.507675 425.044037,151.798386 
	C424.729156,151.493118 424.414276,151.187851 424.069122,150.869507 
	C424.069122,150.869507 424.040131,150.853882 424.062531,150.161804 
	C423.072144,148.697403 422.081757,147.233017 421.078156,145.369827 
	C421.078156,145.369827 420.939850,144.995544 420.927094,144.339935 
	C420.438873,143.908005 419.950623,143.476074 418.711121,142.574707 
	C418.530518,142.808365 418.349945,143.042038 418.050598,143.460678 
	C418.050598,143.460678 418.237427,143.576553 419.095581,143.553894 
	C418.869476,142.715210 418.643372,141.876541 418.417236,141.037857 
	C418.146027,141.254440 417.874817,141.471024 417.710541,141.249634 
	C417.241547,140.997147 416.772552,140.744659 417.107849,140.345840 
	C416.617035,139.859314 416.126190,139.372787 415.566467,138.882767 
	C415.566467,138.882767 415.560669,138.951492 415.019714,138.500870 
	C414.058990,137.317245 413.098267,136.133621 412.039459,134.980270 
	C412.039459,134.980270 412.125275,134.923920 412.003876,134.385925 
	C411.694550,134.215500 411.385193,134.045059 411.058289,133.973938 
	C411.058289,133.973938 411.158203,133.987762 411.080139,133.260925 
	C410.739746,132.658798 410.399353,132.056671 409.877472,130.891037 
	C408.442474,129.583694 407.007446,128.276337 405.099335,126.530373 
	C404.750916,126.304214 404.402466,126.078056 404.010651,125.801590 
	C404.010651,125.801590 403.953400,125.835274 403.939484,125.322121 
	C403.656250,125.138313 403.372986,124.954498 403.079041,124.371941 
	C403.079041,124.371941 402.945740,123.995956 402.989471,123.421478 
	C402.662476,123.299072 402.335449,123.176666 401.488403,122.879044 
	C401.059692,122.560791 400.631012,122.242538 399.972961,121.373138 
	C399.365204,120.904503 398.757416,120.435867 398.102417,119.959167 
	C398.102417,119.959167 398.130493,119.920341 397.993927,119.392197 
	C397.689392,119.218124 397.384827,119.044060 397.055511,118.944847 
	C397.055511,118.944847 397.130402,118.920204 396.993500,118.391479 
	C396.688354,118.217758 396.383179,118.044037 396.069885,117.951057 
	C396.069885,117.951057 396.151001,117.954086 395.952637,117.334930 
M1825.828369,162.730896 
	C1825.117065,161.606506 1824.381470,160.496582 1823.697876,159.355606 
	C1811.960571,139.761963 1796.099365,124.364517 1775.781372,114.003090 
	C1748.791138,100.239006 1720.043091,96.527466 1690.410767,102.113945 
	C1645.865601,110.511902 1615.133179,136.423477 1597.908936,178.121399 
	C1587.064575,204.373581 1584.691528,231.751541 1588.866821,259.825684 
	C1593.259399,289.360870 1604.929321,315.072021 1626.554199,336.169464 
	C1650.039917,359.082672 1678.517090,369.825226 1710.688477,370.732819 
	C1722.660522,371.070557 1734.918335,369.344299 1746.694946,366.881439 
	C1771.892822,361.611694 1793.093262,348.702545 1809.971558,329.317810 
	C1830.350708,305.912079 1840.580078,277.994141 1842.786499,247.403748 
	C1844.902466,218.065994 1840.445190,189.661270 1825.828369,162.730896 
M1394.153076,197.182419 
	C1404.350586,200.408752 1410.489502,207.668274 1413.948975,217.423065 
	C1418.313843,229.730759 1418.017944,242.570190 1418.008667,255.371704 
	C1417.983521,290.026794 1418.065552,324.682190 1417.918335,359.336639 
	C1417.900146,363.628967 1419.010986,365.415375 1423.526245,365.076538 
	C1428.165283,364.728424 1432.850708,365.007538 1437.515869,364.998047 
	C1443.982788,364.984924 1443.996704,364.979248 1443.997437,358.301392 
	C1444.002075,316.481995 1444.033325,274.662567 1443.955688,232.843307 
	C1443.946533,227.880035 1443.767700,222.842331 1442.924805,217.967514 
	C1437.546997,186.863708 1418.132690,170.230240 1387.262329,169.132477 
	C1366.189331,168.383118 1347.590820,176.141129 1330.875488,188.638229 
	C1327.118042,191.447449 1323.495361,194.437057 1318.814087,198.129715 
	C1318.814087,157.826736 1318.814087,118.924782 1318.814087,79.361107 
	C1311.699341,80.858902 1305.277466,82.676018 1298.732422,83.446938 
	C1293.122803,84.107666 1291.871826,86.583923 1291.881592,91.919014 
	C1292.044678,180.555817 1291.997803,269.192993 1291.997925,357.830109 
	C1291.997925,358.496552 1292.066284,359.171143 1291.987427,359.828064 
	C1291.529907,363.636108 1292.935303,365.303040 1297.010010,365.069641 
	C1302.158081,364.774841 1307.335938,365.007324 1312.500854,364.997925 
	C1318.984375,364.986176 1318.997314,364.979858 1318.997925,358.318634 
	C1319.001953,314.999756 1319.138916,271.679932 1318.843628,228.363052 
	C1318.801514,222.170486 1321.179077,218.278641 1325.815552,215.118317 
	C1331.570679,211.195435 1337.116577,206.848755 1343.240479,203.606445 
	C1359.044922,195.238815 1375.746948,192.211807 1394.153076,197.182419 
M758.105408,194.579956 
	C752.361572,202.479752 745.516663,209.810364 741.083069,218.387421 
	C728.407837,242.908295 726.179810,269.068909 731.491272,296.005707 
	C735.045227,314.029327 742.370300,330.287231 755.174866,343.547668 
	C775.995361,365.109558 801.754395,373.274689 831.311646,370.045013 
	C870.423706,365.771240 895.842224,344.130005 908.840271,307.659790 
	C917.288513,283.955566 916.914978,259.649719 910.588074,235.493668 
	C905.035461,214.293625 893.721680,196.180618 875.260376,184.506424 
	C842.783081,163.969070 808.846863,163.392883 775.068970,182.084457 
	C769.181335,185.342499 764.128357,190.108841 758.105408,194.579956 
M623.007324,228.500000 
	C623.007324,248.489365 623.007263,268.478729 623.007324,288.468079 
	C623.007446,312.122162 623.070801,335.776581 622.944580,359.429993 
	C622.924011,363.286224 623.676575,365.354431 628.126099,365.074036 
	C633.269592,364.749939 638.449158,365.001831 643.613098,364.999420 
	C650.993713,364.996002 650.999084,364.994354 650.999207,357.709808 
	C651.000549,284.415466 650.998962,211.121109 651.001709,137.826752 
	C651.001953,131.011444 651.013062,131.001907 657.851013,131.000687 
	C684.170349,130.996017 710.489929,130.942291 736.808716,131.059906 
	C740.589111,131.076782 742.314087,130.103561 742.068115,126.003548 
	C741.769409,121.024162 741.692444,115.988976 742.084900,111.022598 
	C742.475586,106.077423 740.548889,104.879486 735.833862,104.904388 
	C702.019409,105.083038 668.203674,104.999634 634.388306,104.999741 
	C602.072144,104.999847 569.755798,105.055725 537.440125,104.930023 
	C533.428650,104.914429 531.665894,105.964333 531.929504,110.245758 
	C532.236084,115.224205 532.291260,120.257957 531.916504,125.227058 
	C531.559082,129.966217 533.438293,131.115479 537.915710,131.085449 
	C564.233826,130.908951 590.554626,131.106750 616.872314,130.900284 
	C621.632629,130.862946 623.143616,132.173553 623.110352,137.048798 
	C622.904663,167.198029 623.007202,197.349365 623.007324,228.500000 
M1109.990967,332.483337 
	C1121.347046,349.114197 1136.412109,360.763397 1155.863281,366.419739 
	C1171.043091,370.834015 1186.500000,372.354187 1202.175049,369.874237 
	C1216.535522,367.602356 1230.451050,363.826996 1242.927856,355.990845 
	C1243.987915,355.324982 1245.421265,353.749939 1245.253662,352.868896 
	C1243.839478,345.437225 1242.092773,338.068848 1240.351929,330.259613 
	C1238.642944,331.018982 1237.586426,331.396637 1236.617310,331.932648 
	C1218.179932,342.130371 1198.816284,347.963165 1177.436157,345.063507 
	C1156.089844,342.168427 1139.981567,331.268158 1130.335327,312.295715 
	C1117.703003,287.450043 1117.317383,261.260284 1126.587280,235.338455 
	C1134.157349,214.169876 1149.568848,200.619232 1171.737549,195.665756 
	C1189.518555,191.692703 1206.752075,194.841156 1223.451782,201.302216 
	C1228.809326,203.375015 1233.845215,206.279129 1239.787720,209.172684 
	C1241.567383,203.148712 1242.847412,197.497116 1244.928223,192.157516 
	C1246.858887,187.202896 1246.109375,183.935257 1240.991333,182.009949 
	C1240.216797,181.718597 1239.507812,181.256256 1238.758179,180.894547 
	C1218.515015,171.125885 1197.308472,167.159134 1174.882202,169.958450 
	C1144.194580,173.788956 1120.914429,188.928192 1106.130615,216.036758 
	C1094.419556,237.510956 1091.019409,260.759216 1093.847656,285.081665 
	C1095.799683,301.869659 1100.466431,317.589966 1109.990967,332.483337 
M1029.184082,196.438812 
	C1043.727173,192.662460 1057.335815,195.574814 1070.566650,203.127029 
	C1072.771606,194.940674 1074.847778,187.601242 1076.618774,180.188858 
	C1076.839844,179.263657 1075.729248,177.414246 1074.756714,176.901077 
	C1061.069580,169.679291 1046.608154,167.042130 1031.356201,170.429764 
	C1016.631409,173.700333 1005.881714,182.906876 996.860657,194.407471 
	C993.970093,198.092621 991.583923,202.173416 988.966980,206.073181 
	C988.613037,205.982193 988.259033,205.891190 987.905029,205.800201 
	C987.905029,193.755081 987.905029,181.709976 987.905029,169.134857 
	C980.544556,170.569702 973.944702,172.082092 967.268127,173.082520 
	C962.390259,173.813385 960.863586,176.028961 960.882629,181.027405 
	C961.072021,230.991531 960.997314,280.956635 960.997620,330.921478 
	C960.997681,340.747894 961.101746,350.575928 960.945740,360.399841 
	C960.890930,363.852844 962.091492,365.184296 965.576904,365.048737 
	C970.732117,364.848206 975.901001,365.003662 981.064026,364.998840 
	C987.985596,364.992340 987.997131,364.988770 987.997925,358.260193 
	C988.002136,323.451355 988.262878,288.639099 987.810547,253.836151 
	C987.700806,245.390762 989.790344,238.144836 993.959900,231.204803 
	C996.868652,226.363235 999.659546,221.385376 1003.131409,216.961426 
	C1009.940918,208.284439 1017.680786,200.570389 1029.184082,196.438812 
M1533.993530,310.500000 
	C1533.993652,245.197540 1533.993774,179.895081 1533.993286,114.592613 
	C1533.993286,112.760162 1533.890991,110.921623 1534.006104,109.096634 
	C1534.195312,106.098167 1532.899658,104.897736 1529.897583,104.971855 
	C1524.736572,105.099281 1519.569946,104.998535 1514.405762,105.000320 
	C1507.007324,105.002884 1507.000977,105.005478 1507.000854,112.274651 
	C1506.999390,194.069244 1506.999878,275.863831 1507.000488,357.658417 
	C1507.000488,358.824524 1507.068970,359.994324 1506.998779,361.155975 
	C1506.832031,363.915466 1508.078003,365.059448 1510.840210,365.017670 
	C1516.669434,364.929474 1522.513550,364.763214 1528.327393,365.077087 
	C1532.640869,365.309998 1534.155640,363.969116 1534.087280,359.475830 
	C1533.844116,343.487091 1533.993042,327.492432 1533.993530,310.500000 
z"/>
<path fill="#262626" opacity="1.000000" stroke="none" 
	d="
M1825.992310,163.060333 
	C1840.445190,189.661270 1844.902466,218.065994 1842.786499,247.403748 
	C1840.580078,277.994141 1830.350708,305.912079 1809.971558,329.317810 
	C1793.093262,348.702545 1771.892822,361.611694 1746.694946,366.881439 
	C1734.918335,369.344299 1722.660522,371.070557 1710.688477,370.732819 
	C1678.517090,369.825226 1650.039917,359.082672 1626.554199,336.169464 
	C1604.929321,315.072021 1593.259399,289.360870 1588.866821,259.825684 
	C1584.691528,231.751541 1587.064575,204.373581 1597.908936,178.121399 
	C1615.133179,136.423477 1645.865601,110.511902 1690.410767,102.113945 
	C1720.043091,96.527466 1748.791138,100.239006 1775.781372,114.003090 
	C1796.099365,124.364517 1811.960571,139.761963 1823.697876,159.355606 
	C1824.381470,160.496582 1825.117065,161.606506 1825.992310,163.060333 
M1695.647339,126.016609 
	C1674.349854,130.010040 1656.447266,139.904617 1642.097900,156.291977 
	C1633.204468,166.448456 1626.479614,177.854111 1622.163696,190.531708 
	C1614.639282,212.633820 1612.953857,235.290100 1617.006836,258.341827 
	C1620.557739,278.537872 1627.862671,297.255554 1641.438477,312.693237 
	C1665.125732,339.629456 1695.520874,350.056946 1730.720581,344.954956 
	C1769.463867,339.339294 1794.465088,316.392365 1807.755493,280.180115 
	C1814.985718,260.480133 1816.389893,240.106796 1814.101074,219.289932 
	C1811.544556,196.036362 1803.991455,174.699005 1788.430908,157.216507 
	C1763.916870,129.674225 1732.568604,120.472610 1695.647339,126.016609 
z"/>
<path fill="#302C36" opacity="1.000000" stroke="none" 
	d="
M286.303833,408.881409 
	C283.988922,407.999207 281.674042,407.117065 278.988281,405.779694 
	C278.135742,404.909088 277.654053,404.493683 277.172333,404.078308 
	C277.172333,404.078308 276.832581,404.010864 276.499908,403.802856 
	C275.439148,403.061890 274.711060,402.528961 273.982941,401.996063 
	C273.661469,401.795258 273.339996,401.594421 272.669861,400.938660 
	C267.430756,393.018829 267.602112,391.944336 274.416504,385.696869 
	C275.710114,384.510864 276.826660,383.131714 278.024902,381.841675 
	C278.493866,381.243500 278.962830,380.645294 279.936005,379.773834 
	C281.071320,379.025940 281.702423,378.551331 282.317108,378.063568 
	C282.300690,378.050415 282.327240,378.043304 282.737488,377.852966 
	C283.862946,376.624359 284.578156,375.586090 285.293365,374.547821 
	C284.755707,374.519592 284.218048,374.491394 283.680389,374.463165 
	C284.241241,373.889862 284.802094,373.316589 286.140594,373.037903 
	C286.900360,372.534393 286.882446,371.736298 286.864563,370.938202 
	C286.864563,370.938202 286.992340,370.971069 287.395081,371.298523 
	C287.840759,371.039398 287.883667,370.452820 287.926575,369.866272 
	C287.926544,369.866272 287.935486,369.959198 288.479065,370.169739 
	C289.004456,369.724701 288.986267,369.069092 288.968079,368.413483 
	C288.968079,368.413483 288.996674,368.477783 289.565796,368.721008 
	C290.189240,368.276581 290.243561,367.588928 290.297882,366.901306 
	C290.498444,366.303741 290.699036,365.706207 291.496948,365.555603 
	C292.452637,365.797699 292.810913,365.592834 293.169220,365.387970 
	C293.289062,365.071838 293.408905,364.755707 294.028107,364.386047 
	C297.841156,360.200562 301.175415,356.084900 304.462372,351.931854 
	C307.418274,348.197052 307.919891,344.427399 304.229950,340.859924 
	C300.920898,337.660706 297.803131,334.139557 294.053375,331.554962 
	C290.259949,328.940247 289.324097,326.101685 290.453644,321.850586 
	C291.852844,316.584778 292.848602,311.211792 294.018616,305.885101 
	C294.313507,303.935608 294.608398,301.986115 294.806152,299.444244 
	C295.765808,292.562653 296.822540,286.273407 297.956543,279.529266 
	C298.682007,267.245941 298.763824,255.450851 295.962677,243.825134 
	C295.231628,241.017548 294.500580,238.209946 293.649536,235.151138 
	C293.529480,234.899918 293.187256,234.687332 293.187256,234.687332 
	C293.187256,234.687332 293.213165,234.286163 293.213165,234.286163 
	C293.134155,234.121201 293.055176,233.956253 293.063110,233.109192 
	C291.481934,228.307663 289.836243,224.178696 288.085510,220.094696 
	C287.989105,219.869797 287.020020,220.018967 286.457153,219.994019 
	C286.124115,220.002090 285.920929,219.843628 286.337952,219.511780 
	C286.980194,218.900879 287.434387,218.166473 287.238556,217.712402 
	C284.422546,211.182709 281.526764,204.687256 278.572571,198.218994 
	C278.521881,198.108078 277.512299,198.435135 276.950165,198.557831 
	C276.950165,198.557831 276.977478,198.508301 277.581665,198.263580 
	C277.434631,197.169083 276.683411,196.319275 275.932190,195.469482 
	C275.932190,195.469482 275.993042,195.505905 276.455902,195.190155 
	C276.229950,194.260452 275.541168,193.646515 274.852386,193.032562 
	C274.852386,193.032562 274.927704,193.042664 275.305298,192.620636 
	C275.096619,191.963196 274.510315,191.727783 273.924011,191.492371 
	C273.924011,191.492371 273.989349,191.497238 274.497742,191.452301 
	C273.408112,188.361160 271.810120,185.314957 270.212097,182.268768 
	C270.134796,182.075089 270.057526,181.881424 269.887634,181.027802 
	C267.436523,175.821182 265.078033,171.274490 262.657898,166.354462 
	C255.736542,155.082947 248.990784,144.110184 241.938507,133.338104 
	C240.133926,130.581650 237.360153,128.459717 235.031647,126.046272 
	C232.803436,122.479813 230.536148,118.936897 228.365479,115.335732 
	C227.450470,113.817726 226.739304,112.176857 225.655365,110.037941 
	C224.921646,108.294388 224.468048,107.104729 224.014450,105.915077 
	C224.014450,105.915077 224.101761,105.938286 223.760620,105.841995 
	C223.276459,105.273247 223.244919,104.721558 222.973831,104.340111 
	C218.317627,97.788109 213.634949,91.254875 208.916656,84.747559 
	C208.858978,84.668030 208.260742,84.980446 207.914825,85.109917 
	C207.914825,85.109917 207.857513,85.095505 208.338531,84.954330 
	C208.590851,84.218918 208.362167,83.624680 208.080887,82.645065 
	C206.988693,76.858536 205.949112,71.457382 204.909546,66.056221 
	C205.298996,64.469627 205.688446,62.883038 206.143845,60.637901 
	C206.778732,59.415680 207.347672,58.852001 207.916611,58.288322 
	C207.942780,57.995327 207.968964,57.702335 208.218964,56.697296 
	C209.295990,55.218327 210.295670,54.563313 210.980118,53.667461 
	C219.499603,42.516518 230.746033,35.182178 243.726700,30.339563 
	C249.151505,28.315763 254.695694,26.612030 260.725281,24.668730 
	C261.301971,24.014002 261.339020,23.453312 261.376068,22.892622 
	C261.376068,22.892622 261.444092,22.879501 261.533264,23.507902 
	C272.838837,23.027224 284.034821,21.436371 295.278015,20.960619 
	C304.367737,20.575989 313.579468,22.385235 322.619904,21.692390 
	C335.254120,20.724121 347.382660,23.063511 359.582581,25.235157 
	C363.523163,25.936605 367.241058,27.889187 371.060822,29.269444 
	C372.406464,34.962242 374.085754,40.601562 375.009033,46.362057 
	C376.045074,52.826366 376.397797,59.400204 376.676453,66.534378 
	C376.788269,78.789818 377.249329,90.438332 377.811615,102.081940 
	C377.844147,102.755539 378.699310,103.389404 379.171631,104.041763 
	C379.171631,104.041763 379.017395,104.019096 378.784973,104.416214 
	C379.077637,104.848579 379.602692,104.883827 380.127747,104.919067 
	C380.127747,104.919067 380.053528,104.945786 379.717926,105.371674 
	C379.965027,105.838165 380.547760,105.878769 381.130463,105.919373 
	C381.130463,105.919380 381.007355,105.980286 380.504211,106.243355 
	C381.943085,109.529030 382.711182,109.784538 384.026611,107.845505 
	C384.026611,107.845505 384.154449,107.854935 383.585266,107.973404 
	C383.275635,108.732841 383.535187,109.373802 383.950684,110.316780 
	C385.037445,111.238327 385.968262,111.857849 387.274414,112.810104 
	C388.113831,112.912521 388.577942,112.682198 389.042084,112.451874 
	C389.042084,112.451889 389.016479,112.499779 388.599792,112.603317 
	C388.461212,113.185944 388.739319,113.665047 389.413422,114.550598 
	C390.877686,114.918892 391.945923,114.880745 393.014160,114.842590 
	C393.014160,114.842590 393.023621,114.900986 392.727295,115.507797 
	C393.144257,116.068954 393.857544,116.023315 394.570831,115.977669 
	C394.793060,115.858398 394.960205,115.911751 394.568848,116.761665 
	C394.760590,117.575104 395.455811,117.764595 396.151001,117.954086 
	C396.151001,117.954086 396.069885,117.951057 395.726196,118.373856 
	C395.965149,118.837837 396.547791,118.879021 397.130402,118.920204 
	C397.130402,118.920204 397.055511,118.944847 396.719635,119.369858 
	C396.966003,119.836693 397.548248,119.878517 398.130493,119.920341 
	C398.130493,119.920341 398.102417,119.959167 397.589142,120.063843 
	C397.366058,120.780731 397.656219,121.392944 398.093842,122.343552 
	C400.030823,124.058022 401.820343,125.434097 403.900574,126.638626 
	C404.112000,126.256477 404.032715,126.045876 403.953400,125.835274 
	C403.953400,125.835274 404.010651,125.801590 403.745667,126.457664 
	C404.177948,127.065491 404.875214,127.017235 405.572449,126.968987 
	C407.007446,128.276337 408.442474,129.583694 409.274017,131.346924 
	C409.499786,132.531113 410.328979,133.259430 411.158203,133.987762 
	C411.158203,133.987762 411.058289,133.973938 410.763123,134.371460 
	C411.020386,134.820618 411.572815,134.872269 412.125275,134.923920 
	C412.125275,134.923920 412.039459,134.980270 411.587830,135.130554 
	C412.610992,136.504379 414.085846,137.727936 415.560669,138.951492 
	C415.560669,138.951492 415.566467,138.882767 415.390045,139.443100 
	C415.576935,140.166351 415.940247,140.329269 416.303558,140.492172 
	C416.772552,140.744659 417.241547,140.997147 417.479370,142.053665 
	C417.577911,143.097321 417.907684,143.336945 418.237427,143.576553 
	C418.237427,143.576553 418.050598,143.460678 417.882080,143.690399 
	C418.397919,144.980347 419.082275,146.040543 419.869934,147.467926 
	C421.417053,148.722595 420.765656,152.432724 424.040131,150.853882 
	C424.040131,150.853882 424.069122,150.869507 423.599121,151.327423 
	C423.779053,152.026123 424.428986,152.266907 425.078888,152.507675 
	C425.078888,152.507675 425.013000,152.500931 424.425171,152.561920 
	C424.191437,153.753021 424.545532,154.883118 424.944519,156.382401 
	C427.012909,160.855728 429.036407,164.959900 431.059875,169.064072 
	C431.059875,169.064072 430.968658,169.096359 431.191620,168.917847 
	C431.514099,169.034378 431.613617,169.329422 431.713135,169.624451 
	C431.817993,170.449310 431.922821,171.274185 431.908813,172.932465 
	C432.618469,179.832809 433.380402,185.910065 434.318665,191.959976 
	C434.578003,193.631973 435.362183,195.222549 435.905579,196.850479 
	C435.926758,199.317978 435.947968,201.785461 435.579315,204.910965 
	C434.877869,209.023819 434.696198,212.496399 434.227997,215.929886 
	C433.225098,223.284119 432.074097,230.618164 430.983765,237.960480 
	C427.038513,248.246094 423.093292,258.531738 418.704346,269.339050 
	C415.836914,274.929962 413.413239,279.999207 410.989563,285.068481 
	C410.989563,285.068481 410.950104,284.952850 410.789062,285.203400 
	C410.017944,285.949066 409.192230,286.321503 408.830414,286.957764 
	C403.887726,295.649536 399.009186,304.377808 394.030670,313.663391 
	C394.313629,314.334106 394.680725,314.438538 395.047821,314.542969 
	C395.047821,314.542969 395.109741,314.564392 394.870636,314.118286 
	C394.077332,314.041870 393.523102,314.411621 392.658691,314.966156 
	C391.885345,315.980072 391.422150,316.809204 390.958954,317.638336 
	C391.359863,318.168976 391.760773,318.699615 391.225525,319.213379 
	C390.199158,319.845703 390.108917,320.494965 390.018677,321.144196 
	C390.018677,321.144196 390.020355,321.013153 389.660095,320.889557 
	C389.190491,321.587585 389.081177,322.409241 388.971863,323.230865 
	C381.717773,334.397491 374.463654,345.564087 366.695618,357.106354 
	C359.119873,366.991943 352.058044,376.501831 344.996277,386.011780 
	C343.510345,387.656647 342.024414,389.301514 340.025818,391.277588 
	C336.744324,394.628845 334.145386,397.829437 331.169006,400.628723 
	C326.031494,405.460724 320.659454,410.043396 315.385803,414.730682 
	C312.808350,414.814240 310.230865,414.897827 306.918579,414.665680 
	C299.557068,412.527100 292.930450,410.704254 286.303833,408.881409 
M371.477112,321.288300 
	C371.077271,324.017700 370.311737,326.764557 370.440918,329.468689 
	C370.500244,330.710480 372.121307,332.421051 373.402222,332.870880 
	C374.261383,333.172607 376.241547,331.931946 376.910156,330.870972 
	C383.458893,320.478943 390.116943,310.136780 396.131958,299.436432 
	C398.683990,294.896484 399.070282,289.559906 396.361633,283.762817 
	C394.836456,285.200897 393.837524,285.828766 393.269928,286.728699 
	C389.468506,292.755981 385.806458,298.871155 382.003967,304.897705 
	C379.179779,309.373627 376.212036,313.758942 372.509796,317.943695 
	C371.845734,317.452698 371.181671,316.961731 370.740417,315.827118 
	C373.584564,311.236237 376.428711,306.645355 379.851746,301.802917 
	C380.157562,301.062073 380.463379,300.321259 380.973511,298.942688 
	C384.701935,292.459045 388.649689,286.087128 392.040131,279.431366 
	C393.230804,277.093964 393.914917,273.864014 393.349548,271.378479 
	C391.129089,261.616730 385.876038,253.314697 379.414764,245.789658 
	C377.287964,243.312653 375.136963,243.266968 373.824432,246.717178 
	C371.254547,253.472672 368.427704,260.148926 366.244476,267.028473 
	C363.305847,276.288330 360.737274,285.674164 358.333588,295.088593 
	C357.803253,297.165924 358.125366,299.789734 358.929199,301.814850 
	C361.011169,307.059753 363.580688,312.111176 366.241760,317.897003 
	C368.068054,318.781494 369.894379,319.665985 371.477112,321.288300 
M337.144836,274.496826 
	C337.740601,275.008514 338.336395,275.520172 339.462921,276.410461 
	C340.984802,278.253082 342.506653,280.095673 344.133820,282.547485 
	C344.733673,283.038055 345.333496,283.528656 346.417725,284.454437 
	C347.603424,285.999115 348.789124,287.543793 350.050018,289.579346 
	C350.661926,289.840515 351.273865,290.101685 352.617065,290.202271 
	C354.201935,288.157257 355.786835,286.112244 357.932526,283.785736 
	C358.197968,283.030884 358.463409,282.276062 358.849945,280.801666 
	C362.679016,268.148102 366.735016,255.555176 370.145416,242.789764 
	C370.826630,240.239944 370.040649,235.772018 368.229523,234.338654 
	C358.872864,226.933548 349.161194,219.923050 339.160095,213.409454 
	C334.334808,210.266785 332.434631,211.854782 332.114380,217.720963 
	C331.506683,228.851761 331.243561,240.021408 330.079987,251.095352 
	C329.194000,259.527222 328.883453,267.324554 336.579742,273.010223 
	C336.821442,273.188782 336.905243,273.581085 337.144836,274.496826 
M369.848572,61.806599 
	C369.123230,55.690456 368.524628,49.555984 367.643250,43.462410 
	C366.280396,34.039623 363.098206,31.292929 353.782227,30.183044 
	C335.154877,27.963810 316.882141,30.289015 298.850220,34.620228 
	C290.991760,36.507801 283.256256,39.246853 275.820068,42.429176 
	C271.123260,44.439171 270.773865,48.353424 274.254333,52.161152 
	C275.997894,54.068684 278.243958,55.836864 280.615784,56.784103 
	C285.697449,58.813549 291.012909,60.254963 296.224518,61.961987 
	C304.430023,64.649643 313.214996,66.266296 320.705841,70.289230 
	C335.338226,78.147476 349.223511,87.392357 363.480377,95.959564 
	C365.358673,97.088272 367.602081,97.609459 369.676392,98.412025 
	C370.418640,96.135620 371.866730,93.832184 371.780792,91.587479 
	C371.412048,81.954803 370.591949,72.339394 369.848572,61.806599 
M339.104980,207.464951 
	C348.271606,213.485886 357.486267,219.435379 366.585052,225.557159 
	C371.309937,228.736145 373.230011,228.370483 374.006409,222.872757 
	C375.890259,209.533279 377.368713,196.136017 378.958008,182.755814 
	C379.447754,178.632690 377.779022,175.450195 373.937714,173.898026 
	C361.606049,168.915192 349.284882,163.885788 336.795044,159.325150 
	C331.662201,157.450912 330.455475,158.995911 330.759369,164.722260 
	C331.297424,174.861160 331.935333,185.006042 332.025085,195.152908 
	C332.072693,200.537781 333.615356,204.565506 339.104980,207.464951 
M308.209106,86.332161 
	C307.136078,83.182152 306.529144,79.750229 304.846802,76.968758 
	C303.427460,74.622200 301.080566,72.198334 298.592865,71.239929 
	C282.490845,65.036522 265.570892,62.295029 248.528076,60.219028 
	C244.289948,59.702778 243.040054,61.158279 244.959442,64.929459 
	C249.864639,74.567116 254.715271,84.255196 260.207886,93.556885 
	C261.773254,96.207779 265.215790,98.716141 268.221008,99.383881 
	C281.330902,102.296799 294.590302,104.543091 307.809875,106.952156 
	C311.783722,107.676331 313.722198,105.674896 312.845184,101.871346 
	C311.691101,96.865982 309.978851,91.989304 308.209106,86.332161 
M383.507080,194.001953 
	C381.678619,205.811615 379.580383,217.590027 378.205383,229.452271 
	C377.847656,232.538437 379.075012,236.295258 380.741577,239.033646 
	C384.961365,245.967361 389.805267,252.524979 394.494476,259.165985 
	C395.395691,260.442261 396.731781,261.411469 397.867249,262.522369 
	C398.935944,261.375153 400.545715,260.405792 400.990234,259.053406 
	C405.806946,244.399597 410.562592,229.722153 414.987488,214.947144 
	C415.621704,212.829529 415.136444,209.704300 413.942017,207.825699 
	C408.221680,198.828781 401.910370,190.237381 392.669617,184.411835 
	C386.427185,180.476501 384.569763,181.443054 384.096039,188.643234 
	C383.997925,190.134567 383.808319,191.619888 383.507080,194.001953 
M324.775208,128.696854 
	C325.916260,134.394699 326.565704,140.258087 328.404907,145.720886 
	C329.330414,148.469940 331.969666,151.561310 334.601349,152.660324 
	C347.165894,157.907516 359.994873,162.521271 372.726959,167.367737 
	C377.257294,169.092209 379.128387,168.087448 378.928528,163.180450 
	C378.577576,154.565857 377.693665,145.973648 377.076385,137.368958 
	C376.764221,133.017319 374.562958,130.448868 370.339844,129.207108 
	C357.147003,125.327942 344.025330,121.206238 330.825897,117.350227 
	C324.397369,115.472237 322.798431,117.004387 323.865631,123.438309 
	C324.110382,124.913872 324.365692,126.387695 324.775208,128.696854 
M300.805511,190.795135 
	C306.892731,193.035889 312.984039,195.265564 319.066010,197.520432 
	C325.427979,199.879089 327.172516,198.896774 326.879486,192.239502 
	C326.426208,181.941238 325.557892,171.660645 324.822723,161.375641 
	C324.517731,157.108322 322.362518,154.263657 318.176361,153.011215 
	C308.775757,150.198700 299.418945,147.234436 289.982666,144.548508 
	C283.888641,142.813919 282.275299,144.472397 283.656799,150.656204 
	C285.685883,159.738678 288.322021,168.727631 289.662506,177.907867 
	C290.653107,184.691940 293.155212,189.153854 300.805511,190.795135 
M347.159637,308.489410 
	C351.284790,301.324524 350.173431,295.110168 344.280090,289.285858 
	C340.513336,285.563202 337.474701,281.113312 333.835358,277.247650 
	C332.371521,275.692749 330.174072,274.828583 328.310486,273.650055 
	C327.368713,275.651611 326.079926,277.564209 325.540283,279.668884 
	C321.419037,295.741974 318.123077,312.068420 313.107147,327.851044 
	C310.936218,334.681946 311.586517,339.137848 316.356110,343.849396 
	C320.447968,347.891449 321.928467,348.076630 325.122559,343.189941 
	C332.481567,331.931213 339.618652,320.527496 347.159637,308.489410 
M292.762848,403.877258 
	C295.785461,404.784729 298.753021,406.098022 301.841888,406.517334 
	C308.804260,407.462463 316.384033,408.672974 320.361633,400.905548 
	C322.467957,396.792358 324.424835,391.549316 323.718079,387.267090 
	C322.222839,378.206909 319.539734,369.207458 316.204651,360.625854 
	C313.138214,352.735626 311.477753,352.901581 306.669281,359.608612 
	C305.508362,361.227875 304.331482,362.853271 303.000183,364.329987 
	C295.662048,372.469604 288.319550,380.606262 280.884918,388.657532 
	C276.674103,393.217621 276.639130,394.917938 281.909668,398.393311 
	C285.061981,400.471985 288.632599,401.916290 292.762848,403.877258 
M280.414825,136.140488 
	C280.799225,136.457520 281.135315,136.937500 281.575073,137.067825 
	C293.668243,140.652267 305.737640,144.325989 317.897949,147.668594 
	C320.960388,148.510391 322.131042,146.195267 321.613373,143.417999 
	C320.183167,135.744675 318.583740,128.103027 317.080505,120.443115 
	C316.091858,115.405739 313.116547,112.778473 307.983826,112.022675 
	C298.626495,110.644798 289.306152,109.003654 279.992218,107.349472 
	C276.890900,106.798676 273.883759,105.720558 270.783569,105.159943 
	C267.779236,104.616661 265.955048,105.823151 267.409668,109.027618 
	C271.455139,117.939629 275.713531,126.754997 280.414825,136.140488 
M413.231506,151.320572 
	C405.196869,146.425781 397.205231,141.457291 389.081940,136.714310 
	C387.839661,135.988983 385.542023,135.651321 384.549377,136.329681 
	C383.613525,136.969269 383.413910,139.201050 383.479706,140.706635 
	C383.863281,149.481476 384.662476,158.244354 384.820923,167.020309 
	C384.905212,171.691422 386.781921,174.419754 390.479797,177.217453 
	C397.960114,182.876831 404.805786,189.371124 411.984406,195.436798 
	C413.287903,196.538147 414.931061,197.237427 416.417389,198.122314 
	C417.186829,196.567017 418.637695,195.002457 418.616699,193.457916 
	C418.463776,182.211349 418.243622,170.953476 417.493683,159.736023 
	C417.312561,157.026382 415.070465,154.454498 413.231506,151.320572 
M323.965637,205.558533 
	C315.144806,202.149902 306.361267,198.639267 297.481842,195.390747 
	C294.573242,194.326660 292.910339,195.999542 293.121918,198.968597 
	C293.488220,204.110123 293.938812,209.257706 294.659821,214.359543 
	C296.482727,227.258408 299.427338,239.595718 311.435364,247.425705 
	C313.761108,248.942230 315.373047,251.518326 317.602753,253.229813 
	C319.048798,254.339767 321.120911,255.466751 322.714355,255.233368 
	C323.639679,255.097824 324.699860,252.318573 324.799561,250.674408 
	C325.593231,237.580765 326.264709,224.477188 326.703918,211.367615 
	C326.762543,209.616684 325.310089,207.815155 323.965637,205.558533 
M371.534698,111.240959 
	C369.815460,109.683197 368.279144,107.836319 366.347504,106.614265 
	C353.120209,98.245979 339.835571,89.967278 326.506073,81.762527 
	C323.680969,80.023598 320.666595,78.532890 317.595825,77.279625 
	C316.238495,76.725670 314.523041,77.049187 312.970184,76.974365 
	C312.916168,78.392426 312.516724,79.902199 312.864929,81.213455 
	C314.915405,88.935547 317.159790,96.605911 319.297668,104.305138 
	C320.379486,108.201210 322.824768,110.436005 326.768616,111.517563 
	C338.947723,114.857521 351.039886,118.517357 363.237671,121.784500 
	C366.432770,122.640297 369.889038,122.521164 373.225342,122.849762 
	C372.792328,119.196785 372.359314,115.543816 371.534698,111.240959 
M314.342651,307.706635 
	C316.864197,295.684448 319.628571,283.704498 321.731934,271.609589 
	C322.240936,268.682770 321.462585,264.690186 319.702332,262.394440 
	C316.524994,258.250427 312.240906,254.923218 308.232117,251.472015 
	C307.295227,250.665451 305.610504,250.727570 304.269836,250.390015 
	C303.964050,251.608871 303.289307,252.864822 303.407562,254.041061 
	C305.322449,273.088409 303.653412,291.827667 298.870758,310.332123 
	C297.873779,314.189667 297.014557,318.086517 296.216492,321.990723 
	C295.419586,325.889221 298.048889,328.793030 303.163513,329.941528 
	C306.880280,330.776093 307.696808,328.133148 308.548340,325.534485 
	C310.410553,319.851135 312.247833,314.159668 314.342651,307.706635 
M245.342850,95.192017 
	C247.576462,95.185074 249.810089,95.178139 252.043701,95.171196 
	C251.519058,92.869171 251.432434,90.344406 250.394485,88.303421 
	C245.725800,79.122993 241.156891,69.853363 235.786163,61.084988 
	C233.187988,56.843159 229.052322,53.465282 225.256073,50.098431 
	C224.464050,49.395992 221.638321,49.898983 220.533005,50.803528 
	C207.641327,61.353519 210.664383,83.057541 225.992996,89.283615 
	C231.969223,91.711006 238.343079,93.159439 245.342850,95.192017 
M362.608337,327.735413 
	C361.044312,322.239807 359.622650,316.696960 357.826111,311.278473 
	C357.313416,309.732025 355.712799,308.546295 354.611084,307.195160 
	C353.403259,308.434570 351.939453,309.510559 351.027618,310.938965 
	C342.897583,323.674835 334.966736,336.539001 326.739532,349.211060 
	C324.374329,352.854126 323.165070,356.237183 325.148071,360.366699 
	C325.934326,362.004028 326.392731,363.803894 326.945618,365.547180 
	C328.576080,370.687958 330.268066,371.336731 333.424561,367.221527 
	C343.232178,354.435181 352.718018,341.402008 362.608337,327.735413 
M227.522995,99.065437 
	C232.525055,107.273445 237.344040,115.602737 242.649109,123.610001 
	C244.098938,125.798332 246.784988,127.604248 249.294464,128.563187 
	C254.552231,130.572327 260.027649,132.066650 265.493073,133.461212 
	C270.332550,134.696060 272.094849,132.902969 270.144409,128.340820 
	C266.954926,120.880394 263.361938,113.572014 259.516907,106.426727 
	C258.553925,104.637238 256.162659,103.129410 254.117157,102.497093 
	C246.828522,100.244003 239.439072,98.279839 232.003510,96.573631 
	C230.674866,96.268761 228.945450,97.710556 227.522995,99.065437 
M266.689270,30.127296 
	C257.791779,32.813881 248.669525,34.934563 240.062927,38.353401 
	C232.169434,41.488979 232.035141,46.293839 238.932465,51.393402 
	C240.367401,52.454334 242.119766,53.292988 243.851807,53.706749 
	C249.349457,55.020069 254.876968,56.261623 260.449310,57.193924 
	C265.880585,58.102615 266.960358,56.801765 266.034912,51.280369 
	C264.768921,43.727348 266.734924,39.516357 273.619751,36.307713 
	C278.132050,34.204777 282.909576,32.676090 287.534149,30.805771 
	C289.042389,30.195791 290.442780,29.319231 291.892517,28.564598 
	C291.702515,27.923552 291.512543,27.282503 291.322540,26.641457 
	C283.389893,27.754585 275.457214,28.867714 266.689270,30.127296 
M265.142059,138.292343 
	C262.886536,137.705948 260.658722,136.924423 258.366150,136.598557 
	C256.706879,136.362717 254.961624,136.731552 253.254715,136.830734 
	C253.699341,138.515060 253.790955,140.410355 254.649612,141.847275 
	C258.401978,148.126602 262.484467,154.208618 266.239838,160.486267 
	C269.740662,166.338379 272.738800,172.505417 276.476624,178.193130 
	C277.637878,179.960159 280.492004,180.614624 282.571136,181.778427 
	C282.979919,179.631226 284.097504,177.332092 283.675415,175.362991 
	C281.795502,166.592484 279.301941,157.954514 277.372070,149.193344 
	C275.969940,142.827972 272.310242,139.315170 265.142059,138.292343 
M408.728790,251.179581 
	C406.429901,256.516663 403.765808,261.734863 401.974792,267.237244 
	C400.966980,270.333466 401.109589,273.918030 401.331696,277.242706 
	C401.416351,278.510406 403.171478,279.666504 404.165314,280.873444 
	C405.167480,279.880157 406.534546,279.063416 407.113953,277.865631 
	C411.739136,268.304382 416.321869,258.719299 420.704987,249.045227 
	C424.593079,240.463623 422.323456,231.758820 420.671051,223.124496 
	C420.583374,222.666367 419.772461,222.346634 418.353271,221.197006 
	C415.097595,231.381256 412.049866,240.914978 408.728790,251.179581 
M340.523285,381.014282 
	C347.588074,371.753540 354.919312,362.678345 361.569550,353.128906 
	C363.822845,349.893250 364.592346,345.515015 365.531189,341.538788 
	C365.817780,340.325073 364.407166,338.710602 363.773804,337.279663 
	C362.578125,338.014526 361.037140,338.484558 360.239380,339.524658 
	C350.717407,351.939026 341.210907,364.368622 331.972565,376.993439 
	C330.655365,378.793488 330.531860,381.628113 330.345123,384.022095 
	C330.259735,385.116364 331.105316,386.871674 332.003754,387.278778 
	C332.804962,387.641846 334.455444,386.805145 335.384827,386.063782 
	C337.067810,384.721283 338.493011,383.055695 340.523285,381.014282 
M422.405670,177.421463 
	C422.223053,185.867218 422.193329,194.320038 421.804138,202.756271 
	C421.543671,208.402679 422.334290,213.526199 426.390869,217.917328 
	C431.467682,210.988266 429.013428,177.903259 422.653625,171.959778 
	C422.503052,173.843307 422.393311,175.215988 422.405670,177.421463 
M390.425293,131.066467 
	C392.257538,131.764969 394.089783,132.463470 395.922028,133.161987 
	C396.388367,132.525391 396.854736,131.888794 397.321075,131.252197 
	C393.508087,127.636887 389.767426,123.939575 385.830048,120.465233 
	C384.872803,119.620575 383.268341,119.509438 381.961456,119.061028 
	C381.760284,120.605591 380.814453,122.843468 381.491333,123.570465 
	C383.958710,126.220428 386.968079,128.365753 390.425293,131.066467 
z"/>
<path fill="#262626" opacity="1.000000" stroke="none" 
	d="
M1393.767334,197.075974 
	C1375.746948,192.211807 1359.044922,195.238815 1343.240479,203.606445 
	C1337.116577,206.848755 1331.570679,211.195435 1325.815552,215.118317 
	C1321.179077,218.278641 1318.801514,222.170486 1318.843628,228.363052 
	C1319.138916,271.679932 1319.001953,314.999756 1318.997925,358.318634 
	C1318.997314,364.979858 1318.984375,364.986176 1312.500854,364.997925 
	C1307.335938,365.007324 1302.158081,364.774841 1297.010010,365.069641 
	C1292.935303,365.303040 1291.529907,363.636108 1291.987427,359.828064 
	C1292.066284,359.171143 1291.997925,358.496552 1291.997925,357.830109 
	C1291.997803,269.192993 1292.044678,180.555817 1291.881592,91.919014 
	C1291.871826,86.583923 1293.122803,84.107666 1298.732422,83.446938 
	C1305.277466,82.676018 1311.699341,80.858902 1318.814087,79.361107 
	C1318.814087,118.924782 1318.814087,157.826736 1318.814087,198.129715 
	C1323.495361,194.437057 1327.118042,191.447449 1330.875488,188.638229 
	C1347.590820,176.141129 1366.189331,168.383118 1387.262329,169.132477 
	C1418.132690,170.230240 1437.546997,186.863708 1442.924805,217.967514 
	C1443.767700,222.842331 1443.946533,227.880035 1443.955688,232.843307 
	C1444.033325,274.662567 1444.002075,316.481995 1443.997437,358.301392 
	C1443.996704,364.979248 1443.982788,364.984924 1437.515869,364.998047 
	C1432.850708,365.007538 1428.165283,364.728424 1423.526245,365.076538 
	C1419.010986,365.415375 1417.900146,363.628967 1417.918335,359.336639 
	C1418.065552,324.682190 1417.983521,290.026794 1418.008667,255.371704 
	C1418.017944,242.570190 1418.313843,229.730759 1413.948975,217.423065 
	C1410.489502,207.668274 1404.350586,200.408752 1393.767334,197.075974 
z"/>
<path fill="#262626" opacity="1.000000" stroke="none" 
	d="
M758.397583,194.379257 
	C764.128357,190.108841 769.181335,185.342499 775.068970,182.084457 
	C808.846863,163.392883 842.783081,163.969070 875.260376,184.506424 
	C893.721680,196.180618 905.035461,214.293625 910.588074,235.493668 
	C916.914978,259.649719 917.288513,283.955566 908.840271,307.659790 
	C895.842224,344.130005 870.423706,365.771240 831.311646,370.045013 
	C801.754395,373.274689 775.995361,365.109558 755.174866,343.547668 
	C742.370300,330.287231 735.045227,314.029327 731.491272,296.005707 
	C726.179810,269.068909 728.407837,242.908295 741.083069,218.387421 
	C745.516663,209.810364 752.361572,202.479752 758.397583,194.379257 
M756.737305,256.226929 
	C755.031738,269.888611 755.460754,283.472809 759.183960,296.753998 
	C769.117920,332.190063 797.498962,351.177094 833.436401,345.667267 
	C858.297058,341.855743 874.484070,326.269043 883.083923,302.964050 
	C890.571350,282.673706 890.680847,261.926208 884.530518,241.333786 
	C874.270752,206.982361 844.884827,188.484894 810.309753,194.302612 
	C778.952148,199.578934 760.508301,225.111450 756.737305,256.226929 
z"/>
<path fill="#262626" opacity="1.000000" stroke="none" 
	d="
M623.007324,228.000000 
	C623.007202,197.349365 622.904663,167.198029 623.110352,137.048798 
	C623.143616,132.173553 621.632629,130.862946 616.872314,130.900284 
	C590.554626,131.106750 564.233826,130.908951 537.915710,131.085449 
	C533.438293,131.115479 531.559082,129.966217 531.916504,125.227058 
	C532.291260,120.257957 532.236084,115.224205 531.929504,110.245758 
	C531.665894,105.964333 533.428650,104.914429 537.440125,104.930023 
	C569.755798,105.055725 602.072144,104.999847 634.388306,104.999741 
	C668.203674,104.999634 702.019409,105.083038 735.833862,104.904388 
	C740.548889,104.879486 742.475586,106.077423 742.084900,111.022598 
	C741.692444,115.988976 741.769409,121.024162 742.068115,126.003548 
	C742.314087,130.103561 740.589111,131.076782 736.808716,131.059906 
	C710.489929,130.942291 684.170349,130.996017 657.851013,131.000687 
	C651.013062,131.001907 651.001953,131.011444 651.001709,137.826752 
	C650.998962,211.121109 651.000549,284.415466 650.999207,357.709808 
	C650.999084,364.994354 650.993713,364.996002 643.613098,364.999420 
	C638.449158,365.001831 633.269592,364.749939 628.126099,365.074036 
	C623.676575,365.354431 622.924011,363.286224 622.944580,359.429993 
	C623.070801,335.776581 623.007446,312.122162 623.007324,288.468079 
	C623.007263,268.478729 623.007324,248.489365 623.007324,228.000000 
z"/>
<path fill="#262626" opacity="1.000000" stroke="none" 
	d="
M1109.773438,332.194977 
	C1100.466431,317.589966 1095.799683,301.869659 1093.847656,285.081665 
	C1091.019409,260.759216 1094.419556,237.510956 1106.130615,216.036758 
	C1120.914429,188.928192 1144.194580,173.788956 1174.882202,169.958450 
	C1197.308472,167.159134 1218.515015,171.125885 1238.758179,180.894547 
	C1239.507812,181.256256 1240.216797,181.718597 1240.991333,182.009949 
	C1246.109375,183.935257 1246.858887,187.202896 1244.928223,192.157516 
	C1242.847412,197.497116 1241.567383,203.148712 1239.787720,209.172684 
	C1233.845215,206.279129 1228.809326,203.375015 1223.451782,201.302216 
	C1206.752075,194.841156 1189.518555,191.692703 1171.737549,195.665756 
	C1149.568848,200.619232 1134.157349,214.169876 1126.587280,235.338455 
	C1117.317383,261.260284 1117.703003,287.450043 1130.335327,312.295715 
	C1139.981567,331.268158 1156.089844,342.168427 1177.436157,345.063507 
	C1198.816284,347.963165 1218.179932,342.130371 1236.617310,331.932648 
	C1237.586426,331.396637 1238.642944,331.018982 1240.351929,330.259613 
	C1242.092773,338.068848 1243.839478,345.437225 1245.253662,352.868896 
	C1245.421265,353.749939 1243.987915,355.324982 1242.927856,355.990845 
	C1230.451050,363.826996 1216.535522,367.602356 1202.175049,369.874237 
	C1186.500000,372.354187 1171.043091,370.834015 1155.863281,366.419739 
	C1136.412109,360.763397 1121.347046,349.114197 1109.773438,332.194977 
z"/>
<path fill="#262626" opacity="1.000000" stroke="none" 
	d="
M1028.808594,196.585800 
	C1017.680786,200.570389 1009.940918,208.284439 1003.131409,216.961426 
	C999.659546,221.385376 996.868652,226.363235 993.959900,231.204803 
	C989.790344,238.144836 987.700806,245.390762 987.810547,253.836151 
	C988.262878,288.639099 988.002136,323.451355 987.997925,358.260193 
	C987.997131,364.988770 987.985596,364.992340 981.064026,364.998840 
	C975.901001,365.003662 970.732117,364.848206 965.576904,365.048737 
	C962.091492,365.184296 960.890930,363.852844 960.945740,360.399841 
	C961.101746,350.575928 960.997681,340.747894 960.997620,330.921478 
	C960.997314,280.956635 961.072021,230.991531 960.882629,181.027405 
	C960.863586,176.028961 962.390259,173.813385 967.268127,173.082520 
	C973.944702,172.082092 980.544556,170.569702 987.905029,169.134857 
	C987.905029,181.709976 987.905029,193.755081 987.905029,205.800201 
	C988.259033,205.891190 988.613037,205.982193 988.966980,206.073181 
	C991.583923,202.173416 993.970093,198.092621 996.860657,194.407471 
	C1005.881714,182.906876 1016.631409,173.700333 1031.356201,170.429764 
	C1046.608154,167.042130 1061.069580,169.679291 1074.756714,176.901077 
	C1075.729248,177.414246 1076.839844,179.263657 1076.618774,180.188858 
	C1074.847778,187.601242 1072.771606,194.940674 1070.566650,203.127029 
	C1057.335815,195.574814 1043.727173,192.662460 1028.808594,196.585800 
z"/>
<path fill="#262626" opacity="1.000000" stroke="none" 
	d="
M1533.993408,311.000000 
	C1533.993042,327.492432 1533.844116,343.487091 1534.087280,359.475830 
	C1534.155640,363.969116 1532.640869,365.309998 1528.327393,365.077087 
	C1522.513550,364.763214 1516.669434,364.929474 1510.840210,365.017670 
	C1508.078003,365.059448 1506.832031,363.915466 1506.998779,361.155975 
	C1507.068970,359.994324 1507.000488,358.824524 1507.000488,357.658417 
	C1506.999878,275.863831 1506.999390,194.069244 1507.000854,112.274651 
	C1507.000977,105.005478 1507.007324,105.002884 1514.405762,105.000320 
	C1519.569946,104.998535 1524.736572,105.099281 1529.897583,104.971855 
	C1532.899658,104.897736 1534.195312,106.098167 1534.006104,109.096634 
	C1533.890991,110.921623 1533.993286,112.760162 1533.993286,114.592613 
	C1533.993774,179.895081 1533.993652,245.197540 1533.993408,311.000000 
z"/>
<path fill="#EDEDED" opacity="1.000000" stroke="none" 
	d="
M371.374634,29.074276 
	C367.241058,27.889187 363.523163,25.936605 359.582581,25.235157 
	C347.382660,23.063511 335.254120,20.724121 322.619904,21.692390 
	C313.579468,22.385235 304.367737,20.575989 295.278015,20.960619 
	C284.034821,21.436371 272.838837,23.027224 261.541962,23.541451 
	C269.237946,21.619024 276.976227,19.563892 284.800781,19.153515 
	C293.968048,18.672710 303.208130,19.742437 312.420868,19.918789 
	C321.044525,20.083864 329.713928,19.439507 338.289825,20.101721 
	C347.998108,20.851374 357.660980,22.458427 367.252991,24.193665 
	C368.958221,24.502153 370.221252,27.254982 371.374634,29.074276 
z"/>
<path fill="#DCDCDC" opacity="1.000000" stroke="none" 
	d="
M260.185608,24.762770 
	C254.695694,26.612030 249.151505,28.315763 243.726700,30.339563 
	C230.746033,35.182178 219.499603,42.516518 210.980118,53.667461 
	C210.295670,54.563313 209.295990,55.218327 208.373688,56.284073 
	C211.209778,46.694752 219.095047,41.656776 227.017441,36.142265 
	C236.897141,29.265327 248.107483,26.414795 259.672913,23.488449 
	C260.135101,24.228165 260.160370,24.495468 260.185608,24.762770 
z"/>
<path fill="#D0D0D0" opacity="1.000000" stroke="none" 
	d="
M293.653656,306.039124 
	C292.848602,311.211792 291.852844,316.584778 290.453644,321.850586 
	C289.324097,326.101685 290.259949,328.940247 294.053375,331.554962 
	C297.803131,334.139557 300.920898,337.660706 304.229950,340.859924 
	C307.919891,344.427399 307.418274,348.197052 304.462372,351.931854 
	C301.175415,356.084900 297.841156,360.200562 294.167755,364.420959 
	C294.942749,362.051910 295.843140,359.444672 297.287201,357.184875 
	C298.418884,355.413910 300.498505,354.258362 301.679230,352.507294 
	C305.721008,346.513184 303.457916,339.440094 296.202789,335.130096 
	C294.175354,333.925629 291.893646,333.147736 289.873993,331.932556 
	C289.039795,331.430634 287.921631,330.154510 288.064575,329.465302 
	C289.678894,321.681580 291.513306,313.943481 293.653656,306.039124 
z"/>
<path fill="#D8D8D8" opacity="1.000000" stroke="none" 
	d="
M234.999466,126.411728 
	C237.360153,128.459717 240.133926,130.581650 241.938507,133.338104 
	C248.990784,144.110184 255.736542,155.082947 262.272644,166.417252 
	C261.692902,166.899384 261.436798,166.945374 261.180664,166.991364 
	C255.735397,158.478317 250.329971,149.939423 244.829651,141.462082 
	C241.620651,136.516220 238.259811,131.668854 234.999466,126.411728 
z"/>
<path fill="#D8D8D8" opacity="1.000000" stroke="none" 
	d="
M315.782959,414.776123 
	C320.659454,410.043396 326.031494,405.460724 331.169006,400.628723 
	C334.145386,397.829437 336.744324,394.628845 339.685944,391.324829 
	C339.897217,397.521515 333.476898,399.747742 330.883392,404.548798 
	C329.437317,407.225769 326.958221,409.350372 324.913422,411.696716 
	C322.593597,414.358612 319.796234,415.750885 315.782959,414.776123 
z"/>
<path fill="#D8D8D8" opacity="1.000000" stroke="none" 
	d="
M345.341217,385.888000 
	C352.058044,376.501831 359.119873,366.991943 366.481659,357.396271 
	C364.880096,360.493652 363.186493,363.825867 361.033539,366.828766 
	C356.607819,373.001587 351.950836,379.009308 347.334534,385.043274 
	C347.015686,385.459991 346.246124,385.531952 345.341217,385.888000 
z"/>
<path fill="#D0D0D0" opacity="1.000000" stroke="none" 
	d="
M394.114807,313.097107 
	C399.009186,304.377808 403.887726,295.649536 408.830414,286.957764 
	C409.192230,286.321503 410.017944,285.949066 410.846191,285.181824 
	C407.778381,291.742188 404.610535,298.635468 401.145142,305.375763 
	C399.853699,307.887634 397.866882,310.041962 395.607300,312.692566 
	C394.716644,313.049530 394.415741,313.073334 394.114807,313.097107 
z"/>
<path fill="#D0D0D0" opacity="1.000000" stroke="none" 
	d="
M277.641235,381.940704 
	C276.826660,383.131714 275.710114,384.510864 274.416504,385.696869 
	C267.602112,391.944336 267.430756,393.018829 272.628113,400.643494 
	C270.651978,398.716217 266.979950,396.904877 266.494934,394.460968 
	C266.051849,392.228302 268.707306,389.003143 270.649445,386.786957 
	C272.390656,384.800110 275.020050,383.591614 277.641235,381.940704 
z"/>
<path fill="#D0D0D0" opacity="1.000000" stroke="none" 
	d="
M207.919159,85.478775 
	C208.260742,84.980446 208.858978,84.668030 208.916656,84.747559 
	C213.634949,91.254875 218.317627,97.788109 222.973831,104.340111 
	C223.244919,104.721558 223.276459,105.273247 223.752533,105.886444 
	C221.035965,103.451447 217.471573,101.277176 215.069107,98.196724 
	C212.172073,94.482140 210.261200,89.998436 207.919159,85.478775 
z"/>
<path fill="#EDEDED" opacity="1.000000" stroke="none" 
	d="
M295.590576,244.026260 
	C298.763824,255.450851 298.682007,267.245941 297.691193,279.512634 
	C297.171417,279.946991 296.994232,279.942993 296.817078,279.938965 
	C296.201996,269.184052 295.573700,258.429871 294.991211,247.673203 
	C294.929443,246.532043 295.136261,245.376343 295.590576,244.026260 
z"/>
<path fill="#DCDCDC" opacity="1.000000" stroke="none" 
	d="
M431.292725,237.725830 
	C432.074097,230.618164 433.225098,223.284119 434.227997,215.929886 
	C434.696198,212.496399 434.877869,209.023819 435.542664,205.372498 
	C434.922485,215.279236 433.972473,225.384857 432.925323,235.480423 
	C432.851837,236.188812 432.059662,236.822662 431.292725,237.725830 
z"/>
<path fill="#EDEDED" opacity="1.000000" stroke="none" 
	d="
M379.097443,103.575302 
	C378.699310,103.389404 377.844147,102.755539 377.811615,102.081940 
	C377.249329,90.438332 376.788269,78.789818 376.675964,66.972183 
	C377.709839,70.674965 378.807495,74.532501 378.945618,78.424103 
	C379.237396,86.642914 379.027405,94.879532 379.097443,103.575302 
z"/>
<path fill="#D8D8D8" opacity="1.000000" stroke="none" 
	d="
M276.957764,198.952240 
	C277.512299,198.435135 278.521881,198.108078 278.572571,198.218994 
	C281.526764,204.687256 284.422546,211.182709 287.238556,217.712402 
	C287.434387,218.166473 286.980194,218.900879 286.390564,219.309723 
	C282.957062,212.525238 279.961243,205.935944 276.957764,198.952240 
z"/>
<path fill="#D8D8D8" opacity="1.000000" stroke="none" 
	d="
M286.297668,409.281647 
	C292.930450,410.704254 299.557068,412.527100 306.442078,414.584229 
	C299.716064,415.700439 293.205261,414.073608 286.985077,411.023224 
	C286.621948,410.845184 286.516754,410.141144 286.297668,409.281647 
z"/>
<path fill="#DCDCDC" opacity="1.000000" stroke="none" 
	d="
M435.936218,196.394730 
	C435.362183,195.222549 434.578003,193.631973 434.318665,191.959976 
	C433.380402,185.910065 432.618469,179.832809 431.889465,173.351562 
	C436.947052,179.976334 436.030914,188.031342 435.936218,196.394730 
z"/>
<path fill="#D0D0D0" opacity="1.000000" stroke="none" 
	d="
M411.332764,284.956635 
	C413.413239,279.999207 415.836914,274.929962 418.468079,269.644653 
	C416.342377,274.567291 414.009155,279.706055 411.332764,284.956635 
z"/>
<path fill="#D0D0D0" opacity="1.000000" stroke="none" 
	d="
M261.209625,167.349533 
	C261.436798,166.945374 261.692902,166.899384 262.334290,166.790588 
	C265.078033,171.274490 267.436523,175.821182 269.903442,180.715408 
	C264.629730,178.225677 264.123993,172.185074 261.209625,167.349533 
z"/>
<path fill="#DCDCDC" opacity="1.000000" stroke="none" 
	d="
M296.446411,280.156342 
	C296.994232,279.942993 297.171417,279.946991 297.613953,279.967590 
	C296.822540,286.273407 295.765808,292.562653 295.019440,299.145355 
	C295.578461,293.083801 295.827087,286.728760 296.446411,280.156342 
z"/>
<path fill="#D0D0D0" opacity="1.000000" stroke="none" 
	d="
M430.965942,168.647430 
	C429.036407,164.959900 427.012909,160.855728 425.272461,156.363708 
	C425.773865,155.958557 425.992188,155.941284 426.210480,155.923996 
	C427.764313,160.026245 429.318146,164.128510 430.965942,168.647430 
z"/>
<path fill="#D0D0D0" opacity="1.000000" stroke="none" 
	d="
M286.684692,220.328186 
	C287.020020,220.018967 287.989105,219.869797 288.085510,220.094696 
	C289.836243,224.178696 291.481934,228.307663 293.088074,232.835968 
	C290.988159,229.050720 288.950165,224.856537 286.684692,220.328186 
z"/>
<path fill="#EDEDED" opacity="1.000000" stroke="none" 
	d="
M204.514252,66.213173 
	C205.949112,71.457382 206.988693,76.858536 207.755310,82.668053 
	C207.264786,83.079086 207.047211,83.081757 206.829620,83.084435 
	C205.926071,77.513000 205.022537,71.941559 204.514252,66.213173 
z"/>
<path fill="#D0D0D0" opacity="1.000000" stroke="none" 
	d="
M403.609863,126.810173 
	C401.820343,125.434097 400.030823,124.058022 398.469910,122.330795 
	C399.199799,121.961197 399.701050,121.942734 400.202301,121.924286 
	C400.631012,122.242538 401.059692,122.560791 401.864258,123.160690 
	C402.430023,123.684563 402.665253,123.869102 402.945740,123.995956 
	C402.945740,123.995956 403.079041,124.371941 403.140503,125.100037 
	C403.337952,126.155472 403.473907,126.482819 403.609863,126.810173 
z"/>
<path fill="#D0D0D0" opacity="1.000000" stroke="none" 
	d="
M270.478333,182.501526 
	C271.810120,185.314957 273.408112,188.361160 274.470825,191.470993 
	C272.871857,188.601181 271.808197,185.667725 270.478333,182.501526 
z"/>
<path fill="#DCDCDC" opacity="1.000000" stroke="none" 
	d="
M424.051331,150.507843 
	C420.765656,152.432724 421.417053,148.722595 420.119934,147.276749 
	C420.541534,146.401794 420.816467,146.085220 421.091370,145.768631 
	C422.081757,147.233017 423.072144,148.697403 424.051331,150.507843 
z"/>
<path fill="#D0D0D0" opacity="1.000000" stroke="none" 
	d="
M415.290192,138.726181 
	C414.085846,137.727936 412.610992,136.504379 411.636841,135.115417 
	C413.098267,136.133621 414.058990,137.317245 415.290192,138.726181 
z"/>
<path fill="#D0D0D0" opacity="1.000000" stroke="none" 
	d="
M421.084778,145.569229 
	C420.816467,146.085220 420.541534,146.401794 420.016632,146.909546 
	C419.082275,146.040543 418.397919,144.980347 417.941498,143.597916 
	C418.349945,143.042038 418.530518,142.808365 419.058289,143.162201 
	C419.916931,144.164978 420.428375,144.580261 420.939850,144.995544 
	C420.939850,144.995544 421.078156,145.369827 421.084778,145.569229 
z"/>
<path fill="#D0D0D0" opacity="1.000000" stroke="none" 
	d="
M224.129700,106.224388 
	C224.468048,107.104729 224.921646,108.294388 225.668884,109.665329 
	C225.390015,108.742310 224.817490,107.638008 224.129700,106.224388 
z"/>
<path fill="#D8D8D8" opacity="1.000000" stroke="none" 
	d="
M383.944702,107.535034 
	C382.711182,109.784538 381.943085,109.529030 380.564941,106.216522 
	C382.040100,106.359268 382.951447,106.791908 383.944702,107.535034 
z"/>
<path fill="#D8D8D8" opacity="1.000000" stroke="none" 
	d="
M383.794739,110.014771 
	C383.535187,109.373802 383.275635,108.732841 383.586975,108.037476 
	C385.267517,108.637161 386.377167,109.291252 387.625427,110.087219 
	C387.597992,110.266716 387.431976,110.304329 386.681702,110.272591 
	C385.329865,110.140419 384.562317,110.077591 383.794739,110.014771 
z"/>
<path fill="#D0D0D0" opacity="1.000000" stroke="none" 
	d="
M283.371399,374.402191 
	C284.218048,374.491394 284.755707,374.519592 285.293365,374.547821 
	C284.578156,375.586090 283.862946,376.624359 282.640015,377.286682 
	C282.060730,376.535645 281.989166,376.160583 281.917603,375.785522 
	C282.299194,375.304077 282.680786,374.822662 283.371399,374.402191 
z"/>
<path fill="#D0D0D0" opacity="1.000000" stroke="none" 
	d="
M274.180969,402.207458 
	C274.711060,402.528961 275.439148,403.061890 276.459900,403.634338 
	C275.961365,403.255493 275.170197,402.837158 274.180969,402.207458 
z"/>
<path fill="#DCDCDC" opacity="1.000000" stroke="none" 
	d="
M207.885223,58.520771 
	C207.347672,58.852001 206.778732,59.415680 206.293182,60.235386 
	C206.869003,59.912014 207.361420,59.332615 207.885223,58.520771 
z"/>
<path fill="#D0D0D0" opacity="1.000000" stroke="none" 
	d="
M282.333527,378.076721 
	C281.702423,378.551331 281.071320,379.025940 280.232239,379.747803 
	C280.137360,379.408752 280.250488,378.822449 280.997131,378.124176 
	C281.864929,378.033752 282.099243,378.055267 282.333527,378.076721 
z"/>
<path fill="#D0D0D0" opacity="1.000000" stroke="none" 
	d="
M391.384430,318.066406 
	C391.422150,316.809204 391.885345,315.980072 392.743408,315.458893 
	C393.381378,316.383057 393.624481,316.999298 393.867584,317.615509 
	C393.181671,317.908478 392.495789,318.201447 391.384430,318.066406 
z"/>
<path fill="#DCDCDC" opacity="1.000000" stroke="none" 
	d="
M394.122314,317.383606 
	C393.624481,316.999298 393.381378,316.383057 393.053589,315.274109 
	C393.523102,314.411621 394.077332,314.041870 394.860901,314.149567 
	C394.852539,315.468536 394.614807,316.310120 394.122314,317.383606 
z"/>
<path fill="#D0D0D0" opacity="1.000000" stroke="none" 
	d="
M277.327881,404.257080 
	C277.654053,404.493683 278.135742,404.909088 278.679047,405.564026 
	C278.321594,405.347626 277.902496,404.891754 277.327881,404.257080 
z"/>
<path fill="#D8D8D8" opacity="1.000000" stroke="none" 
	d="
M400.087646,121.648712 
	C399.701050,121.942734 399.199799,121.961197 398.322479,121.992401 
	C397.656219,121.392944 397.366058,120.780731 397.612762,120.067871 
	C398.757416,120.435867 399.365204,120.904503 400.087646,121.648712 
z"/>
<path fill="#D8D8D8" opacity="1.000000" stroke="none" 
	d="
M392.952820,114.555359 
	C391.945923,114.880745 390.877686,114.918892 389.963074,114.490677 
	C390.482941,113.984467 390.849182,113.944603 391.215424,113.904747 
	C391.774109,114.025871 392.332794,114.146996 392.952820,114.555359 
z"/>
<path fill="#DCDCDC" opacity="1.000000" stroke="none" 
	d="
M426.143311,155.546341 
	C425.992188,155.941284 425.773865,155.958557 425.227570,155.994537 
	C424.545532,154.883118 424.191437,153.753021 424.451721,152.542084 
	C425.402740,153.363739 425.739410,154.266220 426.143311,155.546341 
z"/>
<path fill="#DCDCDC" opacity="1.000000" stroke="none" 
	d="
M420.933472,144.667740 
	C420.428375,144.580261 419.916931,144.164978 419.433929,143.396927 
	C419.950623,143.476074 420.438873,143.908005 420.933472,144.667740 
z"/>
<path fill="#D0D0D0" opacity="1.000000" stroke="none" 
	d="
M206.866806,83.397583 
	C207.047211,83.081757 207.264786,83.079086 207.807922,83.053421 
	C208.362167,83.624680 208.590851,84.218918 208.339691,84.924805 
	C207.541245,84.594543 207.222626,84.152641 206.866806,83.397583 
z"/>
<path fill="#DCDCDC" opacity="1.000000" stroke="none" 
	d="
M282.317108,378.063599 
	C282.099243,378.055267 281.864929,378.033752 281.278198,377.994202 
	C281.055634,377.341827 281.185577,376.707520 281.616547,375.929352 
	C281.989166,376.160583 282.060730,376.535645 282.229767,377.476990 
	C282.327240,378.043304 282.300690,378.050415 282.317108,378.063599 
z"/>
<path fill="#DCDCDC" opacity="1.000000" stroke="none" 
	d="
M390.373962,321.107910 
	C390.108917,320.494965 390.199158,319.845703 390.799072,319.402863 
	C391.115631,320.096710 390.922455,320.584167 390.373962,321.107910 
z"/>
<path fill="#DCDCDC" opacity="1.000000" stroke="none" 
	d="
M389.281555,323.083282 
	C389.081177,322.409241 389.190491,321.587585 389.725586,320.891113 
	C389.964630,321.656067 389.777924,322.295898 389.281555,323.083282 
z"/>
<path fill="#DCDCDC" opacity="1.000000" stroke="none" 
	d="
M286.453125,371.141968 
	C286.882446,371.736298 286.900360,372.534393 286.331970,373.368347 
	C285.844360,372.718018 285.943054,372.031891 286.453125,371.141968 
z"/>
<path fill="#D8D8D8" opacity="1.000000" stroke="none" 
	d="
M389.034576,112.062546 
	C388.577942,112.682198 388.113831,112.912521 387.384460,112.326294 
	C387.254364,111.208214 387.389557,110.906693 387.636902,110.477692 
	C387.749084,110.350212 387.923889,110.641403 387.923889,110.641403 
	C388.291626,110.985336 388.659363,111.329277 389.034576,112.062546 
z"/>
<path fill="#DCDCDC" opacity="1.000000" stroke="none" 
	d="
M418.666504,143.565216 
	C417.907684,143.336945 417.577911,143.097321 417.425903,142.272644 
	C417.874817,141.471024 418.146027,141.254440 418.417236,141.037872 
	C418.643372,141.876541 418.869476,142.715210 418.666504,143.565216 
z"/>
<path fill="#D8D8D8" opacity="1.000000" stroke="none" 
	d="
M411.119171,133.624344 
	C410.328979,133.259430 409.499786,132.531113 409.364777,131.628662 
	C410.399353,132.056671 410.739746,132.658798 411.119171,133.624344 
z"/>
<path fill="#D0D0D0" opacity="1.000000" stroke="none" 
	d="
M274.881378,193.398102 
	C275.541168,193.646515 276.229950,194.260452 276.437439,195.220459 
	C275.607544,194.965530 275.258942,194.364578 274.881378,193.398102 
z"/>
<path fill="#D8D8D8" opacity="1.000000" stroke="none" 
	d="
M275.932678,195.898529 
	C276.683411,196.319275 277.434631,197.169083 277.562897,198.289505 
	C276.604340,197.815948 276.268738,197.071747 275.932678,195.898529 
z"/>
<path fill="#302C36" opacity="1.000000" stroke="none" 
	d="
M387.900085,110.579956 
	C387.923889,110.641403 387.749084,110.350212 387.599213,110.404205 
	C387.449341,110.458199 387.265961,110.341934 387.265961,110.341934 
	C387.431976,110.304329 387.597992,110.266716 387.765137,110.478455 
	C387.766235,110.727814 387.876251,110.518501 387.900085,110.579956 
z"/>
<path fill="#D0D0D0" opacity="1.000000" stroke="none" 
	d="
M391.066101,113.589722 
	C390.849182,113.944603 390.482941,113.984467 389.567047,114.084236 
	C388.739319,113.665047 388.461212,113.185944 388.619080,112.582077 
	C389.675629,112.729767 390.296204,113.002235 391.066101,113.589722 
z"/>
<path fill="#DCDCDC" opacity="1.000000" stroke="none" 
	d="
M289.886108,366.954163 
	C290.243561,367.588928 290.189240,368.276581 289.533203,368.734253 
	C289.112457,368.005219 289.293396,367.506104 289.886108,366.954163 
z"/>
<path fill="#EDEDED" opacity="1.000000" stroke="none" 
	d="
M260.725281,24.668730 
	C260.160370,24.495468 260.135101,24.228165 260.063843,23.560757 
	C260.241516,23.103941 260.465210,23.047226 261.032501,22.941566 
	C261.339020,23.453312 261.301971,24.014002 260.725281,24.668730 
z"/>
<path fill="#DCDCDC" opacity="1.000000" stroke="none" 
	d="
M425.061462,152.153030 
	C424.428986,152.266907 423.779053,152.026123 423.614258,151.333969 
	C424.414276,151.187851 424.729156,151.493118 425.061462,152.153030 
z"/>
<path fill="#D0D0D0" opacity="1.000000" stroke="none" 
	d="
M431.571838,169.529465 
	C431.613617,169.329422 431.514099,169.034378 431.172638,168.873352 
	C431.023621,169.235916 431.190247,169.378281 431.571838,169.529465 
z"/>
<path fill="#DCDCDC" opacity="1.000000" stroke="none" 
	d="
M416.705688,140.419006 
	C415.940247,140.329269 415.576935,140.166351 415.424500,139.444855 
	C416.126190,139.372787 416.617035,139.859314 416.705688,140.419006 
z"/>
<path fill="#D0D0D0" opacity="1.000000" stroke="none" 
	d="
M412.064575,134.654922 
	C411.572815,134.872269 411.020386,134.820618 410.771912,134.321793 
	C411.385193,134.045059 411.694550,134.215500 412.064575,134.654922 
z"/>
<path fill="#D8D8D8" opacity="1.000000" stroke="none" 
	d="
M405.335876,126.749680 
	C404.875214,127.017235 404.177948,127.065491 403.767395,126.482819 
	C404.402466,126.078056 404.750916,126.304214 405.335876,126.749680 
z"/>
<path fill="#D0D0D0" opacity="1.000000" stroke="none" 
	d="
M273.934509,191.851501 
	C274.510315,191.727783 275.096619,191.963196 275.297791,192.657883 
	C274.590088,192.814972 274.267578,192.512802 273.934509,191.851501 
z"/>
<path fill="#DCDCDC" opacity="1.000000" stroke="none" 
	d="
M287.662476,369.938049 
	C287.883667,370.452820 287.840759,371.039398 287.332184,371.275055 
	C287.043793,370.619385 287.221069,370.314575 287.662476,369.938049 
z"/>
<path fill="#DCDCDC" opacity="1.000000" stroke="none" 
	d="
M288.752655,368.659790 
	C288.986267,369.069092 289.004456,369.724701 288.432434,370.171967 
	C288.073914,369.611115 288.305573,369.258575 288.752655,368.659790 
z"/>
<path fill="#DCDCDC" opacity="1.000000" stroke="none" 
	d="
M394.030701,313.663391 
	C394.415741,313.073334 394.716644,313.049530 395.470093,313.015350 
	C395.775787,313.363342 395.628876,313.721741 395.264893,314.311584 
	C394.680725,314.438538 394.313629,314.334106 394.030701,313.663391 
z"/>
<path fill="#DCDCDC" opacity="1.000000" stroke="none" 
	d="
M293.527954,364.950806 
	C292.810913,365.592834 292.452637,365.797699 291.764496,365.478638 
	C292.252014,364.807678 293.069366,364.660645 293.527954,364.950806 
z"/>
<path fill="#D8D8D8" opacity="1.000000" stroke="none" 
	d="
M394.335358,115.757263 
	C393.857544,116.023315 393.144257,116.068954 392.745300,115.484329 
	C393.406372,115.081657 393.753143,115.309258 394.335358,115.757263 
z"/>
<path fill="#D8D8D8" opacity="1.000000" stroke="none" 
	d="
M380.048615,104.655441 
	C379.602692,104.883827 379.077637,104.848579 378.796417,104.339111 
	C379.350006,104.040527 379.659729,104.216171 380.048615,104.655441 
z"/>
<path fill="#D8D8D8" opacity="1.000000" stroke="none" 
	d="
M381.061768,105.655037 
	C380.547760,105.878769 379.965027,105.838165 379.729614,105.334007 
	C380.382324,105.043869 380.687683,105.217285 381.061768,105.655037 
z"/>
<path fill="#D8D8D8" opacity="1.000000" stroke="none" 
	d="
M403.900604,126.638626 
	C403.473907,126.482819 403.337952,126.155472 403.145874,125.299408 
	C403.372986,124.954498 403.656250,125.138313 403.946442,125.578697 
	C404.032715,126.045876 404.112000,126.256477 403.900604,126.638626 
z"/>
<path fill="#D8D8D8" opacity="1.000000" stroke="none" 
	d="
M402.967590,123.708717 
	C402.665253,123.869102 402.430023,123.684563 402.124268,123.248299 
	C402.335449,123.176666 402.662476,123.299072 402.967590,123.708717 
z"/>
<path fill="#D0D0D0" opacity="1.000000" stroke="none" 
	d="
M293.302094,234.382812 
	C293.213165,234.286163 293.187256,234.687332 293.187256,234.687332 
	C293.187256,234.687332 293.529480,234.899918 293.700653,234.795654 
	C293.712677,234.618256 293.552399,234.547607 293.302094,234.382812 
z"/>
<path fill="#D8D8D8" opacity="1.000000" stroke="none" 
	d="
M398.062195,119.656265 
	C397.548248,119.878517 396.966003,119.836693 396.732025,119.332436 
	C397.384827,119.044060 397.689392,119.218124 398.062195,119.656265 
z"/>
<path fill="#D8D8D8" opacity="1.000000" stroke="none" 
	d="
M397.061951,118.655838 
	C396.547791,118.879021 395.965149,118.837837 395.730286,118.333488 
	C396.383179,118.044037 396.688354,118.217758 397.061951,118.655838 
z"/>
<path fill="#D8D8D8" opacity="1.000000" stroke="none" 
	d="
M396.051819,117.644508 
	C395.455811,117.764595 394.760590,117.575104 394.544128,116.907639 
	C395.332825,116.731430 395.642731,117.033180 396.051819,117.644508 
z"/>
<path fill="#000000" opacity="1.000000" stroke="none" 
	d="
M1696.083008,125.993179 
	C1732.568604,120.472610 1763.916870,129.674225 1788.430908,157.216507 
	C1803.991455,174.699005 1811.544556,196.036362 1814.101074,219.289932 
	C1816.389893,240.106796 1814.985718,260.480133 1807.755493,280.180115 
	C1794.465088,316.392365 1769.463867,339.339294 1730.720581,344.954956 
	C1695.520874,350.056946 1665.125732,339.629456 1641.438477,312.693237 
	C1627.862671,297.255554 1620.557739,278.537872 1617.006836,258.341827 
	C1612.953857,235.290100 1614.639282,212.633820 1622.163696,190.531708 
	C1626.479614,177.854111 1633.204468,166.448456 1642.097900,156.291977 
	C1656.447266,139.904617 1674.349854,130.010040 1696.083008,125.993179 
z"/>
<path fill="#B8B8B8" opacity="1.000000" stroke="none" 
	d="
M369.892456,62.262146 
	C370.591949,72.339394 371.412048,81.954803 371.780792,91.587479 
	C371.866730,93.832184 370.418640,96.135620 369.676392,98.412025 
	C367.602081,97.609459 365.358673,97.088272 363.480377,95.959564 
	C349.223511,87.392357 335.338226,78.147476 320.705841,70.289230 
	C313.214996,66.266296 304.430023,64.649643 296.224518,61.961987 
	C291.012909,60.254963 285.697449,58.813549 280.615784,56.784103 
	C278.243958,55.836864 275.997894,54.068684 274.254333,52.161152 
	C270.773865,48.353424 271.123260,44.439171 275.820068,42.429176 
	C283.256256,39.246853 290.991760,36.507801 298.850220,34.620228 
	C316.882141,30.289015 335.154877,27.963810 353.782227,30.183044 
	C363.098206,31.292929 366.280396,34.039623 367.643250,43.462410 
	C368.524628,49.555984 369.123230,55.690456 369.892456,62.262146 
z"/>
<path fill="#7F2CE1" opacity="1.000000" stroke="none" 
	d="
M338.797913,207.265259 
	C333.615356,204.565506 332.072693,200.537781 332.025085,195.152908 
	C331.935333,185.006042 331.297424,174.861160 330.759369,164.722260 
	C330.455475,158.995911 331.662201,157.450912 336.795044,159.325150 
	C349.284882,163.885788 361.606049,168.915192 373.937714,173.898026 
	C377.779022,175.450195 379.447754,178.632690 378.958008,182.755814 
	C377.368713,196.136017 375.890259,209.533279 374.006409,222.872757 
	C373.230011,228.370483 371.309937,228.736145 366.585052,225.557159 
	C357.486267,219.435379 348.271606,213.485886 338.797913,207.265259 
z"/>
<path fill="#7F2CE1" opacity="1.000000" stroke="none" 
	d="
M349.974854,289.088501 
	C348.789124,287.543793 347.603424,285.999115 346.116058,283.940735 
	C345.219116,282.930786 344.623810,282.434540 344.028534,281.938293 
	C342.506653,280.095673 340.984802,278.253082 339.137665,275.923462 
	C338.229156,274.915527 337.645905,274.394623 337.062653,273.873749 
	C336.905243,273.581085 336.821442,273.188782 336.579742,273.010223 
	C328.883453,267.324554 329.194000,259.527222 330.079987,251.095352 
	C331.243561,240.021408 331.506683,228.851761 332.114380,217.720963 
	C332.434631,211.854782 334.334808,210.266785 339.160095,213.409454 
	C349.161194,219.923050 358.872864,226.933548 368.229523,234.338654 
	C370.040649,235.772018 370.826630,240.239944 370.145416,242.789764 
	C366.735016,255.555176 362.679016,268.148102 358.541168,281.341614 
	C357.945496,282.610107 357.658600,283.338654 357.371704,284.067230 
	C355.786835,286.112244 354.201935,288.157257 352.089050,290.029327 
	C351.032318,289.600403 350.503571,289.344452 349.974854,289.088501 
z"/>
<path fill="#7F2CE1" opacity="1.000000" stroke="none" 
	d="
M308.357849,86.694733 
	C309.978851,91.989304 311.691101,96.865982 312.845184,101.871346 
	C313.722198,105.674896 311.783722,107.676331 307.809875,106.952156 
	C294.590302,104.543091 281.330902,102.296799 268.221008,99.383881 
	C265.215790,98.716141 261.773254,96.207779 260.207886,93.556885 
	C254.715271,84.255196 249.864639,74.567116 244.959442,64.929459 
	C243.040054,61.158279 244.289948,59.702778 248.528076,60.219028 
	C265.570892,62.295029 282.490845,65.036522 298.592865,71.239929 
	C301.080566,72.198334 303.427460,74.622200 304.846802,76.968758 
	C306.529144,79.750229 307.136078,83.182152 308.357849,86.694733 
z"/>
<path fill="#7E2CE0" opacity="1.000000" stroke="none" 
	d="
M383.583984,193.554962 
	C383.808319,191.619888 383.997925,190.134567 384.096039,188.643234 
	C384.569763,181.443054 386.427185,180.476501 392.669617,184.411835 
	C401.910370,190.237381 408.221680,198.828781 413.942017,207.825699 
	C415.136444,209.704300 415.621704,212.829529 414.987488,214.947144 
	C410.562592,229.722153 405.806946,244.399597 400.990234,259.053406 
	C400.545715,260.405792 398.935944,261.375153 397.867249,262.522369 
	C396.731781,261.411469 395.395691,260.442261 394.494476,259.165985 
	C389.805267,252.524979 384.961365,245.967361 380.741577,239.033646 
	C379.075012,236.295258 377.847656,232.538437 378.205383,229.452271 
	C379.580383,217.590027 381.678619,205.811615 383.583984,193.554962 
z"/>
<path fill="#7F2CE1" opacity="1.000000" stroke="none" 
	d="
M324.695679,128.279587 
	C324.365692,126.387695 324.110382,124.913872 323.865631,123.438309 
	C322.798431,117.004387 324.397369,115.472237 330.825897,117.350227 
	C344.025330,121.206238 357.147003,125.327942 370.339844,129.207108 
	C374.562958,130.448868 376.764221,133.017319 377.076385,137.368958 
	C377.693665,145.973648 378.577576,154.565857 378.928528,163.180450 
	C379.128387,168.087448 377.257294,169.092209 372.726959,167.367737 
	C359.994873,162.521271 347.165894,157.907516 334.601349,152.660324 
	C331.969666,151.561310 329.330414,148.469940 328.404907,145.720886 
	C326.565704,140.258087 325.916260,134.394699 324.695679,128.279587 
z"/>
<path fill="#7F2CE1" opacity="1.000000" stroke="none" 
	d="
M300.443207,190.658569 
	C293.155212,189.153854 290.653107,184.691940 289.662506,177.907867 
	C288.322021,168.727631 285.685883,159.738678 283.656799,150.656204 
	C282.275299,144.472397 283.888641,142.813919 289.982666,144.548508 
	C299.418945,147.234436 308.775757,150.198700 318.176361,153.011215 
	C322.362518,154.263657 324.517731,157.108322 324.822723,161.375641 
	C325.557892,171.660645 326.426208,181.941238 326.879486,192.239502 
	C327.172516,198.896774 325.427979,199.879089 319.066010,197.520432 
	C312.984039,195.265564 306.892731,193.035889 300.443207,190.658569 
z"/>
<path fill="#7E2CDF" opacity="1.000000" stroke="none" 
	d="
M379.272858,302.054474 
	C376.428711,306.645355 373.584564,311.236237 370.268311,316.290527 
	C368.515991,316.915924 367.235779,317.077881 365.955536,317.239838 
	C363.580688,312.111176 361.011169,307.059753 358.929199,301.814850 
	C358.125366,299.789734 357.803253,297.165924 358.333588,295.088593 
	C360.737274,285.674164 363.305847,276.288330 366.244476,267.028473 
	C368.427704,260.148926 371.254547,253.472672 373.824432,246.717178 
	C375.136963,243.266968 377.287964,243.312653 379.414764,245.789658 
	C385.876038,253.314697 391.129089,261.616730 393.349548,271.378479 
	C393.914917,273.864014 393.230804,277.093964 392.040131,279.431366 
	C388.649689,286.087128 384.701935,292.459045 380.610626,299.425293 
	C379.922791,300.623413 379.597809,301.338959 379.272858,302.054474 
z"/>
<path fill="#7E2CDF" opacity="1.000000" stroke="none" 
	d="
M347.002686,308.835999 
	C339.618652,320.527496 332.481567,331.931213 325.122559,343.189941 
	C321.928467,348.076630 320.447968,347.891449 316.356110,343.849396 
	C311.586517,339.137848 310.936218,334.681946 313.107147,327.851044 
	C318.123077,312.068420 321.419037,295.741974 325.540283,279.668884 
	C326.079926,277.564209 327.368713,275.651611 328.310486,273.650055 
	C330.174072,274.828583 332.371521,275.692749 333.835358,277.247650 
	C337.474701,281.113312 340.513336,285.563202 344.280090,289.285858 
	C350.173431,295.110168 351.284790,301.324524 347.002686,308.835999 
z"/>
<path fill="#B7B7B7" opacity="1.000000" stroke="none" 
	d="
M292.389038,403.761475 
	C288.632599,401.916290 285.061981,400.471985 281.909668,398.393311 
	C276.639130,394.917938 276.674103,393.217621 280.884918,388.657532 
	C288.319550,380.606262 295.662048,372.469604 303.000183,364.329987 
	C304.331482,362.853271 305.508362,361.227875 306.669281,359.608612 
	C311.477753,352.901581 313.138214,352.735626 316.204651,360.625854 
	C319.539734,369.207458 322.222839,378.206909 323.718079,387.267090 
	C324.424835,391.549316 322.467957,396.792358 320.361633,400.905548 
	C316.384033,408.672974 308.804260,407.462463 301.841888,406.517334 
	C298.753021,406.098022 295.785461,404.784729 292.389038,403.761475 
z"/>
<path fill="#7E2CE0" opacity="1.000000" stroke="none" 
	d="
M280.151306,135.874512 
	C275.713531,126.754997 271.455139,117.939629 267.409668,109.027618 
	C265.955048,105.823151 267.779236,104.616661 270.783569,105.159943 
	C273.883759,105.720558 276.890900,106.798676 279.992218,107.349472 
	C289.306152,109.003654 298.626495,110.644798 307.983826,112.022675 
	C313.116547,112.778473 316.091858,115.405739 317.080505,120.443115 
	C318.583740,128.103027 320.183167,135.744675 321.613373,143.417999 
	C322.131042,146.195267 320.960388,148.510391 317.897949,147.668594 
	C305.737640,144.325989 293.668243,140.652267 281.575073,137.067825 
	C281.135315,136.937500 280.799225,136.457520 280.151306,135.874512 
z"/>
<path fill="#7E2CE0" opacity="1.000000" stroke="none" 
	d="
M413.503784,151.569916 
	C415.070465,154.454498 417.312561,157.026382 417.493683,159.736023 
	C418.243622,170.953476 418.463776,182.211349 418.616699,193.457916 
	C418.637695,195.002457 417.186829,196.567017 416.417419,198.122314 
	C414.931061,197.237427 413.287903,196.538147 411.984406,195.436798 
	C404.805786,189.371124 397.960114,182.876831 390.479797,177.217453 
	C386.781921,174.419754 384.905212,171.691422 384.820923,167.020309 
	C384.662476,158.244354 383.863281,149.481476 383.479706,140.706635 
	C383.413910,139.201050 383.613525,136.969269 384.549377,136.329681 
	C385.542023,135.651321 387.839661,135.988983 389.081940,136.714310 
	C397.205231,141.457291 405.196869,146.425781 413.503784,151.569916 
z"/>
<path fill="#7E2CE0" opacity="1.000000" stroke="none" 
	d="
M324.261505,205.797791 
	C325.310089,207.815155 326.762543,209.616684 326.703918,211.367615 
	C326.264709,224.477188 325.593231,237.580765 324.799561,250.674408 
	C324.699860,252.318573 323.639679,255.097824 322.714355,255.233368 
	C321.120911,255.466751 319.048798,254.339767 317.602753,253.229813 
	C315.373047,251.518326 313.761108,248.942230 311.435364,247.425705 
	C299.427338,239.595718 296.482727,227.258408 294.659821,214.359543 
	C293.938812,209.257706 293.488220,204.110123 293.121918,198.968597 
	C292.910339,195.999542 294.573242,194.326660 297.481842,195.390747 
	C306.361267,198.639267 315.144806,202.149902 324.261505,205.797791 
z"/>
<path fill="#7E2CDE" opacity="1.000000" stroke="none" 
	d="
M371.730499,111.565903 
	C372.359314,115.543816 372.792328,119.196785 373.225342,122.849762 
	C369.889038,122.521164 366.432770,122.640297 363.237671,121.784500 
	C351.039886,118.517357 338.947723,114.857521 326.768616,111.517563 
	C322.824768,110.436005 320.379486,108.201210 319.297668,104.305138 
	C317.159790,96.605911 314.915405,88.935547 312.864929,81.213455 
	C312.516724,79.902199 312.916168,78.392426 312.970184,76.974365 
	C314.523041,77.049187 316.238495,76.725670 317.595825,77.279625 
	C320.666595,78.532890 323.680969,80.023598 326.506073,81.762527 
	C339.835571,89.967278 353.120209,98.245979 366.347504,106.614265 
	C368.279144,107.836319 369.815460,109.683197 371.730499,111.565903 
z"/>
<path fill="#7E2CDE" opacity="1.000000" stroke="none" 
	d="
M314.218994,308.089050 
	C312.247833,314.159668 310.410553,319.851135 308.548340,325.534485 
	C307.696808,328.133148 306.880280,330.776093 303.163513,329.941528 
	C298.048889,328.793030 295.419586,325.889221 296.216492,321.990723 
	C297.014557,318.086517 297.873779,314.189667 298.870758,310.332123 
	C303.653412,291.827667 305.322449,273.088409 303.407562,254.041061 
	C303.289307,252.864822 303.964050,251.608871 304.269836,250.390015 
	C305.610504,250.727570 307.295227,250.665451 308.232117,251.472015 
	C312.240906,254.923218 316.524994,258.250427 319.702332,262.394440 
	C321.462585,264.690186 322.240936,268.682770 321.731934,271.609589 
	C319.628571,283.704498 316.864197,295.684448 314.218994,308.089050 
z"/>
<path fill="#7D2CDD" opacity="1.000000" stroke="none" 
	d="
M244.939331,95.122894 
	C238.343079,93.159439 231.969223,91.711006 225.992996,89.283615 
	C210.664383,83.057541 207.641327,61.353519 220.533005,50.803528 
	C221.638321,49.898983 224.464050,49.395992 225.256073,50.098431 
	C229.052322,53.465282 233.187988,56.843159 235.786163,61.084988 
	C241.156891,69.853363 245.725800,79.122993 250.394485,88.303421 
	C251.432434,90.344406 251.519058,92.869171 252.043701,95.171204 
	C249.810089,95.178139 247.576462,95.185074 244.939331,95.122894 
z"/>
<path fill="#7D2CDC" opacity="1.000000" stroke="none" 
	d="
M362.468506,328.100006 
	C352.718018,341.402008 343.232178,354.435181 333.424561,367.221527 
	C330.268066,371.336731 328.576080,370.687958 326.945618,365.547180 
	C326.392731,363.803894 325.934326,362.004028 325.148071,360.366699 
	C323.165070,356.237183 324.374329,352.854126 326.739532,349.211060 
	C334.966736,336.539001 342.897583,323.674835 351.027618,310.938965 
	C351.939453,309.510559 353.403259,308.434570 354.611084,307.195160 
	C355.712799,308.546295 357.313416,309.732025 357.826111,311.278473 
	C359.622650,316.696960 361.044312,322.239807 362.468506,328.100006 
z"/>
<path fill="#7D2CDD" opacity="1.000000" stroke="none" 
	d="
M227.462036,98.705643 
	C228.945450,97.710556 230.674866,96.268761 232.003510,96.573631 
	C239.439072,98.279839 246.828522,100.244003 254.117157,102.497093 
	C256.162659,103.129410 258.553925,104.637238 259.516907,106.426727 
	C263.361938,113.572014 266.954926,120.880394 270.144409,128.340820 
	C272.094849,132.902969 270.332550,134.696060 265.493073,133.461212 
	C260.027649,132.066650 254.552231,130.572327 249.294464,128.563187 
	C246.784988,127.604248 244.098938,125.798332 242.649109,123.610001 
	C237.344040,115.602737 232.525055,107.273445 227.462036,98.705643 
z"/>
<path fill="#7D2CDC" opacity="1.000000" stroke="none" 
	d="
M267.106934,30.054070 
	C275.457214,28.867714 283.389893,27.754585 291.322540,26.641457 
	C291.512543,27.282503 291.702515,27.923552 291.892517,28.564598 
	C290.442780,29.319231 289.042389,30.195791 287.534149,30.805771 
	C282.909576,32.676090 278.132050,34.204777 273.619751,36.307713 
	C266.734924,39.516357 264.768921,43.727348 266.034912,51.280369 
	C266.960358,56.801765 265.880585,58.102615 260.449310,57.193924 
	C254.876968,56.261623 249.349457,55.020069 243.851807,53.706749 
	C242.119766,53.292988 240.367401,52.454334 238.932465,51.393402 
	C232.035141,46.293839 232.169434,41.488979 240.062927,38.353401 
	C248.669525,34.934563 257.791779,32.813881 267.106934,30.054070 
z"/>
<path fill="#7C2CDA" opacity="1.000000" stroke="none" 
	d="
M265.533936,138.395813 
	C272.310242,139.315170 275.969940,142.827972 277.372070,149.193344 
	C279.301941,157.954514 281.795502,166.592484 283.675415,175.362991 
	C284.097504,177.332092 282.979919,179.631226 282.571136,181.778427 
	C280.492004,180.614624 277.637878,179.960159 276.476624,178.193130 
	C272.738800,172.505417 269.740662,166.338379 266.239838,160.486267 
	C262.484467,154.208618 258.401978,148.126602 254.649612,141.847275 
	C253.790955,140.410355 253.699341,138.515060 253.254715,136.830734 
	C254.961624,136.731552 256.706879,136.362717 258.366150,136.598557 
	C260.658722,136.924423 262.886536,137.705948 265.533936,138.395813 
z"/>
<path fill="#7B2CD8" opacity="1.000000" stroke="none" 
	d="
M408.865479,250.814148 
	C412.049866,240.914978 415.097595,231.381256 418.353271,221.197006 
	C419.772461,222.346634 420.583374,222.666367 420.671051,223.124496 
	C422.323456,231.758820 424.593079,240.463623 420.704987,249.045227 
	C416.321869,258.719299 411.739136,268.304382 407.113953,277.865631 
	C406.534546,279.063416 405.167480,279.880157 404.165314,280.873444 
	C403.171478,279.666504 401.416351,278.510406 401.331696,277.242706 
	C401.109589,273.918030 400.966980,270.333466 401.974792,267.237244 
	C403.765808,261.734863 406.429901,256.516663 408.865479,250.814148 
z"/>
<path fill="#792BD4" opacity="1.000000" stroke="none" 
	d="
M340.274536,381.269653 
	C338.493011,383.055695 337.067810,384.721283 335.384827,386.063782 
	C334.455444,386.805145 332.804962,387.641846 332.003754,387.278778 
	C331.105316,386.871674 330.259735,385.116364 330.345123,384.022095 
	C330.531860,381.628113 330.655365,378.793488 331.972565,376.993439 
	C341.210907,364.368622 350.717407,351.939026 360.239380,339.524658 
	C361.037140,338.484558 362.578125,338.014526 363.773804,337.279663 
	C364.407166,338.710602 365.817780,340.325073 365.531189,341.538788 
	C364.592346,345.515015 363.822845,349.893250 361.569550,353.128906 
	C354.919312,362.678345 347.588074,371.753540 340.274536,381.269653 
z"/>
<path fill="#792BD4" opacity="1.000000" stroke="none" 
	d="
M373.308228,318.184601 
	C376.212036,313.758942 379.179779,309.373627 382.003967,304.897705 
	C385.806458,298.871155 389.468506,292.755981 393.269928,286.728699 
	C393.837524,285.828766 394.836456,285.200897 396.361633,283.762817 
	C399.070282,289.559906 398.683990,294.896484 396.131958,299.436432 
	C390.116943,310.136780 383.458893,320.478943 376.910156,330.870972 
	C376.241547,331.931946 374.261383,333.172607 373.402222,332.870880 
	C372.121307,332.421051 370.500244,330.710480 370.440918,329.468689 
	C370.311737,326.764557 371.077271,324.017700 371.827332,320.746216 
	C372.554443,319.530975 372.931335,318.857788 373.308228,318.184601 
z"/>
<path fill="#792BD4" opacity="1.000000" stroke="none" 
	d="
M422.344604,177.005066 
	C422.393311,175.215988 422.503052,173.843307 422.653625,171.959778 
	C429.013428,177.903259 431.467682,210.988266 426.390869,217.917328 
	C422.334290,213.526199 421.543671,208.402679 421.804138,202.756271 
	C422.193329,194.320038 422.223053,185.867218 422.344604,177.005066 
z"/>
<path fill="#792BD4" opacity="1.000000" stroke="none" 
	d="
M390.099213,130.883865 
	C386.968079,128.365753 383.958710,126.220428 381.491333,123.570465 
	C380.814453,122.843468 381.760284,120.605591 381.961456,119.061028 
	C383.268341,119.509438 384.872803,119.620575 385.830048,120.465233 
	C389.767426,123.939575 393.508087,127.636887 397.321075,131.252197 
	C396.854736,131.888794 396.388367,132.525391 395.922028,133.161987 
	C394.089783,132.463470 392.257538,131.764969 390.099213,130.883865 
z"/>
<path fill="#3D2857" opacity="1.000000" stroke="none" 
	d="
M372.908997,318.064148 
	C372.931335,318.857788 372.554443,319.530975 371.949097,320.377319 
	C369.894379,319.665985 368.068054,318.781494 366.098633,317.568420 
	C367.235779,317.077881 368.515991,316.915924 370.156921,316.612366 
	C371.181671,316.961731 371.845734,317.452698 372.908997,318.064148 
z"/>
<path fill="#D0D0D0" opacity="1.000000" stroke="none" 
	d="
M386.681702,110.272591 
	C387.265961,110.341934 387.449341,110.458199 387.487030,110.531693 
	C387.389557,110.906693 387.254364,111.208214 387.009155,111.993561 
	C385.968262,111.857849 385.037445,111.238327 383.950684,110.316788 
	C384.562317,110.077591 385.329865,110.140419 386.681702,110.272591 
z"/>
<path fill="#3D2857" opacity="1.000000" stroke="none" 
	d="
M337.103760,274.185303 
	C337.645905,274.394623 338.229156,274.915527 338.872284,275.734131 
	C338.336395,275.520172 337.740601,275.008514 337.103760,274.185303 
z"/>
<path fill="#3D2857" opacity="1.000000" stroke="none" 
	d="
M350.012421,289.333923 
	C350.503571,289.344452 351.032318,289.600403 351.723419,290.109619 
	C351.273865,290.101685 350.661926,289.840515 350.012421,289.333923 
z"/>
<path fill="#3D2857" opacity="1.000000" stroke="none" 
	d="
M379.562317,301.928711 
	C379.597809,301.338959 379.922791,300.623413 380.508453,299.744171 
	C380.463379,300.321259 380.157562,301.062073 379.562317,301.928711 
z"/>
<path fill="#3D2857" opacity="1.000000" stroke="none" 
	d="
M344.081177,282.242889 
	C344.623810,282.434540 345.219116,282.930786 345.873871,283.723145 
	C345.333496,283.528656 344.733673,283.038055 344.081177,282.242889 
z"/>
<path fill="#3D2857" opacity="1.000000" stroke="none" 
	d="
M357.652100,283.926483 
	C357.658600,283.338654 357.945496,282.610107 358.480621,281.701355 
	C358.463409,282.276062 358.197968,283.030884 357.652100,283.926483 
z"/>
<path fill="#000000" opacity="1.000000" stroke="none" 
	d="
M756.814636,255.785187 
	C760.508301,225.111450 778.952148,199.578934 810.309753,194.302612 
	C844.884827,188.484894 874.270752,206.982361 884.530518,241.333786 
	C890.680847,261.926208 890.571350,282.673706 883.083923,302.964050 
	C874.484070,326.269043 858.297058,341.855743 833.436401,345.667267 
	C797.498962,351.177094 769.117920,332.190063 759.183960,296.753998 
	C755.460754,283.472809 755.031738,269.888611 756.814636,255.785187 
z"/>
</svg>